G04 #@! TF.GenerationSoftware,KiCad,Pcbnew,(5.1.10)-1*
G04 #@! TF.CreationDate,2022-06-06T19:05:23+02:00*
G04 #@! TF.ProjectId,Minidexed AddOn,4d696e69-6465-4786-9564-204164644f6e,rev?*
G04 #@! TF.SameCoordinates,Original*
G04 #@! TF.FileFunction,Copper,L1,Top*
G04 #@! TF.FilePolarity,Positive*
%FSLAX46Y46*%
G04 Gerber Fmt 4.6, Leading zero omitted, Abs format (unit mm)*
G04 Created by KiCad (PCBNEW (5.1.10)-1) date 2022-06-06 19:05:23*
%MOMM*%
%LPD*%
G01*
G04 APERTURE LIST*
G04 #@! TA.AperFunction,SMDPad,CuDef*
%ADD10R,2.500000X4.000000*%
G04 #@! TD*
G04 #@! TA.AperFunction,ComponentPad*
%ADD11R,2.000000X2.000000*%
G04 #@! TD*
G04 #@! TA.AperFunction,ComponentPad*
%ADD12C,2.000000*%
G04 #@! TD*
G04 #@! TA.AperFunction,ComponentPad*
%ADD13R,3.200000X2.000000*%
G04 #@! TD*
G04 #@! TA.AperFunction,ComponentPad*
%ADD14O,1.600000X1.600000*%
G04 #@! TD*
G04 #@! TA.AperFunction,ComponentPad*
%ADD15C,1.600000*%
G04 #@! TD*
G04 #@! TA.AperFunction,ComponentPad*
%ADD16C,1.440000*%
G04 #@! TD*
G04 #@! TA.AperFunction,ComponentPad*
%ADD17C,3.000000*%
G04 #@! TD*
G04 #@! TA.AperFunction,ComponentPad*
%ADD18O,2.600000X1.800000*%
G04 #@! TD*
G04 #@! TA.AperFunction,ComponentPad*
%ADD19R,2.600000X1.800000*%
G04 #@! TD*
G04 #@! TA.AperFunction,ComponentPad*
%ADD20R,1.700000X1.700000*%
G04 #@! TD*
G04 #@! TA.AperFunction,ComponentPad*
%ADD21O,1.700000X1.700000*%
G04 #@! TD*
G04 #@! TA.AperFunction,ViaPad*
%ADD22C,0.900000*%
G04 #@! TD*
G04 #@! TA.AperFunction,Conductor*
%ADD23C,0.200000*%
G04 #@! TD*
G04 #@! TA.AperFunction,Conductor*
%ADD24C,0.600000*%
G04 #@! TD*
G04 #@! TA.AperFunction,Conductor*
%ADD25C,0.254000*%
G04 #@! TD*
G04 #@! TA.AperFunction,Conductor*
%ADD26C,0.150000*%
G04 #@! TD*
G04 APERTURE END LIST*
D10*
X64135000Y5080000D03*
X60325000Y5080000D03*
D11*
X66630000Y-25880000D03*
D12*
X66630000Y-23380000D03*
X66630000Y-20880000D03*
D13*
X59130000Y-28980000D03*
X59130000Y-17780000D03*
D12*
X52130000Y-25880000D03*
X52130000Y-20880000D03*
D14*
X62750000Y-32230000D03*
D15*
X55130000Y-32230000D03*
D14*
X62750000Y-14730000D03*
D15*
X55130000Y-14730000D03*
D16*
X51130000Y-54610000D03*
X51130000Y-57150000D03*
X51130000Y-59690000D03*
D17*
X14270000Y14120000D03*
X45270700Y14119480D03*
X45270700Y-60879100D03*
X14270000Y-60879100D03*
D18*
X14270000Y-17280000D03*
X14270000Y-19820000D03*
X14270000Y-22360000D03*
X14270000Y-24900000D03*
X14270000Y-27440000D03*
X14270000Y-29980000D03*
X14270000Y-32520000D03*
X14270000Y-35060000D03*
X14270000Y-37600000D03*
X14270000Y-40140000D03*
X14270000Y-42680000D03*
X14270000Y-45220000D03*
X14270000Y-47760000D03*
X14270000Y-50300000D03*
X14270000Y-52840000D03*
D19*
X14270000Y-55380000D03*
D20*
X0Y0D03*
D21*
X0Y2540000D03*
X2540000Y0D03*
X2540000Y2540000D03*
X5080000Y0D03*
X5080000Y2540000D03*
X7620000Y0D03*
X7620000Y2540000D03*
X10160000Y0D03*
X10160000Y2540000D03*
X12700000Y0D03*
X12700000Y2540000D03*
X15240000Y0D03*
X15240000Y2540000D03*
X17780000Y0D03*
X17780000Y2540000D03*
X20320000Y0D03*
X20320000Y2540000D03*
X22860000Y0D03*
X22860000Y2540000D03*
X25400000Y0D03*
X25400000Y2540000D03*
X27940000Y0D03*
X27940000Y2540000D03*
X30480000Y0D03*
X30480000Y2540000D03*
X33020000Y0D03*
X33020000Y2540000D03*
X35560000Y0D03*
X35560000Y2540000D03*
X38100000Y0D03*
X38100000Y2540000D03*
X40640000Y0D03*
X40640000Y2540000D03*
X43180000Y0D03*
X43180000Y2540000D03*
X45720000Y0D03*
X45720000Y2540000D03*
X48260000Y0D03*
X48260000Y2540000D03*
D22*
X20320000Y-19050000D03*
X54610000Y-19050000D03*
X64135000Y1270000D03*
X12700000Y-8890000D03*
X26670000Y-8890000D03*
X26670000Y-46990000D03*
X25400000Y-41910000D03*
X13970000Y-7620000D03*
X25400000Y-7620000D03*
X22860000Y-29210000D03*
X17780000Y-5080000D03*
X22860000Y-5080000D03*
X21590000Y-26670000D03*
X21590000Y-2540000D03*
X16510000Y-2540000D03*
X19050000Y-24130000D03*
X24130000Y-21590000D03*
X22860000Y-3810000D03*
X64770000Y-3810000D03*
X25400000Y-6350000D03*
X62230000Y-6350000D03*
X27940000Y-7620000D03*
X52070000Y-7620000D03*
D23*
X20320000Y0D02*
X20320000Y-2540000D01*
X20320000Y-19050000D02*
X20320000Y-2540000D01*
X55130000Y-19570000D02*
X54610000Y-19050000D01*
X55130000Y-32230000D02*
X55130000Y-19570000D01*
X55130000Y-18530000D02*
X54610000Y-19050000D01*
X55130000Y-14730000D02*
X55130000Y-18530000D01*
D24*
X64135000Y1270000D02*
X64135000Y5080000D01*
D23*
X7620000Y0D02*
X8890000Y1270000D01*
X8890000Y1270000D02*
X10160000Y1270000D01*
X10592002Y1270000D02*
X11430000Y432002D01*
X10160000Y1270000D02*
X10592002Y1270000D01*
X11430000Y432002D02*
X11430000Y-1270000D01*
X11430000Y-1270000D02*
X12700000Y-2540000D01*
X12700000Y-2540000D02*
X12700000Y-8890000D01*
X12700000Y-8890000D02*
X12700000Y-8890000D01*
X26670000Y-8890000D02*
X26670000Y-46990000D01*
X26670000Y-46990000D02*
X26670000Y-46990000D01*
X25400000Y-41910000D02*
X25400000Y-41910000D01*
X12700000Y-1270000D02*
X12700000Y0D01*
X13970000Y-2540000D02*
X12700000Y-1270000D01*
X13970000Y-7620000D02*
X13970000Y-2540000D01*
X25400000Y-7620000D02*
X25400000Y-41910000D01*
X17780000Y-3810000D02*
X17780000Y-3810000D01*
X17780000Y0D02*
X17780000Y-5080000D01*
X22860000Y-29210000D02*
X22860000Y-5080000D01*
X22860000Y-5080000D02*
X22860000Y-5080000D01*
X17780000Y2540000D02*
X16510000Y1270000D01*
X16510000Y1270000D02*
X16510000Y-2540000D01*
X21590000Y-26670000D02*
X21590000Y-2540000D01*
X21590000Y-2540000D02*
X21590000Y-2540000D01*
X16510000Y-2540000D02*
X16510000Y-2540000D01*
X19050000Y1270000D02*
X20320000Y2540000D01*
X19050000Y-24130000D02*
X19050000Y1270000D01*
X24130000Y1270000D02*
X25400000Y2540000D01*
X24130000Y-21590000D02*
X24130000Y1270000D01*
X22860000Y0D02*
X22860000Y-3810000D01*
X22860000Y-3810000D02*
X22860000Y-3810000D01*
X64770000Y-3810000D02*
X64770000Y-25400000D01*
X66630000Y-25880000D02*
X65250000Y-25880000D01*
X65250000Y-25880000D02*
X64770000Y-25400000D01*
X65560000Y-32230000D02*
X62750000Y-32230000D01*
X66630000Y-31160000D02*
X65560000Y-32230000D01*
X66630000Y-25880000D02*
X66630000Y-31160000D01*
X25400000Y0D02*
X25400000Y-6350000D01*
X25400000Y-6350000D02*
X25400000Y-6350000D01*
X62750000Y-6870000D02*
X62230000Y-6350000D01*
X62750000Y-14730000D02*
X62750000Y-6870000D01*
X27940000Y0D02*
X27940000Y-7620000D01*
X27940000Y-7620000D02*
X27940000Y-7620000D01*
X52130000Y-7680000D02*
X52070000Y-7620000D01*
X52130000Y-20880000D02*
X52130000Y-7680000D01*
X14270000Y-50300000D02*
X24900000Y-50300000D01*
X31750000Y-57150000D02*
X24900000Y-50300000D01*
X51130000Y-57150000D02*
X31750000Y-57150000D01*
D25*
X44259398Y16011492D02*
X43909717Y15777843D01*
X43612337Y15480463D01*
X43378688Y15130782D01*
X43217747Y14742236D01*
X43135700Y14329759D01*
X43135700Y13909201D01*
X43217747Y13496724D01*
X43378688Y13108178D01*
X43612337Y12758497D01*
X43909717Y12461117D01*
X44259398Y12227468D01*
X44647944Y12066527D01*
X45060421Y11984480D01*
X45480979Y11984480D01*
X45893456Y12066527D01*
X46282002Y12227468D01*
X46390407Y12299902D01*
X55400000Y12299902D01*
X55400000Y11830098D01*
X55491654Y11369321D01*
X55671440Y10935279D01*
X55932450Y10544651D01*
X56264651Y10212450D01*
X56655279Y9951440D01*
X57089321Y9771654D01*
X57550098Y9680000D01*
X58019902Y9680000D01*
X58480679Y9771654D01*
X58914721Y9951440D01*
X59305349Y10212450D01*
X59637550Y10544651D01*
X59898560Y10935279D01*
X60078346Y11369321D01*
X60170000Y11830098D01*
X60170000Y12299902D01*
X64290000Y12299902D01*
X64290000Y11830098D01*
X64381654Y11369321D01*
X64561440Y10935279D01*
X64822450Y10544651D01*
X65154651Y10212450D01*
X65545279Y9951440D01*
X65979321Y9771654D01*
X66440098Y9680000D01*
X66909902Y9680000D01*
X67370679Y9771654D01*
X67804721Y9951440D01*
X68195349Y10212450D01*
X68527550Y10544651D01*
X68788560Y10935279D01*
X68968346Y11369321D01*
X69060000Y11830098D01*
X69060000Y12299902D01*
X68968346Y12760679D01*
X68788560Y13194721D01*
X68527550Y13585349D01*
X68195349Y13917550D01*
X67804721Y14178560D01*
X67370679Y14358346D01*
X66909902Y14450000D01*
X66440098Y14450000D01*
X65979321Y14358346D01*
X65545279Y14178560D01*
X65154651Y13917550D01*
X64822450Y13585349D01*
X64561440Y13194721D01*
X64381654Y12760679D01*
X64290000Y12299902D01*
X60170000Y12299902D01*
X60078346Y12760679D01*
X59898560Y13194721D01*
X59637550Y13585349D01*
X59305349Y13917550D01*
X58914721Y14178560D01*
X58480679Y14358346D01*
X58019902Y14450000D01*
X57550098Y14450000D01*
X57089321Y14358346D01*
X56655279Y14178560D01*
X56264651Y13917550D01*
X55932450Y13585349D01*
X55671440Y13194721D01*
X55491654Y12760679D01*
X55400000Y12299902D01*
X46390407Y12299902D01*
X46631683Y12461117D01*
X46929063Y12758497D01*
X47162712Y13108178D01*
X47323653Y13496724D01*
X47405700Y13909201D01*
X47405700Y14329759D01*
X47323653Y14742236D01*
X47162712Y15130782D01*
X46929063Y15480463D01*
X46631683Y15777843D01*
X46282002Y16011492D01*
X46104538Y16085000D01*
X74596495Y16085000D01*
X74884782Y16056733D01*
X75129855Y15982741D01*
X75355890Y15862557D01*
X75554281Y15700752D01*
X75717460Y15503503D01*
X75839220Y15278313D01*
X75914924Y15033753D01*
X75945000Y14747602D01*
X75945001Y-61486484D01*
X75916733Y-61774782D01*
X75842741Y-62019855D01*
X75722554Y-62245893D01*
X75560754Y-62444279D01*
X75363503Y-62607460D01*
X75138310Y-62729221D01*
X74893753Y-62804924D01*
X74607602Y-62835000D01*
X46127763Y-62835000D01*
X46282002Y-62771112D01*
X46631683Y-62537463D01*
X46929063Y-62240083D01*
X47162712Y-61890402D01*
X47323653Y-61501856D01*
X47405700Y-61089379D01*
X47405700Y-60668821D01*
X47397095Y-60625560D01*
X50374045Y-60625560D01*
X50435932Y-60861368D01*
X50677790Y-60974266D01*
X50937027Y-61037811D01*
X51203680Y-61049561D01*
X51467501Y-61009063D01*
X51718353Y-60917875D01*
X51824068Y-60861368D01*
X51885955Y-60625560D01*
X51130000Y-59869605D01*
X50374045Y-60625560D01*
X47397095Y-60625560D01*
X47323653Y-60256344D01*
X47162712Y-59867798D01*
X47093143Y-59763680D01*
X49770439Y-59763680D01*
X49810937Y-60027501D01*
X49902125Y-60278353D01*
X49958632Y-60384068D01*
X50194440Y-60445955D01*
X50950395Y-59690000D01*
X51309605Y-59690000D01*
X52065560Y-60445955D01*
X52301368Y-60384068D01*
X52414266Y-60142210D01*
X52477811Y-59882973D01*
X52489561Y-59616320D01*
X52449063Y-59352499D01*
X52357875Y-59101647D01*
X52301368Y-58995932D01*
X52065560Y-58934045D01*
X51309605Y-59690000D01*
X50950395Y-59690000D01*
X50194440Y-58934045D01*
X49958632Y-58995932D01*
X49845734Y-59237790D01*
X49782189Y-59497027D01*
X49770439Y-59763680D01*
X47093143Y-59763680D01*
X46929063Y-59518117D01*
X46631683Y-59220737D01*
X46282002Y-58987088D01*
X45893456Y-58826147D01*
X45480979Y-58744100D01*
X45060421Y-58744100D01*
X44647944Y-58826147D01*
X44259398Y-58987088D01*
X43909717Y-59220737D01*
X43612337Y-59518117D01*
X43378688Y-59867798D01*
X43217747Y-60256344D01*
X43135700Y-60668821D01*
X43135700Y-61089379D01*
X43217747Y-61501856D01*
X43378688Y-61890402D01*
X43612337Y-62240083D01*
X43909717Y-62537463D01*
X44259398Y-62771112D01*
X44413637Y-62835000D01*
X15127063Y-62835000D01*
X15281302Y-62771112D01*
X15630983Y-62537463D01*
X15928363Y-62240083D01*
X16162012Y-61890402D01*
X16322953Y-61501856D01*
X16405000Y-61089379D01*
X16405000Y-60668821D01*
X16322953Y-60256344D01*
X16162012Y-59867798D01*
X15928363Y-59518117D01*
X15630983Y-59220737D01*
X15281302Y-58987088D01*
X14892756Y-58826147D01*
X14480279Y-58744100D01*
X14059721Y-58744100D01*
X13647244Y-58826147D01*
X13258698Y-58987088D01*
X12909017Y-59220737D01*
X12611637Y-59518117D01*
X12377988Y-59867798D01*
X12315000Y-60019865D01*
X12315000Y-54480000D01*
X12331928Y-54480000D01*
X12331928Y-56280000D01*
X12344188Y-56404482D01*
X12380498Y-56524180D01*
X12439463Y-56634494D01*
X12518815Y-56731185D01*
X12615506Y-56810537D01*
X12725820Y-56869502D01*
X12845518Y-56905812D01*
X12970000Y-56918072D01*
X15570000Y-56918072D01*
X15694482Y-56905812D01*
X15814180Y-56869502D01*
X15924494Y-56810537D01*
X16021185Y-56731185D01*
X16100537Y-56634494D01*
X16159502Y-56524180D01*
X16195812Y-56404482D01*
X16208072Y-56280000D01*
X16208072Y-54480000D01*
X16195812Y-54355518D01*
X16159502Y-54235820D01*
X16100537Y-54125506D01*
X16021185Y-54028815D01*
X15924494Y-53949463D01*
X15814180Y-53890498D01*
X15794679Y-53884582D01*
X15845210Y-53835606D01*
X16016862Y-53587204D01*
X16136755Y-53310087D01*
X16161036Y-53204740D01*
X16040378Y-52967000D01*
X14397000Y-52967000D01*
X14397000Y-52987000D01*
X14143000Y-52987000D01*
X14143000Y-52967000D01*
X12499622Y-52967000D01*
X12378964Y-53204740D01*
X12403245Y-53310087D01*
X12523138Y-53587204D01*
X12694790Y-53835606D01*
X12745321Y-53884582D01*
X12725820Y-53890498D01*
X12615506Y-53949463D01*
X12518815Y-54028815D01*
X12439463Y-54125506D01*
X12380498Y-54235820D01*
X12344188Y-54355518D01*
X12331928Y-54480000D01*
X12315000Y-54480000D01*
X12315000Y-53196353D01*
X12312045Y-53166355D01*
X12312132Y-53153953D01*
X12311198Y-53144434D01*
X12270397Y-52756242D01*
X12257920Y-52695461D01*
X12246280Y-52634440D01*
X12243516Y-52625284D01*
X12128092Y-52252409D01*
X12104028Y-52195163D01*
X12080776Y-52137612D01*
X12076286Y-52129167D01*
X11890635Y-51785812D01*
X11855919Y-51734344D01*
X11821920Y-51682389D01*
X11815876Y-51674978D01*
X11567069Y-51374223D01*
X11522996Y-51330457D01*
X11479577Y-51286119D01*
X11472208Y-51280022D01*
X11169723Y-51033321D01*
X11118005Y-50998960D01*
X11066784Y-50963888D01*
X11058371Y-50959339D01*
X10713730Y-50776089D01*
X10656300Y-50752418D01*
X10599263Y-50727972D01*
X10590131Y-50725145D01*
X10590125Y-50725143D01*
X10216455Y-50612326D01*
X10155545Y-50600265D01*
X10094826Y-50587359D01*
X10085314Y-50586359D01*
X9696845Y-50548269D01*
X9696837Y-50548269D01*
X9663647Y-50545000D01*
X-5336496Y-50545000D01*
X-5819016Y-50497688D01*
X-6250927Y-50367287D01*
X-6649280Y-50155480D01*
X-6998914Y-49870325D01*
X-7286497Y-49522697D01*
X-7501085Y-49125825D01*
X-7634500Y-48694834D01*
X-7685000Y-48214346D01*
X-7685000Y-47763505D01*
X-7662546Y-47534495D01*
X-6855000Y-47534495D01*
X-6855000Y-47925505D01*
X-6778718Y-48309003D01*
X-6629085Y-48670250D01*
X-6411851Y-48995364D01*
X-6135364Y-49271851D01*
X-5810250Y-49489085D01*
X-5449003Y-49638718D01*
X-5065505Y-49715000D01*
X-4674495Y-49715000D01*
X-4290997Y-49638718D01*
X-3929750Y-49489085D01*
X-3604636Y-49271851D01*
X-3328149Y-48995364D01*
X-3110915Y-48670250D01*
X-2961282Y-48309003D01*
X-2885000Y-47925505D01*
X-2885000Y-47534495D01*
X-2961282Y-47150997D01*
X-3110915Y-46789750D01*
X-3328149Y-46464636D01*
X-3604636Y-46188149D01*
X-3929750Y-45970915D01*
X-4290997Y-45821282D01*
X-4674495Y-45745000D01*
X-5065505Y-45745000D01*
X-5449003Y-45821282D01*
X-5810250Y-45970915D01*
X-6135364Y-46188149D01*
X-6411851Y-46464636D01*
X-6629085Y-46789750D01*
X-6778718Y-47150997D01*
X-6855000Y-47534495D01*
X-7662546Y-47534495D01*
X-7637688Y-47280984D01*
X-7507286Y-46849070D01*
X-7295476Y-46450715D01*
X-7010325Y-46101086D01*
X-6662697Y-45813503D01*
X-6265823Y-45598914D01*
X-5834839Y-45465502D01*
X-5354346Y-45415000D01*
X9163647Y-45415000D01*
X9193645Y-45412045D01*
X9206047Y-45412132D01*
X9215565Y-45411198D01*
X9603758Y-45370397D01*
X9664539Y-45357920D01*
X9725560Y-45346280D01*
X9734716Y-45343516D01*
X10107591Y-45228092D01*
X10164870Y-45204014D01*
X10222388Y-45180775D01*
X10230833Y-45176286D01*
X10574188Y-44990634D01*
X10625635Y-44955932D01*
X10677610Y-44921921D01*
X10685022Y-44915876D01*
X10985777Y-44667069D01*
X11029524Y-44623016D01*
X11073881Y-44579578D01*
X11079978Y-44572208D01*
X11326679Y-44269724D01*
X11361047Y-44217995D01*
X11396111Y-44166785D01*
X11400661Y-44158372D01*
X11583910Y-43813730D01*
X11607555Y-43756364D01*
X11632028Y-43699264D01*
X11634856Y-43690127D01*
X11747674Y-43316456D01*
X11759737Y-43255531D01*
X11772641Y-43194826D01*
X11773641Y-43185314D01*
X11811731Y-42796845D01*
X11811731Y-42796837D01*
X11815000Y-42763647D01*
X11815000Y-17280000D01*
X12327573Y-17280000D01*
X12357210Y-17580913D01*
X12444983Y-17870261D01*
X12587519Y-18136927D01*
X12779339Y-18370661D01*
X12997865Y-18550000D01*
X12779339Y-18729339D01*
X12587519Y-18963073D01*
X12444983Y-19229739D01*
X12357210Y-19519087D01*
X12327573Y-19820000D01*
X12357210Y-20120913D01*
X12444983Y-20410261D01*
X12587519Y-20676927D01*
X12779339Y-20910661D01*
X12997865Y-21090000D01*
X12779339Y-21269339D01*
X12587519Y-21503073D01*
X12444983Y-21769739D01*
X12357210Y-22059087D01*
X12327573Y-22360000D01*
X12357210Y-22660913D01*
X12444983Y-22950261D01*
X12587519Y-23216927D01*
X12779339Y-23450661D01*
X12997865Y-23630000D01*
X12779339Y-23809339D01*
X12587519Y-24043073D01*
X12444983Y-24309739D01*
X12357210Y-24599087D01*
X12327573Y-24900000D01*
X12357210Y-25200913D01*
X12444983Y-25490261D01*
X12587519Y-25756927D01*
X12779339Y-25990661D01*
X12997865Y-26170000D01*
X12779339Y-26349339D01*
X12587519Y-26583073D01*
X12444983Y-26849739D01*
X12357210Y-27139087D01*
X12327573Y-27440000D01*
X12357210Y-27740913D01*
X12444983Y-28030261D01*
X12587519Y-28296927D01*
X12779339Y-28530661D01*
X12997865Y-28710000D01*
X12779339Y-28889339D01*
X12587519Y-29123073D01*
X12444983Y-29389739D01*
X12357210Y-29679087D01*
X12327573Y-29980000D01*
X12357210Y-30280913D01*
X12444983Y-30570261D01*
X12587519Y-30836927D01*
X12779339Y-31070661D01*
X12997865Y-31250000D01*
X12779339Y-31429339D01*
X12587519Y-31663073D01*
X12444983Y-31929739D01*
X12357210Y-32219087D01*
X12327573Y-32520000D01*
X12357210Y-32820913D01*
X12444983Y-33110261D01*
X12587519Y-33376927D01*
X12779339Y-33610661D01*
X12997865Y-33790000D01*
X12779339Y-33969339D01*
X12587519Y-34203073D01*
X12444983Y-34469739D01*
X12357210Y-34759087D01*
X12327573Y-35060000D01*
X12357210Y-35360913D01*
X12444983Y-35650261D01*
X12587519Y-35916927D01*
X12779339Y-36150661D01*
X12997865Y-36330000D01*
X12779339Y-36509339D01*
X12587519Y-36743073D01*
X12444983Y-37009739D01*
X12357210Y-37299087D01*
X12327573Y-37600000D01*
X12357210Y-37900913D01*
X12444983Y-38190261D01*
X12587519Y-38456927D01*
X12779339Y-38690661D01*
X12997865Y-38870000D01*
X12779339Y-39049339D01*
X12587519Y-39283073D01*
X12444983Y-39549739D01*
X12357210Y-39839087D01*
X12327573Y-40140000D01*
X12357210Y-40440913D01*
X12444983Y-40730261D01*
X12587519Y-40996927D01*
X12779339Y-41230661D01*
X12997865Y-41410000D01*
X12779339Y-41589339D01*
X12587519Y-41823073D01*
X12444983Y-42089739D01*
X12357210Y-42379087D01*
X12327573Y-42680000D01*
X12357210Y-42980913D01*
X12444983Y-43270261D01*
X12587519Y-43536927D01*
X12779339Y-43770661D01*
X12997865Y-43950000D01*
X12779339Y-44129339D01*
X12587519Y-44363073D01*
X12444983Y-44629739D01*
X12357210Y-44919087D01*
X12327573Y-45220000D01*
X12357210Y-45520913D01*
X12444983Y-45810261D01*
X12587519Y-46076927D01*
X12779339Y-46310661D01*
X12997865Y-46490000D01*
X12779339Y-46669339D01*
X12587519Y-46903073D01*
X12444983Y-47169739D01*
X12357210Y-47459087D01*
X12327573Y-47760000D01*
X12357210Y-48060913D01*
X12444983Y-48350261D01*
X12587519Y-48616927D01*
X12779339Y-48850661D01*
X12997865Y-49030000D01*
X12779339Y-49209339D01*
X12587519Y-49443073D01*
X12444983Y-49709739D01*
X12357210Y-49999087D01*
X12327573Y-50300000D01*
X12357210Y-50600913D01*
X12444983Y-50890261D01*
X12587519Y-51156927D01*
X12779339Y-51390661D01*
X13003691Y-51574781D01*
X12911604Y-51634252D01*
X12694790Y-51844394D01*
X12523138Y-52092796D01*
X12403245Y-52369913D01*
X12378964Y-52475260D01*
X12499622Y-52713000D01*
X14143000Y-52713000D01*
X14143000Y-52693000D01*
X14397000Y-52693000D01*
X14397000Y-52713000D01*
X16040378Y-52713000D01*
X16161036Y-52475260D01*
X16136755Y-52369913D01*
X16016862Y-52092796D01*
X15845210Y-51844394D01*
X15628396Y-51634252D01*
X15536309Y-51574781D01*
X15760661Y-51390661D01*
X15952481Y-51156927D01*
X16017652Y-51035000D01*
X24595554Y-51035000D01*
X31204746Y-57644193D01*
X31227762Y-57672238D01*
X31339680Y-57764087D01*
X31467367Y-57832337D01*
X31605915Y-57874365D01*
X31750000Y-57888556D01*
X31786105Y-57885000D01*
X49991467Y-57885000D01*
X50077503Y-58013762D01*
X50266238Y-58202497D01*
X50488167Y-58350785D01*
X50656324Y-58420438D01*
X50541647Y-58462125D01*
X50435932Y-58518632D01*
X50374045Y-58754440D01*
X51130000Y-59510395D01*
X51885955Y-58754440D01*
X51824068Y-58518632D01*
X51608993Y-58418236D01*
X51771833Y-58350785D01*
X51993762Y-58202497D01*
X52182497Y-58013762D01*
X52330785Y-57791833D01*
X52432928Y-57545239D01*
X52485000Y-57283456D01*
X52485000Y-57016544D01*
X52432928Y-56754761D01*
X52330785Y-56508167D01*
X52182497Y-56286238D01*
X51993762Y-56097503D01*
X51771833Y-55949215D01*
X51604734Y-55880000D01*
X51771833Y-55810785D01*
X51993762Y-55662497D01*
X52182497Y-55473762D01*
X52330785Y-55251833D01*
X52432928Y-55005239D01*
X52485000Y-54743456D01*
X52485000Y-54476544D01*
X52432928Y-54214761D01*
X52330785Y-53968167D01*
X52182497Y-53746238D01*
X51993762Y-53557503D01*
X51771833Y-53409215D01*
X51525239Y-53307072D01*
X51263456Y-53255000D01*
X50996544Y-53255000D01*
X50734761Y-53307072D01*
X50488167Y-53409215D01*
X50266238Y-53557503D01*
X50077503Y-53746238D01*
X49929215Y-53968167D01*
X49827072Y-54214761D01*
X49775000Y-54476544D01*
X49775000Y-54743456D01*
X49827072Y-55005239D01*
X49929215Y-55251833D01*
X50077503Y-55473762D01*
X50266238Y-55662497D01*
X50488167Y-55810785D01*
X50655266Y-55880000D01*
X50488167Y-55949215D01*
X50266238Y-56097503D01*
X50077503Y-56286238D01*
X49991467Y-56415000D01*
X32054447Y-56415000D01*
X25445259Y-49805813D01*
X25422238Y-49777762D01*
X25310320Y-49685913D01*
X25182633Y-49617663D01*
X25044085Y-49575635D01*
X24936105Y-49565000D01*
X24900000Y-49561444D01*
X24863895Y-49565000D01*
X16017652Y-49565000D01*
X15952481Y-49443073D01*
X15760661Y-49209339D01*
X15542135Y-49030000D01*
X15760661Y-48850661D01*
X15952481Y-48616927D01*
X16095017Y-48350261D01*
X16182790Y-48060913D01*
X16212427Y-47760000D01*
X16182790Y-47459087D01*
X16095017Y-47169739D01*
X15952481Y-46903073D01*
X15760661Y-46669339D01*
X15542135Y-46490000D01*
X15760661Y-46310661D01*
X15952481Y-46076927D01*
X16095017Y-45810261D01*
X16182790Y-45520913D01*
X16212427Y-45220000D01*
X16182790Y-44919087D01*
X16095017Y-44629739D01*
X15952481Y-44363073D01*
X15760661Y-44129339D01*
X15542135Y-43950000D01*
X15760661Y-43770661D01*
X15952481Y-43536927D01*
X16095017Y-43270261D01*
X16182790Y-42980913D01*
X16212427Y-42680000D01*
X16182790Y-42379087D01*
X16095017Y-42089739D01*
X15952481Y-41823073D01*
X15760661Y-41589339D01*
X15542135Y-41410000D01*
X15760661Y-41230661D01*
X15952481Y-40996927D01*
X16095017Y-40730261D01*
X16182790Y-40440913D01*
X16212427Y-40140000D01*
X16182790Y-39839087D01*
X16095017Y-39549739D01*
X15952481Y-39283073D01*
X15760661Y-39049339D01*
X15542135Y-38870000D01*
X15760661Y-38690661D01*
X15952481Y-38456927D01*
X16095017Y-38190261D01*
X16182790Y-37900913D01*
X16212427Y-37600000D01*
X16182790Y-37299087D01*
X16095017Y-37009739D01*
X15952481Y-36743073D01*
X15760661Y-36509339D01*
X15542135Y-36330000D01*
X15760661Y-36150661D01*
X15952481Y-35916927D01*
X16095017Y-35650261D01*
X16182790Y-35360913D01*
X16212427Y-35060000D01*
X16182790Y-34759087D01*
X16095017Y-34469739D01*
X15952481Y-34203073D01*
X15760661Y-33969339D01*
X15542135Y-33790000D01*
X15760661Y-33610661D01*
X15952481Y-33376927D01*
X16095017Y-33110261D01*
X16182790Y-32820913D01*
X16212427Y-32520000D01*
X16182790Y-32219087D01*
X16095017Y-31929739D01*
X15952481Y-31663073D01*
X15760661Y-31429339D01*
X15542135Y-31250000D01*
X15760661Y-31070661D01*
X15952481Y-30836927D01*
X16095017Y-30570261D01*
X16182790Y-30280913D01*
X16212427Y-29980000D01*
X16182790Y-29679087D01*
X16095017Y-29389739D01*
X15952481Y-29123073D01*
X15760661Y-28889339D01*
X15542135Y-28710000D01*
X15760661Y-28530661D01*
X15952481Y-28296927D01*
X16095017Y-28030261D01*
X16182790Y-27740913D01*
X16212427Y-27440000D01*
X16182790Y-27139087D01*
X16095017Y-26849739D01*
X15952481Y-26583073D01*
X15760661Y-26349339D01*
X15542135Y-26170000D01*
X15760661Y-25990661D01*
X15952481Y-25756927D01*
X16095017Y-25490261D01*
X16182790Y-25200913D01*
X16212427Y-24900000D01*
X16182790Y-24599087D01*
X16095017Y-24309739D01*
X15952481Y-24043073D01*
X15760661Y-23809339D01*
X15542135Y-23630000D01*
X15760661Y-23450661D01*
X15952481Y-23216927D01*
X16095017Y-22950261D01*
X16182790Y-22660913D01*
X16212427Y-22360000D01*
X16182790Y-22059087D01*
X16095017Y-21769739D01*
X15952481Y-21503073D01*
X15760661Y-21269339D01*
X15542135Y-21090000D01*
X15760661Y-20910661D01*
X15952481Y-20676927D01*
X16095017Y-20410261D01*
X16182790Y-20120913D01*
X16212427Y-19820000D01*
X16182790Y-19519087D01*
X16095017Y-19229739D01*
X15952481Y-18963073D01*
X15760661Y-18729339D01*
X15542135Y-18550000D01*
X15760661Y-18370661D01*
X15952481Y-18136927D01*
X16095017Y-17870261D01*
X16182790Y-17580913D01*
X16212427Y-17280000D01*
X16182790Y-16979087D01*
X16095017Y-16689739D01*
X15952481Y-16423073D01*
X15760661Y-16189339D01*
X15526927Y-15997519D01*
X15260261Y-15854983D01*
X14970913Y-15767210D01*
X14745408Y-15745000D01*
X13794592Y-15745000D01*
X13569087Y-15767210D01*
X13279739Y-15854983D01*
X13013073Y-15997519D01*
X12779339Y-16189339D01*
X12587519Y-16423073D01*
X12444983Y-16689739D01*
X12357210Y-16979087D01*
X12327573Y-17280000D01*
X11815000Y-17280000D01*
X11815000Y-9518453D01*
X11857225Y-9581647D01*
X12008353Y-9732775D01*
X12186060Y-9851515D01*
X12383517Y-9933304D01*
X12593137Y-9975000D01*
X12806863Y-9975000D01*
X13016483Y-9933304D01*
X13213940Y-9851515D01*
X13391647Y-9732775D01*
X13542775Y-9581647D01*
X13661515Y-9403940D01*
X13743304Y-9206483D01*
X13785000Y-8996863D01*
X13785000Y-8783137D01*
X13765598Y-8685598D01*
X13863137Y-8705000D01*
X14076863Y-8705000D01*
X14286483Y-8663304D01*
X14483940Y-8581515D01*
X14661647Y-8462775D01*
X14812775Y-8311647D01*
X14931515Y-8133940D01*
X15013304Y-7936483D01*
X15055000Y-7726863D01*
X15055000Y-7513137D01*
X15013304Y-7303517D01*
X14931515Y-7106060D01*
X14812775Y-6928353D01*
X14705000Y-6820578D01*
X14705000Y-2576094D01*
X14708555Y-2539999D01*
X14705000Y-2503904D01*
X14705000Y-2503895D01*
X14694365Y-2395915D01*
X14652337Y-2257367D01*
X14584087Y-2129680D01*
X14492238Y-2017762D01*
X14464193Y-1994746D01*
X13632418Y-1162972D01*
X13646632Y-1153475D01*
X13853475Y-946632D01*
X13970000Y-772240D01*
X14086525Y-946632D01*
X14293368Y-1153475D01*
X14536589Y-1315990D01*
X14806842Y-1427932D01*
X15093740Y-1485000D01*
X15386260Y-1485000D01*
X15673158Y-1427932D01*
X15775001Y-1385748D01*
X15775001Y-1740577D01*
X15667225Y-1848353D01*
X15548485Y-2026060D01*
X15466696Y-2223517D01*
X15425000Y-2433137D01*
X15425000Y-2646863D01*
X15466696Y-2856483D01*
X15548485Y-3053940D01*
X15667225Y-3231647D01*
X15818353Y-3382775D01*
X15996060Y-3501515D01*
X16193517Y-3583304D01*
X16403137Y-3625000D01*
X16616863Y-3625000D01*
X16826483Y-3583304D01*
X17023940Y-3501515D01*
X17045001Y-3487443D01*
X17045001Y-3773887D01*
X17041444Y-3810000D01*
X17045001Y-3846113D01*
X17045001Y-4280577D01*
X16937225Y-4388353D01*
X16818485Y-4566060D01*
X16736696Y-4763517D01*
X16695000Y-4973137D01*
X16695000Y-5186863D01*
X16736696Y-5396483D01*
X16818485Y-5593940D01*
X16937225Y-5771647D01*
X17088353Y-5922775D01*
X17266060Y-6041515D01*
X17463517Y-6123304D01*
X17673137Y-6165000D01*
X17886863Y-6165000D01*
X18096483Y-6123304D01*
X18293940Y-6041515D01*
X18315001Y-6027443D01*
X18315000Y-23330578D01*
X18207225Y-23438353D01*
X18088485Y-23616060D01*
X18006696Y-23813517D01*
X17965000Y-24023137D01*
X17965000Y-24236863D01*
X18006696Y-24446483D01*
X18088485Y-24643940D01*
X18207225Y-24821647D01*
X18358353Y-24972775D01*
X18536060Y-25091515D01*
X18733517Y-25173304D01*
X18943137Y-25215000D01*
X19156863Y-25215000D01*
X19366483Y-25173304D01*
X19563940Y-25091515D01*
X19741647Y-24972775D01*
X19892775Y-24821647D01*
X20011515Y-24643940D01*
X20093304Y-24446483D01*
X20135000Y-24236863D01*
X20135000Y-24023137D01*
X20093304Y-23813517D01*
X20011515Y-23616060D01*
X19892775Y-23438353D01*
X19785000Y-23330578D01*
X19785000Y-19997443D01*
X19806060Y-20011515D01*
X20003517Y-20093304D01*
X20213137Y-20135000D01*
X20426863Y-20135000D01*
X20636483Y-20093304D01*
X20833940Y-20011515D01*
X20855000Y-19997443D01*
X20855000Y-25870578D01*
X20747225Y-25978353D01*
X20628485Y-26156060D01*
X20546696Y-26353517D01*
X20505000Y-26563137D01*
X20505000Y-26776863D01*
X20546696Y-26986483D01*
X20628485Y-27183940D01*
X20747225Y-27361647D01*
X20898353Y-27512775D01*
X21076060Y-27631515D01*
X21273517Y-27713304D01*
X21483137Y-27755000D01*
X21696863Y-27755000D01*
X21906483Y-27713304D01*
X22103940Y-27631515D01*
X22125000Y-27617443D01*
X22125000Y-28410578D01*
X22017225Y-28518353D01*
X21898485Y-28696060D01*
X21816696Y-28893517D01*
X21775000Y-29103137D01*
X21775000Y-29316863D01*
X21816696Y-29526483D01*
X21898485Y-29723940D01*
X22017225Y-29901647D01*
X22168353Y-30052775D01*
X22346060Y-30171515D01*
X22543517Y-30253304D01*
X22753137Y-30295000D01*
X22966863Y-30295000D01*
X23176483Y-30253304D01*
X23373940Y-30171515D01*
X23551647Y-30052775D01*
X23702775Y-29901647D01*
X23821515Y-29723940D01*
X23903304Y-29526483D01*
X23945000Y-29316863D01*
X23945000Y-29103137D01*
X23903304Y-28893517D01*
X23821515Y-28696060D01*
X23702775Y-28518353D01*
X23595000Y-28410578D01*
X23595000Y-22537443D01*
X23616060Y-22551515D01*
X23813517Y-22633304D01*
X24023137Y-22675000D01*
X24236863Y-22675000D01*
X24446483Y-22633304D01*
X24643940Y-22551515D01*
X24665000Y-22537443D01*
X24665001Y-41110577D01*
X24557225Y-41218353D01*
X24438485Y-41396060D01*
X24356696Y-41593517D01*
X24315000Y-41803137D01*
X24315000Y-42016863D01*
X24356696Y-42226483D01*
X24438485Y-42423940D01*
X24557225Y-42601647D01*
X24708353Y-42752775D01*
X24886060Y-42871515D01*
X25083517Y-42953304D01*
X25293137Y-42995000D01*
X25506863Y-42995000D01*
X25716483Y-42953304D01*
X25913940Y-42871515D01*
X25935001Y-42857443D01*
X25935001Y-46190577D01*
X25827225Y-46298353D01*
X25708485Y-46476060D01*
X25626696Y-46673517D01*
X25585000Y-46883137D01*
X25585000Y-47096863D01*
X25626696Y-47306483D01*
X25708485Y-47503940D01*
X25827225Y-47681647D01*
X25978353Y-47832775D01*
X26156060Y-47951515D01*
X26353517Y-48033304D01*
X26563137Y-48075000D01*
X26776863Y-48075000D01*
X26986483Y-48033304D01*
X27183940Y-47951515D01*
X27361647Y-47832775D01*
X27512775Y-47681647D01*
X27611098Y-47534495D01*
X51145000Y-47534495D01*
X51145000Y-47925505D01*
X51221282Y-48309003D01*
X51370915Y-48670250D01*
X51588149Y-48995364D01*
X51864636Y-49271851D01*
X52189750Y-49489085D01*
X52550997Y-49638718D01*
X52934495Y-49715000D01*
X53325505Y-49715000D01*
X53709003Y-49638718D01*
X54070250Y-49489085D01*
X54395364Y-49271851D01*
X54671851Y-48995364D01*
X54889085Y-48670250D01*
X55038718Y-48309003D01*
X55115000Y-47925505D01*
X55115000Y-47534495D01*
X55038718Y-47150997D01*
X54889085Y-46789750D01*
X54671851Y-46464636D01*
X54395364Y-46188149D01*
X54070250Y-45970915D01*
X53709003Y-45821282D01*
X53325505Y-45745000D01*
X52934495Y-45745000D01*
X52550997Y-45821282D01*
X52189750Y-45970915D01*
X51864636Y-46188149D01*
X51588149Y-46464636D01*
X51370915Y-46789750D01*
X51221282Y-47150997D01*
X51145000Y-47534495D01*
X27611098Y-47534495D01*
X27631515Y-47503940D01*
X27713304Y-47306483D01*
X27755000Y-47096863D01*
X27755000Y-46883137D01*
X27713304Y-46673517D01*
X27631515Y-46476060D01*
X27512775Y-46298353D01*
X27405000Y-46190578D01*
X27405000Y-25718967D01*
X50495000Y-25718967D01*
X50495000Y-26041033D01*
X50557832Y-26356912D01*
X50681082Y-26654463D01*
X50860013Y-26922252D01*
X51087748Y-27149987D01*
X51355537Y-27328918D01*
X51653088Y-27452168D01*
X51968967Y-27515000D01*
X52291033Y-27515000D01*
X52606912Y-27452168D01*
X52904463Y-27328918D01*
X53172252Y-27149987D01*
X53399987Y-26922252D01*
X53578918Y-26654463D01*
X53702168Y-26356912D01*
X53765000Y-26041033D01*
X53765000Y-25718967D01*
X53702168Y-25403088D01*
X53578918Y-25105537D01*
X53399987Y-24837748D01*
X53172252Y-24610013D01*
X52904463Y-24431082D01*
X52606912Y-24307832D01*
X52291033Y-24245000D01*
X51968967Y-24245000D01*
X51653088Y-24307832D01*
X51355537Y-24431082D01*
X51087748Y-24610013D01*
X50860013Y-24837748D01*
X50681082Y-25105537D01*
X50557832Y-25403088D01*
X50495000Y-25718967D01*
X27405000Y-25718967D01*
X27405000Y-20718967D01*
X50495000Y-20718967D01*
X50495000Y-21041033D01*
X50557832Y-21356912D01*
X50681082Y-21654463D01*
X50860013Y-21922252D01*
X51087748Y-22149987D01*
X51355537Y-22328918D01*
X51653088Y-22452168D01*
X51968967Y-22515000D01*
X52291033Y-22515000D01*
X52606912Y-22452168D01*
X52904463Y-22328918D01*
X53172252Y-22149987D01*
X53399987Y-21922252D01*
X53578918Y-21654463D01*
X53702168Y-21356912D01*
X53765000Y-21041033D01*
X53765000Y-20718967D01*
X53702168Y-20403088D01*
X53578918Y-20105537D01*
X53399987Y-19837748D01*
X53172252Y-19610013D01*
X52904463Y-19431082D01*
X52865000Y-19414736D01*
X52865000Y-18943137D01*
X53525000Y-18943137D01*
X53525000Y-19156863D01*
X53566696Y-19366483D01*
X53648485Y-19563940D01*
X53767225Y-19741647D01*
X53918353Y-19892775D01*
X54096060Y-20011515D01*
X54293517Y-20093304D01*
X54395001Y-20113490D01*
X54395000Y-30995252D01*
X54215241Y-31115363D01*
X54015363Y-31315241D01*
X53858320Y-31550273D01*
X53750147Y-31811426D01*
X53695000Y-32088665D01*
X53695000Y-32371335D01*
X53750147Y-32648574D01*
X53858320Y-32909727D01*
X54015363Y-33144759D01*
X54215241Y-33344637D01*
X54450273Y-33501680D01*
X54711426Y-33609853D01*
X54988665Y-33665000D01*
X55271335Y-33665000D01*
X55548574Y-33609853D01*
X55809727Y-33501680D01*
X56044759Y-33344637D01*
X56244637Y-33144759D01*
X56401680Y-32909727D01*
X56509853Y-32648574D01*
X56565000Y-32371335D01*
X56565000Y-32088665D01*
X56509853Y-31811426D01*
X56401680Y-31550273D01*
X56244637Y-31315241D01*
X56044759Y-31115363D01*
X55865000Y-30995252D01*
X55865000Y-27980000D01*
X56891928Y-27980000D01*
X56891928Y-29980000D01*
X56904188Y-30104482D01*
X56940498Y-30224180D01*
X56999463Y-30334494D01*
X57078815Y-30431185D01*
X57175506Y-30510537D01*
X57285820Y-30569502D01*
X57405518Y-30605812D01*
X57530000Y-30618072D01*
X60730000Y-30618072D01*
X60854482Y-30605812D01*
X60974180Y-30569502D01*
X61084494Y-30510537D01*
X61181185Y-30431185D01*
X61260537Y-30334494D01*
X61319502Y-30224180D01*
X61355812Y-30104482D01*
X61368072Y-29980000D01*
X61368072Y-27980000D01*
X61355812Y-27855518D01*
X61319502Y-27735820D01*
X61260537Y-27625506D01*
X61181185Y-27528815D01*
X61084494Y-27449463D01*
X60974180Y-27390498D01*
X60854482Y-27354188D01*
X60730000Y-27341928D01*
X57530000Y-27341928D01*
X57405518Y-27354188D01*
X57285820Y-27390498D01*
X57175506Y-27449463D01*
X57078815Y-27528815D01*
X56999463Y-27625506D01*
X56940498Y-27735820D01*
X56904188Y-27855518D01*
X56891928Y-27980000D01*
X55865000Y-27980000D01*
X55865000Y-19606104D01*
X55868556Y-19569999D01*
X55854365Y-19425914D01*
X55837252Y-19369502D01*
X55812337Y-19287367D01*
X55744087Y-19159680D01*
X55695000Y-19099867D01*
X55695000Y-19000133D01*
X55744087Y-18940320D01*
X55812337Y-18812633D01*
X55854365Y-18674085D01*
X55868556Y-18530001D01*
X55865000Y-18493896D01*
X55865000Y-16780000D01*
X56891928Y-16780000D01*
X56891928Y-18780000D01*
X56904188Y-18904482D01*
X56940498Y-19024180D01*
X56999463Y-19134494D01*
X57078815Y-19231185D01*
X57175506Y-19310537D01*
X57285820Y-19369502D01*
X57405518Y-19405812D01*
X57530000Y-19418072D01*
X60730000Y-19418072D01*
X60854482Y-19405812D01*
X60974180Y-19369502D01*
X61084494Y-19310537D01*
X61181185Y-19231185D01*
X61260537Y-19134494D01*
X61319502Y-19024180D01*
X61355812Y-18904482D01*
X61368072Y-18780000D01*
X61368072Y-16780000D01*
X61355812Y-16655518D01*
X61319502Y-16535820D01*
X61260537Y-16425506D01*
X61181185Y-16328815D01*
X61084494Y-16249463D01*
X60974180Y-16190498D01*
X60854482Y-16154188D01*
X60730000Y-16141928D01*
X57530000Y-16141928D01*
X57405518Y-16154188D01*
X57285820Y-16190498D01*
X57175506Y-16249463D01*
X57078815Y-16328815D01*
X56999463Y-16425506D01*
X56940498Y-16535820D01*
X56904188Y-16655518D01*
X56891928Y-16780000D01*
X55865000Y-16780000D01*
X55865000Y-15964748D01*
X56044759Y-15844637D01*
X56244637Y-15644759D01*
X56401680Y-15409727D01*
X56509853Y-15148574D01*
X56565000Y-14871335D01*
X56565000Y-14588665D01*
X56509853Y-14311426D01*
X56401680Y-14050273D01*
X56244637Y-13815241D01*
X56044759Y-13615363D01*
X55809727Y-13458320D01*
X55548574Y-13350147D01*
X55271335Y-13295000D01*
X54988665Y-13295000D01*
X54711426Y-13350147D01*
X54450273Y-13458320D01*
X54215241Y-13615363D01*
X54015363Y-13815241D01*
X53858320Y-14050273D01*
X53750147Y-14311426D01*
X53695000Y-14588665D01*
X53695000Y-14871335D01*
X53750147Y-15148574D01*
X53858320Y-15409727D01*
X54015363Y-15644759D01*
X54215241Y-15844637D01*
X54395000Y-15964748D01*
X54395001Y-17986510D01*
X54293517Y-18006696D01*
X54096060Y-18088485D01*
X53918353Y-18207225D01*
X53767225Y-18358353D01*
X53648485Y-18536060D01*
X53566696Y-18733517D01*
X53525000Y-18943137D01*
X52865000Y-18943137D01*
X52865000Y-8359422D01*
X52912775Y-8311647D01*
X53031515Y-8133940D01*
X53113304Y-7936483D01*
X53155000Y-7726863D01*
X53155000Y-7513137D01*
X53113304Y-7303517D01*
X53031515Y-7106060D01*
X52912775Y-6928353D01*
X52761647Y-6777225D01*
X52583940Y-6658485D01*
X52386483Y-6576696D01*
X52176863Y-6535000D01*
X51963137Y-6535000D01*
X51753517Y-6576696D01*
X51556060Y-6658485D01*
X51378353Y-6777225D01*
X51227225Y-6928353D01*
X51108485Y-7106060D01*
X51026696Y-7303517D01*
X50985000Y-7513137D01*
X50985000Y-7726863D01*
X51026696Y-7936483D01*
X51108485Y-8133940D01*
X51227225Y-8311647D01*
X51378353Y-8462775D01*
X51395001Y-8473899D01*
X51395000Y-19414736D01*
X51355537Y-19431082D01*
X51087748Y-19610013D01*
X50860013Y-19837748D01*
X50681082Y-20105537D01*
X50557832Y-20403088D01*
X50495000Y-20718967D01*
X27405000Y-20718967D01*
X27405000Y-9689422D01*
X27512775Y-9581647D01*
X27631515Y-9403940D01*
X27713304Y-9206483D01*
X27755000Y-8996863D01*
X27755000Y-8783137D01*
X27735598Y-8685598D01*
X27833137Y-8705000D01*
X28046863Y-8705000D01*
X28256483Y-8663304D01*
X28453940Y-8581515D01*
X28631647Y-8462775D01*
X28782775Y-8311647D01*
X28901515Y-8133940D01*
X28983304Y-7936483D01*
X29025000Y-7726863D01*
X29025000Y-7513137D01*
X28983304Y-7303517D01*
X28901515Y-7106060D01*
X28782775Y-6928353D01*
X28675000Y-6820578D01*
X28675000Y-6243137D01*
X61145000Y-6243137D01*
X61145000Y-6456863D01*
X61186696Y-6666483D01*
X61268485Y-6863940D01*
X61387225Y-7041647D01*
X61538353Y-7192775D01*
X61716060Y-7311515D01*
X61913517Y-7393304D01*
X62015001Y-7413490D01*
X62015000Y-13495252D01*
X61835241Y-13615363D01*
X61635363Y-13815241D01*
X61478320Y-14050273D01*
X61370147Y-14311426D01*
X61315000Y-14588665D01*
X61315000Y-14871335D01*
X61370147Y-15148574D01*
X61478320Y-15409727D01*
X61635363Y-15644759D01*
X61835241Y-15844637D01*
X62070273Y-16001680D01*
X62331426Y-16109853D01*
X62608665Y-16165000D01*
X62891335Y-16165000D01*
X63168574Y-16109853D01*
X63429727Y-16001680D01*
X63664759Y-15844637D01*
X63864637Y-15644759D01*
X64021680Y-15409727D01*
X64035001Y-15377568D01*
X64035001Y-25363885D01*
X64031444Y-25400000D01*
X64045635Y-25544085D01*
X64087664Y-25682633D01*
X64155914Y-25810320D01*
X64247763Y-25922238D01*
X64275808Y-25945254D01*
X64704741Y-26374187D01*
X64727762Y-26402238D01*
X64839680Y-26494087D01*
X64967366Y-26562337D01*
X64991928Y-26569788D01*
X64991928Y-26880000D01*
X65004188Y-27004482D01*
X65040498Y-27124180D01*
X65099463Y-27234494D01*
X65178815Y-27331185D01*
X65275506Y-27410537D01*
X65385820Y-27469502D01*
X65505518Y-27505812D01*
X65630000Y-27518072D01*
X65895000Y-27518072D01*
X65895001Y-30855552D01*
X65255554Y-31495000D01*
X63984748Y-31495000D01*
X63864637Y-31315241D01*
X63664759Y-31115363D01*
X63429727Y-30958320D01*
X63168574Y-30850147D01*
X62891335Y-30795000D01*
X62608665Y-30795000D01*
X62331426Y-30850147D01*
X62070273Y-30958320D01*
X61835241Y-31115363D01*
X61635363Y-31315241D01*
X61478320Y-31550273D01*
X61370147Y-31811426D01*
X61315000Y-32088665D01*
X61315000Y-32371335D01*
X61370147Y-32648574D01*
X61478320Y-32909727D01*
X61635363Y-33144759D01*
X61835241Y-33344637D01*
X62070273Y-33501680D01*
X62331426Y-33609853D01*
X62608665Y-33665000D01*
X62891335Y-33665000D01*
X63168574Y-33609853D01*
X63429727Y-33501680D01*
X63664759Y-33344637D01*
X63864637Y-33144759D01*
X63984748Y-32965000D01*
X65523895Y-32965000D01*
X65560000Y-32968556D01*
X65596105Y-32965000D01*
X65704085Y-32954365D01*
X65842633Y-32912337D01*
X65970320Y-32844087D01*
X66082238Y-32752238D01*
X66105258Y-32724188D01*
X67124193Y-31705254D01*
X67152238Y-31682238D01*
X67244087Y-31570320D01*
X67278662Y-31505635D01*
X67312337Y-31442634D01*
X67354365Y-31304085D01*
X67368556Y-31160000D01*
X67365000Y-31123895D01*
X67365000Y-27518072D01*
X67630000Y-27518072D01*
X67754482Y-27505812D01*
X67874180Y-27469502D01*
X67984494Y-27410537D01*
X68081185Y-27331185D01*
X68160537Y-27234494D01*
X68219502Y-27124180D01*
X68255812Y-27004482D01*
X68268072Y-26880000D01*
X68268072Y-24880000D01*
X68255812Y-24755518D01*
X68219502Y-24635820D01*
X68160537Y-24525506D01*
X68081185Y-24428815D01*
X67984494Y-24349463D01*
X67958063Y-24335335D01*
X68078918Y-24154463D01*
X68202168Y-23856912D01*
X68265000Y-23541033D01*
X68265000Y-23218967D01*
X68202168Y-22903088D01*
X68078918Y-22605537D01*
X67899987Y-22337748D01*
X67692239Y-22130000D01*
X67899987Y-21922252D01*
X68078918Y-21654463D01*
X68202168Y-21356912D01*
X68265000Y-21041033D01*
X68265000Y-20718967D01*
X68202168Y-20403088D01*
X68078918Y-20105537D01*
X67899987Y-19837748D01*
X67672252Y-19610013D01*
X67404463Y-19431082D01*
X67106912Y-19307832D01*
X66791033Y-19245000D01*
X66468967Y-19245000D01*
X66153088Y-19307832D01*
X65855537Y-19431082D01*
X65587748Y-19610013D01*
X65505000Y-19692761D01*
X65505000Y-4609422D01*
X65612775Y-4501647D01*
X65731515Y-4323940D01*
X65813304Y-4126483D01*
X65855000Y-3916863D01*
X65855000Y-3703137D01*
X65813304Y-3493517D01*
X65731515Y-3296060D01*
X65612775Y-3118353D01*
X65461647Y-2967225D01*
X65283940Y-2848485D01*
X65086483Y-2766696D01*
X64876863Y-2725000D01*
X64663137Y-2725000D01*
X64453517Y-2766696D01*
X64256060Y-2848485D01*
X64078353Y-2967225D01*
X63927225Y-3118353D01*
X63808485Y-3296060D01*
X63726696Y-3493517D01*
X63685000Y-3703137D01*
X63685000Y-3916863D01*
X63726696Y-4126483D01*
X63808485Y-4323940D01*
X63927225Y-4501647D01*
X64035000Y-4609422D01*
X64035000Y-14082432D01*
X64021680Y-14050273D01*
X63864637Y-13815241D01*
X63664759Y-13615363D01*
X63485000Y-13495252D01*
X63485000Y-6906104D01*
X63488556Y-6869999D01*
X63474365Y-6725914D01*
X63461616Y-6683886D01*
X63432337Y-6587367D01*
X63364087Y-6459680D01*
X63315000Y-6399867D01*
X63315000Y-6243137D01*
X63273304Y-6033517D01*
X63191515Y-5836060D01*
X63072775Y-5658353D01*
X62921647Y-5507225D01*
X62743940Y-5388485D01*
X62546483Y-5306696D01*
X62336863Y-5265000D01*
X62123137Y-5265000D01*
X61913517Y-5306696D01*
X61716060Y-5388485D01*
X61538353Y-5507225D01*
X61387225Y-5658353D01*
X61268485Y-5836060D01*
X61186696Y-6033517D01*
X61145000Y-6243137D01*
X28675000Y-6243137D01*
X28675000Y-1294883D01*
X28886632Y-1153475D01*
X29093475Y-946632D01*
X29210000Y-772240D01*
X29326525Y-946632D01*
X29533368Y-1153475D01*
X29776589Y-1315990D01*
X30046842Y-1427932D01*
X30333740Y-1485000D01*
X30626260Y-1485000D01*
X30913158Y-1427932D01*
X31183411Y-1315990D01*
X31426632Y-1153475D01*
X31633475Y-946632D01*
X31750000Y-772240D01*
X31866525Y-946632D01*
X32073368Y-1153475D01*
X32316589Y-1315990D01*
X32586842Y-1427932D01*
X32873740Y-1485000D01*
X33166260Y-1485000D01*
X33453158Y-1427932D01*
X33723411Y-1315990D01*
X33966632Y-1153475D01*
X34173475Y-946632D01*
X34290000Y-772240D01*
X34406525Y-946632D01*
X34613368Y-1153475D01*
X34856589Y-1315990D01*
X35126842Y-1427932D01*
X35413740Y-1485000D01*
X35706260Y-1485000D01*
X35993158Y-1427932D01*
X36263411Y-1315990D01*
X36506632Y-1153475D01*
X36713475Y-946632D01*
X36830000Y-772240D01*
X36946525Y-946632D01*
X37153368Y-1153475D01*
X37396589Y-1315990D01*
X37666842Y-1427932D01*
X37953740Y-1485000D01*
X38246260Y-1485000D01*
X38533158Y-1427932D01*
X38803411Y-1315990D01*
X39046632Y-1153475D01*
X39253475Y-946632D01*
X39370000Y-772240D01*
X39486525Y-946632D01*
X39693368Y-1153475D01*
X39936589Y-1315990D01*
X40206842Y-1427932D01*
X40493740Y-1485000D01*
X40786260Y-1485000D01*
X41073158Y-1427932D01*
X41343411Y-1315990D01*
X41586632Y-1153475D01*
X41793475Y-946632D01*
X41910000Y-772240D01*
X42026525Y-946632D01*
X42233368Y-1153475D01*
X42476589Y-1315990D01*
X42746842Y-1427932D01*
X43033740Y-1485000D01*
X43326260Y-1485000D01*
X43613158Y-1427932D01*
X43883411Y-1315990D01*
X44126632Y-1153475D01*
X44333475Y-946632D01*
X44450000Y-772240D01*
X44566525Y-946632D01*
X44773368Y-1153475D01*
X45016589Y-1315990D01*
X45286842Y-1427932D01*
X45573740Y-1485000D01*
X45866260Y-1485000D01*
X46153158Y-1427932D01*
X46423411Y-1315990D01*
X46666632Y-1153475D01*
X46873475Y-946632D01*
X46990000Y-772240D01*
X47106525Y-946632D01*
X47313368Y-1153475D01*
X47556589Y-1315990D01*
X47826842Y-1427932D01*
X48113740Y-1485000D01*
X48406260Y-1485000D01*
X48693158Y-1427932D01*
X48963411Y-1315990D01*
X49206632Y-1153475D01*
X49413475Y-946632D01*
X49575990Y-703411D01*
X49687932Y-433158D01*
X49745000Y-146260D01*
X49745000Y146260D01*
X49687932Y433158D01*
X49575990Y703411D01*
X49413475Y946632D01*
X49206632Y1153475D01*
X49032240Y1270000D01*
X49206632Y1386525D01*
X49285612Y1465505D01*
X51145000Y1465505D01*
X51145000Y1074495D01*
X51221282Y690997D01*
X51370915Y329750D01*
X51588149Y4636D01*
X51864636Y-271851D01*
X52189750Y-489085D01*
X52550997Y-638718D01*
X52934495Y-715000D01*
X53325505Y-715000D01*
X53709003Y-638718D01*
X54070250Y-489085D01*
X54395364Y-271851D01*
X54671851Y4636D01*
X54889085Y329750D01*
X55038718Y690997D01*
X55115000Y1074495D01*
X55115000Y1465505D01*
X55038718Y1849003D01*
X54889085Y2210250D01*
X54671851Y2535364D01*
X54395364Y2811851D01*
X54070250Y3029085D01*
X53947330Y3080000D01*
X58436928Y3080000D01*
X58449188Y2955518D01*
X58485498Y2835820D01*
X58544463Y2725506D01*
X58623815Y2628815D01*
X58720506Y2549463D01*
X58830820Y2490498D01*
X58950518Y2454188D01*
X59075000Y2441928D01*
X60039250Y2445000D01*
X60198000Y2603750D01*
X60198000Y4953000D01*
X60452000Y4953000D01*
X60452000Y2603750D01*
X60610750Y2445000D01*
X61575000Y2441928D01*
X61699482Y2454188D01*
X61819180Y2490498D01*
X61929494Y2549463D01*
X62026185Y2628815D01*
X62105537Y2725506D01*
X62164502Y2835820D01*
X62200812Y2955518D01*
X62213072Y3080000D01*
X62210000Y4794250D01*
X62051250Y4953000D01*
X60452000Y4953000D01*
X60198000Y4953000D01*
X58598750Y4953000D01*
X58440000Y4794250D01*
X58436928Y3080000D01*
X53947330Y3080000D01*
X53709003Y3178718D01*
X53325505Y3255000D01*
X52934495Y3255000D01*
X52550997Y3178718D01*
X52189750Y3029085D01*
X51864636Y2811851D01*
X51588149Y2535364D01*
X51370915Y2210250D01*
X51221282Y1849003D01*
X51145000Y1465505D01*
X49285612Y1465505D01*
X49413475Y1593368D01*
X49575990Y1836589D01*
X49687932Y2106842D01*
X49745000Y2393740D01*
X49745000Y2686260D01*
X49687932Y2973158D01*
X49575990Y3243411D01*
X49413475Y3486632D01*
X49206632Y3693475D01*
X48963411Y3855990D01*
X48693158Y3967932D01*
X48406260Y4025000D01*
X48113740Y4025000D01*
X47826842Y3967932D01*
X47556589Y3855990D01*
X47313368Y3693475D01*
X47106525Y3486632D01*
X46990000Y3312240D01*
X46873475Y3486632D01*
X46666632Y3693475D01*
X46423411Y3855990D01*
X46153158Y3967932D01*
X45866260Y4025000D01*
X45573740Y4025000D01*
X45286842Y3967932D01*
X45016589Y3855990D01*
X44773368Y3693475D01*
X44566525Y3486632D01*
X44450000Y3312240D01*
X44333475Y3486632D01*
X44126632Y3693475D01*
X43883411Y3855990D01*
X43613158Y3967932D01*
X43326260Y4025000D01*
X43033740Y4025000D01*
X42746842Y3967932D01*
X42476589Y3855990D01*
X42233368Y3693475D01*
X42026525Y3486632D01*
X41910000Y3312240D01*
X41793475Y3486632D01*
X41586632Y3693475D01*
X41343411Y3855990D01*
X41073158Y3967932D01*
X40786260Y4025000D01*
X40493740Y4025000D01*
X40206842Y3967932D01*
X39936589Y3855990D01*
X39693368Y3693475D01*
X39486525Y3486632D01*
X39370000Y3312240D01*
X39253475Y3486632D01*
X39046632Y3693475D01*
X38803411Y3855990D01*
X38533158Y3967932D01*
X38246260Y4025000D01*
X37953740Y4025000D01*
X37666842Y3967932D01*
X37396589Y3855990D01*
X37153368Y3693475D01*
X36946525Y3486632D01*
X36830000Y3312240D01*
X36713475Y3486632D01*
X36506632Y3693475D01*
X36263411Y3855990D01*
X35993158Y3967932D01*
X35706260Y4025000D01*
X35413740Y4025000D01*
X35126842Y3967932D01*
X34856589Y3855990D01*
X34613368Y3693475D01*
X34406525Y3486632D01*
X34290000Y3312240D01*
X34173475Y3486632D01*
X33966632Y3693475D01*
X33723411Y3855990D01*
X33453158Y3967932D01*
X33166260Y4025000D01*
X32873740Y4025000D01*
X32586842Y3967932D01*
X32316589Y3855990D01*
X32073368Y3693475D01*
X31866525Y3486632D01*
X31750000Y3312240D01*
X31633475Y3486632D01*
X31426632Y3693475D01*
X31183411Y3855990D01*
X30913158Y3967932D01*
X30626260Y4025000D01*
X30333740Y4025000D01*
X30046842Y3967932D01*
X29776589Y3855990D01*
X29533368Y3693475D01*
X29326525Y3486632D01*
X29210000Y3312240D01*
X29093475Y3486632D01*
X28886632Y3693475D01*
X28643411Y3855990D01*
X28373158Y3967932D01*
X28086260Y4025000D01*
X27793740Y4025000D01*
X27506842Y3967932D01*
X27236589Y3855990D01*
X26993368Y3693475D01*
X26786525Y3486632D01*
X26670000Y3312240D01*
X26553475Y3486632D01*
X26346632Y3693475D01*
X26103411Y3855990D01*
X25833158Y3967932D01*
X25546260Y4025000D01*
X25253740Y4025000D01*
X24966842Y3967932D01*
X24696589Y3855990D01*
X24453368Y3693475D01*
X24246525Y3486632D01*
X24130000Y3312240D01*
X24013475Y3486632D01*
X23806632Y3693475D01*
X23563411Y3855990D01*
X23293158Y3967932D01*
X23006260Y4025000D01*
X22713740Y4025000D01*
X22426842Y3967932D01*
X22156589Y3855990D01*
X21913368Y3693475D01*
X21706525Y3486632D01*
X21590000Y3312240D01*
X21473475Y3486632D01*
X21266632Y3693475D01*
X21023411Y3855990D01*
X20753158Y3967932D01*
X20466260Y4025000D01*
X20173740Y4025000D01*
X19886842Y3967932D01*
X19616589Y3855990D01*
X19373368Y3693475D01*
X19166525Y3486632D01*
X19050000Y3312240D01*
X18933475Y3486632D01*
X18726632Y3693475D01*
X18483411Y3855990D01*
X18213158Y3967932D01*
X17926260Y4025000D01*
X17633740Y4025000D01*
X17346842Y3967932D01*
X17076589Y3855990D01*
X16833368Y3693475D01*
X16626525Y3486632D01*
X16510000Y3312240D01*
X16393475Y3486632D01*
X16186632Y3693475D01*
X15943411Y3855990D01*
X15673158Y3967932D01*
X15386260Y4025000D01*
X15093740Y4025000D01*
X14806842Y3967932D01*
X14536589Y3855990D01*
X14293368Y3693475D01*
X14086525Y3486632D01*
X13970000Y3312240D01*
X13853475Y3486632D01*
X13646632Y3693475D01*
X13403411Y3855990D01*
X13133158Y3967932D01*
X12846260Y4025000D01*
X12553740Y4025000D01*
X12266842Y3967932D01*
X11996589Y3855990D01*
X11753368Y3693475D01*
X11546525Y3486632D01*
X11430000Y3312240D01*
X11313475Y3486632D01*
X11106632Y3693475D01*
X10863411Y3855990D01*
X10593158Y3967932D01*
X10306260Y4025000D01*
X10013740Y4025000D01*
X9726842Y3967932D01*
X9456589Y3855990D01*
X9213368Y3693475D01*
X9006525Y3486632D01*
X8890000Y3312240D01*
X8773475Y3486632D01*
X8566632Y3693475D01*
X8323411Y3855990D01*
X8053158Y3967932D01*
X7766260Y4025000D01*
X7473740Y4025000D01*
X7186842Y3967932D01*
X6916589Y3855990D01*
X6673368Y3693475D01*
X6466525Y3486632D01*
X6350000Y3312240D01*
X6233475Y3486632D01*
X6026632Y3693475D01*
X5783411Y3855990D01*
X5513158Y3967932D01*
X5226260Y4025000D01*
X4933740Y4025000D01*
X4646842Y3967932D01*
X4376589Y3855990D01*
X4133368Y3693475D01*
X3926525Y3486632D01*
X3804805Y3304466D01*
X3735178Y3421355D01*
X3540269Y3637588D01*
X3306920Y3811641D01*
X3044099Y3936825D01*
X2896890Y3981476D01*
X2667000Y3860155D01*
X2667000Y2667000D01*
X2687000Y2667000D01*
X2687000Y2413000D01*
X2667000Y2413000D01*
X2667000Y2393000D01*
X2413000Y2393000D01*
X2413000Y2413000D01*
X127000Y2413000D01*
X127000Y2393000D01*
X-127000Y2393000D01*
X-127000Y2413000D01*
X-1320814Y2413000D01*
X-1441481Y2183109D01*
X-1344157Y1908748D01*
X-1195178Y1658645D01*
X-1018374Y1462498D01*
X-1094180Y1439502D01*
X-1204494Y1380537D01*
X-1301185Y1301185D01*
X-1380537Y1204494D01*
X-1439502Y1094180D01*
X-1475812Y974482D01*
X-1488072Y850000D01*
X-1488072Y-850000D01*
X-1475812Y-974482D01*
X-1454421Y-1045000D01*
X-5336496Y-1045000D01*
X-5819016Y-997688D01*
X-6250927Y-867287D01*
X-6649280Y-655480D01*
X-6998914Y-370325D01*
X-7286497Y-22697D01*
X-7501085Y374175D01*
X-7634500Y805166D01*
X-7685000Y1285654D01*
X-7685000Y1465505D01*
X-6855000Y1465505D01*
X-6855000Y1074495D01*
X-6778718Y690997D01*
X-6629085Y329750D01*
X-6411851Y4636D01*
X-6135364Y-271851D01*
X-5810250Y-489085D01*
X-5449003Y-638718D01*
X-5065505Y-715000D01*
X-4674495Y-715000D01*
X-4290997Y-638718D01*
X-3929750Y-489085D01*
X-3604636Y-271851D01*
X-3328149Y4636D01*
X-3110915Y329750D01*
X-2961282Y690997D01*
X-2885000Y1074495D01*
X-2885000Y1465505D01*
X-2961282Y1849003D01*
X-3110915Y2210250D01*
X-3328149Y2535364D01*
X-3604636Y2811851D01*
X-3731907Y2896891D01*
X-1441481Y2896891D01*
X-1320814Y2667000D01*
X-127000Y2667000D01*
X-127000Y3860155D01*
X127000Y3860155D01*
X127000Y2667000D01*
X2413000Y2667000D01*
X2413000Y3860155D01*
X2183110Y3981476D01*
X2035901Y3936825D01*
X1773080Y3811641D01*
X1539731Y3637588D01*
X1344822Y3421355D01*
X1270000Y3295745D01*
X1195178Y3421355D01*
X1000269Y3637588D01*
X766920Y3811641D01*
X504099Y3936825D01*
X356890Y3981476D01*
X127000Y3860155D01*
X-127000Y3860155D01*
X-356890Y3981476D01*
X-504099Y3936825D01*
X-766920Y3811641D01*
X-1000269Y3637588D01*
X-1195178Y3421355D01*
X-1344157Y3171252D01*
X-1441481Y2896891D01*
X-3731907Y2896891D01*
X-3929750Y3029085D01*
X-4290997Y3178718D01*
X-4674495Y3255000D01*
X-5065505Y3255000D01*
X-5449003Y3178718D01*
X-5810250Y3029085D01*
X-6135364Y2811851D01*
X-6411851Y2535364D01*
X-6629085Y2210250D01*
X-6778718Y1849003D01*
X-6855000Y1465505D01*
X-7685000Y1465505D01*
X-7685000Y1736495D01*
X-7637688Y2219016D01*
X-7507286Y2650930D01*
X-7295476Y3049285D01*
X-7010325Y3398914D01*
X-6662697Y3686497D01*
X-6265823Y3901086D01*
X-5834839Y4034498D01*
X-5354346Y4085000D01*
X9663647Y4085000D01*
X9693645Y4087955D01*
X9706047Y4087868D01*
X9715565Y4088802D01*
X10103758Y4129603D01*
X10164539Y4142080D01*
X10225560Y4153720D01*
X10234716Y4156484D01*
X10607591Y4271908D01*
X10664870Y4295986D01*
X10722388Y4319225D01*
X10730833Y4323714D01*
X11074188Y4509366D01*
X11125635Y4544068D01*
X11177610Y4578079D01*
X11185022Y4584124D01*
X11485777Y4832931D01*
X11529524Y4876984D01*
X11573881Y4920422D01*
X11579978Y4927792D01*
X11826679Y5230276D01*
X11861047Y5282005D01*
X11896111Y5333215D01*
X11900661Y5341628D01*
X12083910Y5686270D01*
X12107555Y5743636D01*
X12132028Y5800736D01*
X12134856Y5809873D01*
X12247674Y6183544D01*
X12259737Y6244469D01*
X12272641Y6305174D01*
X12273641Y6314686D01*
X12311731Y6703155D01*
X12311731Y6703163D01*
X12315000Y6736353D01*
X12315000Y7080000D01*
X58436928Y7080000D01*
X58440000Y5365750D01*
X58598750Y5207000D01*
X60198000Y5207000D01*
X60198000Y7556250D01*
X60452000Y7556250D01*
X60452000Y5207000D01*
X62051250Y5207000D01*
X62210000Y5365750D01*
X62213072Y7080000D01*
X62246928Y7080000D01*
X62246928Y3080000D01*
X62259188Y2955518D01*
X62295498Y2835820D01*
X62354463Y2725506D01*
X62433815Y2628815D01*
X62530506Y2549463D01*
X62640820Y2490498D01*
X62760518Y2454188D01*
X62885000Y2441928D01*
X63200000Y2441928D01*
X63200000Y1823623D01*
X63173485Y1783940D01*
X63091696Y1586483D01*
X63050000Y1376863D01*
X63050000Y1163137D01*
X63091696Y953517D01*
X63173485Y756060D01*
X63292225Y578353D01*
X63443353Y427225D01*
X63621060Y308485D01*
X63818517Y226696D01*
X64028137Y185000D01*
X64241863Y185000D01*
X64451483Y226696D01*
X64648940Y308485D01*
X64826647Y427225D01*
X64977775Y578353D01*
X65096515Y756060D01*
X65178304Y953517D01*
X65220000Y1163137D01*
X65220000Y1376863D01*
X65178304Y1586483D01*
X65096515Y1783940D01*
X65070000Y1823623D01*
X65070000Y2441928D01*
X65385000Y2441928D01*
X65509482Y2454188D01*
X65629180Y2490498D01*
X65739494Y2549463D01*
X65836185Y2628815D01*
X65915537Y2725506D01*
X65974502Y2835820D01*
X66010812Y2955518D01*
X66023072Y3080000D01*
X66023072Y7080000D01*
X66010812Y7204482D01*
X65974502Y7324180D01*
X65915537Y7434494D01*
X65836185Y7531185D01*
X65739494Y7610537D01*
X65629180Y7669502D01*
X65509482Y7705812D01*
X65385000Y7718072D01*
X62885000Y7718072D01*
X62760518Y7705812D01*
X62640820Y7669502D01*
X62530506Y7610537D01*
X62433815Y7531185D01*
X62354463Y7434494D01*
X62295498Y7324180D01*
X62259188Y7204482D01*
X62246928Y7080000D01*
X62213072Y7080000D01*
X62200812Y7204482D01*
X62164502Y7324180D01*
X62105537Y7434494D01*
X62026185Y7531185D01*
X61929494Y7610537D01*
X61819180Y7669502D01*
X61699482Y7705812D01*
X61575000Y7718072D01*
X60610750Y7715000D01*
X60452000Y7556250D01*
X60198000Y7556250D01*
X60039250Y7715000D01*
X59075000Y7718072D01*
X58950518Y7705812D01*
X58830820Y7669502D01*
X58720506Y7610537D01*
X58623815Y7531185D01*
X58544463Y7434494D01*
X58485498Y7324180D01*
X58449188Y7204482D01*
X58436928Y7080000D01*
X12315000Y7080000D01*
X12315000Y13260765D01*
X12377988Y13108698D01*
X12611637Y12759017D01*
X12909017Y12461637D01*
X13258698Y12227988D01*
X13647244Y12067047D01*
X14059721Y11985000D01*
X14480279Y11985000D01*
X14892756Y12067047D01*
X15281302Y12227988D01*
X15630983Y12461637D01*
X15928363Y12759017D01*
X16162012Y13108698D01*
X16322953Y13497244D01*
X16405000Y13909721D01*
X16405000Y14330279D01*
X16322953Y14742756D01*
X16162012Y15131302D01*
X15928363Y15480983D01*
X15630983Y15778363D01*
X15281302Y16012012D01*
X15105093Y16085000D01*
X44436862Y16085000D01*
X44259398Y16011492D01*
G04 #@! TA.AperFunction,Conductor*
D26*
G36*
X44259398Y16011492D02*
G01*
X43909717Y15777843D01*
X43612337Y15480463D01*
X43378688Y15130782D01*
X43217747Y14742236D01*
X43135700Y14329759D01*
X43135700Y13909201D01*
X43217747Y13496724D01*
X43378688Y13108178D01*
X43612337Y12758497D01*
X43909717Y12461117D01*
X44259398Y12227468D01*
X44647944Y12066527D01*
X45060421Y11984480D01*
X45480979Y11984480D01*
X45893456Y12066527D01*
X46282002Y12227468D01*
X46390407Y12299902D01*
X55400000Y12299902D01*
X55400000Y11830098D01*
X55491654Y11369321D01*
X55671440Y10935279D01*
X55932450Y10544651D01*
X56264651Y10212450D01*
X56655279Y9951440D01*
X57089321Y9771654D01*
X57550098Y9680000D01*
X58019902Y9680000D01*
X58480679Y9771654D01*
X58914721Y9951440D01*
X59305349Y10212450D01*
X59637550Y10544651D01*
X59898560Y10935279D01*
X60078346Y11369321D01*
X60170000Y11830098D01*
X60170000Y12299902D01*
X64290000Y12299902D01*
X64290000Y11830098D01*
X64381654Y11369321D01*
X64561440Y10935279D01*
X64822450Y10544651D01*
X65154651Y10212450D01*
X65545279Y9951440D01*
X65979321Y9771654D01*
X66440098Y9680000D01*
X66909902Y9680000D01*
X67370679Y9771654D01*
X67804721Y9951440D01*
X68195349Y10212450D01*
X68527550Y10544651D01*
X68788560Y10935279D01*
X68968346Y11369321D01*
X69060000Y11830098D01*
X69060000Y12299902D01*
X68968346Y12760679D01*
X68788560Y13194721D01*
X68527550Y13585349D01*
X68195349Y13917550D01*
X67804721Y14178560D01*
X67370679Y14358346D01*
X66909902Y14450000D01*
X66440098Y14450000D01*
X65979321Y14358346D01*
X65545279Y14178560D01*
X65154651Y13917550D01*
X64822450Y13585349D01*
X64561440Y13194721D01*
X64381654Y12760679D01*
X64290000Y12299902D01*
X60170000Y12299902D01*
X60078346Y12760679D01*
X59898560Y13194721D01*
X59637550Y13585349D01*
X59305349Y13917550D01*
X58914721Y14178560D01*
X58480679Y14358346D01*
X58019902Y14450000D01*
X57550098Y14450000D01*
X57089321Y14358346D01*
X56655279Y14178560D01*
X56264651Y13917550D01*
X55932450Y13585349D01*
X55671440Y13194721D01*
X55491654Y12760679D01*
X55400000Y12299902D01*
X46390407Y12299902D01*
X46631683Y12461117D01*
X46929063Y12758497D01*
X47162712Y13108178D01*
X47323653Y13496724D01*
X47405700Y13909201D01*
X47405700Y14329759D01*
X47323653Y14742236D01*
X47162712Y15130782D01*
X46929063Y15480463D01*
X46631683Y15777843D01*
X46282002Y16011492D01*
X46104538Y16085000D01*
X74596495Y16085000D01*
X74884782Y16056733D01*
X75129855Y15982741D01*
X75355890Y15862557D01*
X75554281Y15700752D01*
X75717460Y15503503D01*
X75839220Y15278313D01*
X75914924Y15033753D01*
X75945000Y14747602D01*
X75945001Y-61486484D01*
X75916733Y-61774782D01*
X75842741Y-62019855D01*
X75722554Y-62245893D01*
X75560754Y-62444279D01*
X75363503Y-62607460D01*
X75138310Y-62729221D01*
X74893753Y-62804924D01*
X74607602Y-62835000D01*
X46127763Y-62835000D01*
X46282002Y-62771112D01*
X46631683Y-62537463D01*
X46929063Y-62240083D01*
X47162712Y-61890402D01*
X47323653Y-61501856D01*
X47405700Y-61089379D01*
X47405700Y-60668821D01*
X47397095Y-60625560D01*
X50374045Y-60625560D01*
X50435932Y-60861368D01*
X50677790Y-60974266D01*
X50937027Y-61037811D01*
X51203680Y-61049561D01*
X51467501Y-61009063D01*
X51718353Y-60917875D01*
X51824068Y-60861368D01*
X51885955Y-60625560D01*
X51130000Y-59869605D01*
X50374045Y-60625560D01*
X47397095Y-60625560D01*
X47323653Y-60256344D01*
X47162712Y-59867798D01*
X47093143Y-59763680D01*
X49770439Y-59763680D01*
X49810937Y-60027501D01*
X49902125Y-60278353D01*
X49958632Y-60384068D01*
X50194440Y-60445955D01*
X50950395Y-59690000D01*
X51309605Y-59690000D01*
X52065560Y-60445955D01*
X52301368Y-60384068D01*
X52414266Y-60142210D01*
X52477811Y-59882973D01*
X52489561Y-59616320D01*
X52449063Y-59352499D01*
X52357875Y-59101647D01*
X52301368Y-58995932D01*
X52065560Y-58934045D01*
X51309605Y-59690000D01*
X50950395Y-59690000D01*
X50194440Y-58934045D01*
X49958632Y-58995932D01*
X49845734Y-59237790D01*
X49782189Y-59497027D01*
X49770439Y-59763680D01*
X47093143Y-59763680D01*
X46929063Y-59518117D01*
X46631683Y-59220737D01*
X46282002Y-58987088D01*
X45893456Y-58826147D01*
X45480979Y-58744100D01*
X45060421Y-58744100D01*
X44647944Y-58826147D01*
X44259398Y-58987088D01*
X43909717Y-59220737D01*
X43612337Y-59518117D01*
X43378688Y-59867798D01*
X43217747Y-60256344D01*
X43135700Y-60668821D01*
X43135700Y-61089379D01*
X43217747Y-61501856D01*
X43378688Y-61890402D01*
X43612337Y-62240083D01*
X43909717Y-62537463D01*
X44259398Y-62771112D01*
X44413637Y-62835000D01*
X15127063Y-62835000D01*
X15281302Y-62771112D01*
X15630983Y-62537463D01*
X15928363Y-62240083D01*
X16162012Y-61890402D01*
X16322953Y-61501856D01*
X16405000Y-61089379D01*
X16405000Y-60668821D01*
X16322953Y-60256344D01*
X16162012Y-59867798D01*
X15928363Y-59518117D01*
X15630983Y-59220737D01*
X15281302Y-58987088D01*
X14892756Y-58826147D01*
X14480279Y-58744100D01*
X14059721Y-58744100D01*
X13647244Y-58826147D01*
X13258698Y-58987088D01*
X12909017Y-59220737D01*
X12611637Y-59518117D01*
X12377988Y-59867798D01*
X12315000Y-60019865D01*
X12315000Y-54480000D01*
X12331928Y-54480000D01*
X12331928Y-56280000D01*
X12344188Y-56404482D01*
X12380498Y-56524180D01*
X12439463Y-56634494D01*
X12518815Y-56731185D01*
X12615506Y-56810537D01*
X12725820Y-56869502D01*
X12845518Y-56905812D01*
X12970000Y-56918072D01*
X15570000Y-56918072D01*
X15694482Y-56905812D01*
X15814180Y-56869502D01*
X15924494Y-56810537D01*
X16021185Y-56731185D01*
X16100537Y-56634494D01*
X16159502Y-56524180D01*
X16195812Y-56404482D01*
X16208072Y-56280000D01*
X16208072Y-54480000D01*
X16195812Y-54355518D01*
X16159502Y-54235820D01*
X16100537Y-54125506D01*
X16021185Y-54028815D01*
X15924494Y-53949463D01*
X15814180Y-53890498D01*
X15794679Y-53884582D01*
X15845210Y-53835606D01*
X16016862Y-53587204D01*
X16136755Y-53310087D01*
X16161036Y-53204740D01*
X16040378Y-52967000D01*
X14397000Y-52967000D01*
X14397000Y-52987000D01*
X14143000Y-52987000D01*
X14143000Y-52967000D01*
X12499622Y-52967000D01*
X12378964Y-53204740D01*
X12403245Y-53310087D01*
X12523138Y-53587204D01*
X12694790Y-53835606D01*
X12745321Y-53884582D01*
X12725820Y-53890498D01*
X12615506Y-53949463D01*
X12518815Y-54028815D01*
X12439463Y-54125506D01*
X12380498Y-54235820D01*
X12344188Y-54355518D01*
X12331928Y-54480000D01*
X12315000Y-54480000D01*
X12315000Y-53196353D01*
X12312045Y-53166355D01*
X12312132Y-53153953D01*
X12311198Y-53144434D01*
X12270397Y-52756242D01*
X12257920Y-52695461D01*
X12246280Y-52634440D01*
X12243516Y-52625284D01*
X12128092Y-52252409D01*
X12104028Y-52195163D01*
X12080776Y-52137612D01*
X12076286Y-52129167D01*
X11890635Y-51785812D01*
X11855919Y-51734344D01*
X11821920Y-51682389D01*
X11815876Y-51674978D01*
X11567069Y-51374223D01*
X11522996Y-51330457D01*
X11479577Y-51286119D01*
X11472208Y-51280022D01*
X11169723Y-51033321D01*
X11118005Y-50998960D01*
X11066784Y-50963888D01*
X11058371Y-50959339D01*
X10713730Y-50776089D01*
X10656300Y-50752418D01*
X10599263Y-50727972D01*
X10590131Y-50725145D01*
X10590125Y-50725143D01*
X10216455Y-50612326D01*
X10155545Y-50600265D01*
X10094826Y-50587359D01*
X10085314Y-50586359D01*
X9696845Y-50548269D01*
X9696837Y-50548269D01*
X9663647Y-50545000D01*
X-5336496Y-50545000D01*
X-5819016Y-50497688D01*
X-6250927Y-50367287D01*
X-6649280Y-50155480D01*
X-6998914Y-49870325D01*
X-7286497Y-49522697D01*
X-7501085Y-49125825D01*
X-7634500Y-48694834D01*
X-7685000Y-48214346D01*
X-7685000Y-47763505D01*
X-7662546Y-47534495D01*
X-6855000Y-47534495D01*
X-6855000Y-47925505D01*
X-6778718Y-48309003D01*
X-6629085Y-48670250D01*
X-6411851Y-48995364D01*
X-6135364Y-49271851D01*
X-5810250Y-49489085D01*
X-5449003Y-49638718D01*
X-5065505Y-49715000D01*
X-4674495Y-49715000D01*
X-4290997Y-49638718D01*
X-3929750Y-49489085D01*
X-3604636Y-49271851D01*
X-3328149Y-48995364D01*
X-3110915Y-48670250D01*
X-2961282Y-48309003D01*
X-2885000Y-47925505D01*
X-2885000Y-47534495D01*
X-2961282Y-47150997D01*
X-3110915Y-46789750D01*
X-3328149Y-46464636D01*
X-3604636Y-46188149D01*
X-3929750Y-45970915D01*
X-4290997Y-45821282D01*
X-4674495Y-45745000D01*
X-5065505Y-45745000D01*
X-5449003Y-45821282D01*
X-5810250Y-45970915D01*
X-6135364Y-46188149D01*
X-6411851Y-46464636D01*
X-6629085Y-46789750D01*
X-6778718Y-47150997D01*
X-6855000Y-47534495D01*
X-7662546Y-47534495D01*
X-7637688Y-47280984D01*
X-7507286Y-46849070D01*
X-7295476Y-46450715D01*
X-7010325Y-46101086D01*
X-6662697Y-45813503D01*
X-6265823Y-45598914D01*
X-5834839Y-45465502D01*
X-5354346Y-45415000D01*
X9163647Y-45415000D01*
X9193645Y-45412045D01*
X9206047Y-45412132D01*
X9215565Y-45411198D01*
X9603758Y-45370397D01*
X9664539Y-45357920D01*
X9725560Y-45346280D01*
X9734716Y-45343516D01*
X10107591Y-45228092D01*
X10164870Y-45204014D01*
X10222388Y-45180775D01*
X10230833Y-45176286D01*
X10574188Y-44990634D01*
X10625635Y-44955932D01*
X10677610Y-44921921D01*
X10685022Y-44915876D01*
X10985777Y-44667069D01*
X11029524Y-44623016D01*
X11073881Y-44579578D01*
X11079978Y-44572208D01*
X11326679Y-44269724D01*
X11361047Y-44217995D01*
X11396111Y-44166785D01*
X11400661Y-44158372D01*
X11583910Y-43813730D01*
X11607555Y-43756364D01*
X11632028Y-43699264D01*
X11634856Y-43690127D01*
X11747674Y-43316456D01*
X11759737Y-43255531D01*
X11772641Y-43194826D01*
X11773641Y-43185314D01*
X11811731Y-42796845D01*
X11811731Y-42796837D01*
X11815000Y-42763647D01*
X11815000Y-17280000D01*
X12327573Y-17280000D01*
X12357210Y-17580913D01*
X12444983Y-17870261D01*
X12587519Y-18136927D01*
X12779339Y-18370661D01*
X12997865Y-18550000D01*
X12779339Y-18729339D01*
X12587519Y-18963073D01*
X12444983Y-19229739D01*
X12357210Y-19519087D01*
X12327573Y-19820000D01*
X12357210Y-20120913D01*
X12444983Y-20410261D01*
X12587519Y-20676927D01*
X12779339Y-20910661D01*
X12997865Y-21090000D01*
X12779339Y-21269339D01*
X12587519Y-21503073D01*
X12444983Y-21769739D01*
X12357210Y-22059087D01*
X12327573Y-22360000D01*
X12357210Y-22660913D01*
X12444983Y-22950261D01*
X12587519Y-23216927D01*
X12779339Y-23450661D01*
X12997865Y-23630000D01*
X12779339Y-23809339D01*
X12587519Y-24043073D01*
X12444983Y-24309739D01*
X12357210Y-24599087D01*
X12327573Y-24900000D01*
X12357210Y-25200913D01*
X12444983Y-25490261D01*
X12587519Y-25756927D01*
X12779339Y-25990661D01*
X12997865Y-26170000D01*
X12779339Y-26349339D01*
X12587519Y-26583073D01*
X12444983Y-26849739D01*
X12357210Y-27139087D01*
X12327573Y-27440000D01*
X12357210Y-27740913D01*
X12444983Y-28030261D01*
X12587519Y-28296927D01*
X12779339Y-28530661D01*
X12997865Y-28710000D01*
X12779339Y-28889339D01*
X12587519Y-29123073D01*
X12444983Y-29389739D01*
X12357210Y-29679087D01*
X12327573Y-29980000D01*
X12357210Y-30280913D01*
X12444983Y-30570261D01*
X12587519Y-30836927D01*
X12779339Y-31070661D01*
X12997865Y-31250000D01*
X12779339Y-31429339D01*
X12587519Y-31663073D01*
X12444983Y-31929739D01*
X12357210Y-32219087D01*
X12327573Y-32520000D01*
X12357210Y-32820913D01*
X12444983Y-33110261D01*
X12587519Y-33376927D01*
X12779339Y-33610661D01*
X12997865Y-33790000D01*
X12779339Y-33969339D01*
X12587519Y-34203073D01*
X12444983Y-34469739D01*
X12357210Y-34759087D01*
X12327573Y-35060000D01*
X12357210Y-35360913D01*
X12444983Y-35650261D01*
X12587519Y-35916927D01*
X12779339Y-36150661D01*
X12997865Y-36330000D01*
X12779339Y-36509339D01*
X12587519Y-36743073D01*
X12444983Y-37009739D01*
X12357210Y-37299087D01*
X12327573Y-37600000D01*
X12357210Y-37900913D01*
X12444983Y-38190261D01*
X12587519Y-38456927D01*
X12779339Y-38690661D01*
X12997865Y-38870000D01*
X12779339Y-39049339D01*
X12587519Y-39283073D01*
X12444983Y-39549739D01*
X12357210Y-39839087D01*
X12327573Y-40140000D01*
X12357210Y-40440913D01*
X12444983Y-40730261D01*
X12587519Y-40996927D01*
X12779339Y-41230661D01*
X12997865Y-41410000D01*
X12779339Y-41589339D01*
X12587519Y-41823073D01*
X12444983Y-42089739D01*
X12357210Y-42379087D01*
X12327573Y-42680000D01*
X12357210Y-42980913D01*
X12444983Y-43270261D01*
X12587519Y-43536927D01*
X12779339Y-43770661D01*
X12997865Y-43950000D01*
X12779339Y-44129339D01*
X12587519Y-44363073D01*
X12444983Y-44629739D01*
X12357210Y-44919087D01*
X12327573Y-45220000D01*
X12357210Y-45520913D01*
X12444983Y-45810261D01*
X12587519Y-46076927D01*
X12779339Y-46310661D01*
X12997865Y-46490000D01*
X12779339Y-46669339D01*
X12587519Y-46903073D01*
X12444983Y-47169739D01*
X12357210Y-47459087D01*
X12327573Y-47760000D01*
X12357210Y-48060913D01*
X12444983Y-48350261D01*
X12587519Y-48616927D01*
X12779339Y-48850661D01*
X12997865Y-49030000D01*
X12779339Y-49209339D01*
X12587519Y-49443073D01*
X12444983Y-49709739D01*
X12357210Y-49999087D01*
X12327573Y-50300000D01*
X12357210Y-50600913D01*
X12444983Y-50890261D01*
X12587519Y-51156927D01*
X12779339Y-51390661D01*
X13003691Y-51574781D01*
X12911604Y-51634252D01*
X12694790Y-51844394D01*
X12523138Y-52092796D01*
X12403245Y-52369913D01*
X12378964Y-52475260D01*
X12499622Y-52713000D01*
X14143000Y-52713000D01*
X14143000Y-52693000D01*
X14397000Y-52693000D01*
X14397000Y-52713000D01*
X16040378Y-52713000D01*
X16161036Y-52475260D01*
X16136755Y-52369913D01*
X16016862Y-52092796D01*
X15845210Y-51844394D01*
X15628396Y-51634252D01*
X15536309Y-51574781D01*
X15760661Y-51390661D01*
X15952481Y-51156927D01*
X16017652Y-51035000D01*
X24595554Y-51035000D01*
X31204746Y-57644193D01*
X31227762Y-57672238D01*
X31339680Y-57764087D01*
X31467367Y-57832337D01*
X31605915Y-57874365D01*
X31750000Y-57888556D01*
X31786105Y-57885000D01*
X49991467Y-57885000D01*
X50077503Y-58013762D01*
X50266238Y-58202497D01*
X50488167Y-58350785D01*
X50656324Y-58420438D01*
X50541647Y-58462125D01*
X50435932Y-58518632D01*
X50374045Y-58754440D01*
X51130000Y-59510395D01*
X51885955Y-58754440D01*
X51824068Y-58518632D01*
X51608993Y-58418236D01*
X51771833Y-58350785D01*
X51993762Y-58202497D01*
X52182497Y-58013762D01*
X52330785Y-57791833D01*
X52432928Y-57545239D01*
X52485000Y-57283456D01*
X52485000Y-57016544D01*
X52432928Y-56754761D01*
X52330785Y-56508167D01*
X52182497Y-56286238D01*
X51993762Y-56097503D01*
X51771833Y-55949215D01*
X51604734Y-55880000D01*
X51771833Y-55810785D01*
X51993762Y-55662497D01*
X52182497Y-55473762D01*
X52330785Y-55251833D01*
X52432928Y-55005239D01*
X52485000Y-54743456D01*
X52485000Y-54476544D01*
X52432928Y-54214761D01*
X52330785Y-53968167D01*
X52182497Y-53746238D01*
X51993762Y-53557503D01*
X51771833Y-53409215D01*
X51525239Y-53307072D01*
X51263456Y-53255000D01*
X50996544Y-53255000D01*
X50734761Y-53307072D01*
X50488167Y-53409215D01*
X50266238Y-53557503D01*
X50077503Y-53746238D01*
X49929215Y-53968167D01*
X49827072Y-54214761D01*
X49775000Y-54476544D01*
X49775000Y-54743456D01*
X49827072Y-55005239D01*
X49929215Y-55251833D01*
X50077503Y-55473762D01*
X50266238Y-55662497D01*
X50488167Y-55810785D01*
X50655266Y-55880000D01*
X50488167Y-55949215D01*
X50266238Y-56097503D01*
X50077503Y-56286238D01*
X49991467Y-56415000D01*
X32054447Y-56415000D01*
X25445259Y-49805813D01*
X25422238Y-49777762D01*
X25310320Y-49685913D01*
X25182633Y-49617663D01*
X25044085Y-49575635D01*
X24936105Y-49565000D01*
X24900000Y-49561444D01*
X24863895Y-49565000D01*
X16017652Y-49565000D01*
X15952481Y-49443073D01*
X15760661Y-49209339D01*
X15542135Y-49030000D01*
X15760661Y-48850661D01*
X15952481Y-48616927D01*
X16095017Y-48350261D01*
X16182790Y-48060913D01*
X16212427Y-47760000D01*
X16182790Y-47459087D01*
X16095017Y-47169739D01*
X15952481Y-46903073D01*
X15760661Y-46669339D01*
X15542135Y-46490000D01*
X15760661Y-46310661D01*
X15952481Y-46076927D01*
X16095017Y-45810261D01*
X16182790Y-45520913D01*
X16212427Y-45220000D01*
X16182790Y-44919087D01*
X16095017Y-44629739D01*
X15952481Y-44363073D01*
X15760661Y-44129339D01*
X15542135Y-43950000D01*
X15760661Y-43770661D01*
X15952481Y-43536927D01*
X16095017Y-43270261D01*
X16182790Y-42980913D01*
X16212427Y-42680000D01*
X16182790Y-42379087D01*
X16095017Y-42089739D01*
X15952481Y-41823073D01*
X15760661Y-41589339D01*
X15542135Y-41410000D01*
X15760661Y-41230661D01*
X15952481Y-40996927D01*
X16095017Y-40730261D01*
X16182790Y-40440913D01*
X16212427Y-40140000D01*
X16182790Y-39839087D01*
X16095017Y-39549739D01*
X15952481Y-39283073D01*
X15760661Y-39049339D01*
X15542135Y-38870000D01*
X15760661Y-38690661D01*
X15952481Y-38456927D01*
X16095017Y-38190261D01*
X16182790Y-37900913D01*
X16212427Y-37600000D01*
X16182790Y-37299087D01*
X16095017Y-37009739D01*
X15952481Y-36743073D01*
X15760661Y-36509339D01*
X15542135Y-36330000D01*
X15760661Y-36150661D01*
X15952481Y-35916927D01*
X16095017Y-35650261D01*
X16182790Y-35360913D01*
X16212427Y-35060000D01*
X16182790Y-34759087D01*
X16095017Y-34469739D01*
X15952481Y-34203073D01*
X15760661Y-33969339D01*
X15542135Y-33790000D01*
X15760661Y-33610661D01*
X15952481Y-33376927D01*
X16095017Y-33110261D01*
X16182790Y-32820913D01*
X16212427Y-32520000D01*
X16182790Y-32219087D01*
X16095017Y-31929739D01*
X15952481Y-31663073D01*
X15760661Y-31429339D01*
X15542135Y-31250000D01*
X15760661Y-31070661D01*
X15952481Y-30836927D01*
X16095017Y-30570261D01*
X16182790Y-30280913D01*
X16212427Y-29980000D01*
X16182790Y-29679087D01*
X16095017Y-29389739D01*
X15952481Y-29123073D01*
X15760661Y-28889339D01*
X15542135Y-28710000D01*
X15760661Y-28530661D01*
X15952481Y-28296927D01*
X16095017Y-28030261D01*
X16182790Y-27740913D01*
X16212427Y-27440000D01*
X16182790Y-27139087D01*
X16095017Y-26849739D01*
X15952481Y-26583073D01*
X15760661Y-26349339D01*
X15542135Y-26170000D01*
X15760661Y-25990661D01*
X15952481Y-25756927D01*
X16095017Y-25490261D01*
X16182790Y-25200913D01*
X16212427Y-24900000D01*
X16182790Y-24599087D01*
X16095017Y-24309739D01*
X15952481Y-24043073D01*
X15760661Y-23809339D01*
X15542135Y-23630000D01*
X15760661Y-23450661D01*
X15952481Y-23216927D01*
X16095017Y-22950261D01*
X16182790Y-22660913D01*
X16212427Y-22360000D01*
X16182790Y-22059087D01*
X16095017Y-21769739D01*
X15952481Y-21503073D01*
X15760661Y-21269339D01*
X15542135Y-21090000D01*
X15760661Y-20910661D01*
X15952481Y-20676927D01*
X16095017Y-20410261D01*
X16182790Y-20120913D01*
X16212427Y-19820000D01*
X16182790Y-19519087D01*
X16095017Y-19229739D01*
X15952481Y-18963073D01*
X15760661Y-18729339D01*
X15542135Y-18550000D01*
X15760661Y-18370661D01*
X15952481Y-18136927D01*
X16095017Y-17870261D01*
X16182790Y-17580913D01*
X16212427Y-17280000D01*
X16182790Y-16979087D01*
X16095017Y-16689739D01*
X15952481Y-16423073D01*
X15760661Y-16189339D01*
X15526927Y-15997519D01*
X15260261Y-15854983D01*
X14970913Y-15767210D01*
X14745408Y-15745000D01*
X13794592Y-15745000D01*
X13569087Y-15767210D01*
X13279739Y-15854983D01*
X13013073Y-15997519D01*
X12779339Y-16189339D01*
X12587519Y-16423073D01*
X12444983Y-16689739D01*
X12357210Y-16979087D01*
X12327573Y-17280000D01*
X11815000Y-17280000D01*
X11815000Y-9518453D01*
X11857225Y-9581647D01*
X12008353Y-9732775D01*
X12186060Y-9851515D01*
X12383517Y-9933304D01*
X12593137Y-9975000D01*
X12806863Y-9975000D01*
X13016483Y-9933304D01*
X13213940Y-9851515D01*
X13391647Y-9732775D01*
X13542775Y-9581647D01*
X13661515Y-9403940D01*
X13743304Y-9206483D01*
X13785000Y-8996863D01*
X13785000Y-8783137D01*
X13765598Y-8685598D01*
X13863137Y-8705000D01*
X14076863Y-8705000D01*
X14286483Y-8663304D01*
X14483940Y-8581515D01*
X14661647Y-8462775D01*
X14812775Y-8311647D01*
X14931515Y-8133940D01*
X15013304Y-7936483D01*
X15055000Y-7726863D01*
X15055000Y-7513137D01*
X15013304Y-7303517D01*
X14931515Y-7106060D01*
X14812775Y-6928353D01*
X14705000Y-6820578D01*
X14705000Y-2576094D01*
X14708555Y-2539999D01*
X14705000Y-2503904D01*
X14705000Y-2503895D01*
X14694365Y-2395915D01*
X14652337Y-2257367D01*
X14584087Y-2129680D01*
X14492238Y-2017762D01*
X14464193Y-1994746D01*
X13632418Y-1162972D01*
X13646632Y-1153475D01*
X13853475Y-946632D01*
X13970000Y-772240D01*
X14086525Y-946632D01*
X14293368Y-1153475D01*
X14536589Y-1315990D01*
X14806842Y-1427932D01*
X15093740Y-1485000D01*
X15386260Y-1485000D01*
X15673158Y-1427932D01*
X15775001Y-1385748D01*
X15775001Y-1740577D01*
X15667225Y-1848353D01*
X15548485Y-2026060D01*
X15466696Y-2223517D01*
X15425000Y-2433137D01*
X15425000Y-2646863D01*
X15466696Y-2856483D01*
X15548485Y-3053940D01*
X15667225Y-3231647D01*
X15818353Y-3382775D01*
X15996060Y-3501515D01*
X16193517Y-3583304D01*
X16403137Y-3625000D01*
X16616863Y-3625000D01*
X16826483Y-3583304D01*
X17023940Y-3501515D01*
X17045001Y-3487443D01*
X17045001Y-3773887D01*
X17041444Y-3810000D01*
X17045001Y-3846113D01*
X17045001Y-4280577D01*
X16937225Y-4388353D01*
X16818485Y-4566060D01*
X16736696Y-4763517D01*
X16695000Y-4973137D01*
X16695000Y-5186863D01*
X16736696Y-5396483D01*
X16818485Y-5593940D01*
X16937225Y-5771647D01*
X17088353Y-5922775D01*
X17266060Y-6041515D01*
X17463517Y-6123304D01*
X17673137Y-6165000D01*
X17886863Y-6165000D01*
X18096483Y-6123304D01*
X18293940Y-6041515D01*
X18315001Y-6027443D01*
X18315000Y-23330578D01*
X18207225Y-23438353D01*
X18088485Y-23616060D01*
X18006696Y-23813517D01*
X17965000Y-24023137D01*
X17965000Y-24236863D01*
X18006696Y-24446483D01*
X18088485Y-24643940D01*
X18207225Y-24821647D01*
X18358353Y-24972775D01*
X18536060Y-25091515D01*
X18733517Y-25173304D01*
X18943137Y-25215000D01*
X19156863Y-25215000D01*
X19366483Y-25173304D01*
X19563940Y-25091515D01*
X19741647Y-24972775D01*
X19892775Y-24821647D01*
X20011515Y-24643940D01*
X20093304Y-24446483D01*
X20135000Y-24236863D01*
X20135000Y-24023137D01*
X20093304Y-23813517D01*
X20011515Y-23616060D01*
X19892775Y-23438353D01*
X19785000Y-23330578D01*
X19785000Y-19997443D01*
X19806060Y-20011515D01*
X20003517Y-20093304D01*
X20213137Y-20135000D01*
X20426863Y-20135000D01*
X20636483Y-20093304D01*
X20833940Y-20011515D01*
X20855000Y-19997443D01*
X20855000Y-25870578D01*
X20747225Y-25978353D01*
X20628485Y-26156060D01*
X20546696Y-26353517D01*
X20505000Y-26563137D01*
X20505000Y-26776863D01*
X20546696Y-26986483D01*
X20628485Y-27183940D01*
X20747225Y-27361647D01*
X20898353Y-27512775D01*
X21076060Y-27631515D01*
X21273517Y-27713304D01*
X21483137Y-27755000D01*
X21696863Y-27755000D01*
X21906483Y-27713304D01*
X22103940Y-27631515D01*
X22125000Y-27617443D01*
X22125000Y-28410578D01*
X22017225Y-28518353D01*
X21898485Y-28696060D01*
X21816696Y-28893517D01*
X21775000Y-29103137D01*
X21775000Y-29316863D01*
X21816696Y-29526483D01*
X21898485Y-29723940D01*
X22017225Y-29901647D01*
X22168353Y-30052775D01*
X22346060Y-30171515D01*
X22543517Y-30253304D01*
X22753137Y-30295000D01*
X22966863Y-30295000D01*
X23176483Y-30253304D01*
X23373940Y-30171515D01*
X23551647Y-30052775D01*
X23702775Y-29901647D01*
X23821515Y-29723940D01*
X23903304Y-29526483D01*
X23945000Y-29316863D01*
X23945000Y-29103137D01*
X23903304Y-28893517D01*
X23821515Y-28696060D01*
X23702775Y-28518353D01*
X23595000Y-28410578D01*
X23595000Y-22537443D01*
X23616060Y-22551515D01*
X23813517Y-22633304D01*
X24023137Y-22675000D01*
X24236863Y-22675000D01*
X24446483Y-22633304D01*
X24643940Y-22551515D01*
X24665000Y-22537443D01*
X24665001Y-41110577D01*
X24557225Y-41218353D01*
X24438485Y-41396060D01*
X24356696Y-41593517D01*
X24315000Y-41803137D01*
X24315000Y-42016863D01*
X24356696Y-42226483D01*
X24438485Y-42423940D01*
X24557225Y-42601647D01*
X24708353Y-42752775D01*
X24886060Y-42871515D01*
X25083517Y-42953304D01*
X25293137Y-42995000D01*
X25506863Y-42995000D01*
X25716483Y-42953304D01*
X25913940Y-42871515D01*
X25935001Y-42857443D01*
X25935001Y-46190577D01*
X25827225Y-46298353D01*
X25708485Y-46476060D01*
X25626696Y-46673517D01*
X25585000Y-46883137D01*
X25585000Y-47096863D01*
X25626696Y-47306483D01*
X25708485Y-47503940D01*
X25827225Y-47681647D01*
X25978353Y-47832775D01*
X26156060Y-47951515D01*
X26353517Y-48033304D01*
X26563137Y-48075000D01*
X26776863Y-48075000D01*
X26986483Y-48033304D01*
X27183940Y-47951515D01*
X27361647Y-47832775D01*
X27512775Y-47681647D01*
X27611098Y-47534495D01*
X51145000Y-47534495D01*
X51145000Y-47925505D01*
X51221282Y-48309003D01*
X51370915Y-48670250D01*
X51588149Y-48995364D01*
X51864636Y-49271851D01*
X52189750Y-49489085D01*
X52550997Y-49638718D01*
X52934495Y-49715000D01*
X53325505Y-49715000D01*
X53709003Y-49638718D01*
X54070250Y-49489085D01*
X54395364Y-49271851D01*
X54671851Y-48995364D01*
X54889085Y-48670250D01*
X55038718Y-48309003D01*
X55115000Y-47925505D01*
X55115000Y-47534495D01*
X55038718Y-47150997D01*
X54889085Y-46789750D01*
X54671851Y-46464636D01*
X54395364Y-46188149D01*
X54070250Y-45970915D01*
X53709003Y-45821282D01*
X53325505Y-45745000D01*
X52934495Y-45745000D01*
X52550997Y-45821282D01*
X52189750Y-45970915D01*
X51864636Y-46188149D01*
X51588149Y-46464636D01*
X51370915Y-46789750D01*
X51221282Y-47150997D01*
X51145000Y-47534495D01*
X27611098Y-47534495D01*
X27631515Y-47503940D01*
X27713304Y-47306483D01*
X27755000Y-47096863D01*
X27755000Y-46883137D01*
X27713304Y-46673517D01*
X27631515Y-46476060D01*
X27512775Y-46298353D01*
X27405000Y-46190578D01*
X27405000Y-25718967D01*
X50495000Y-25718967D01*
X50495000Y-26041033D01*
X50557832Y-26356912D01*
X50681082Y-26654463D01*
X50860013Y-26922252D01*
X51087748Y-27149987D01*
X51355537Y-27328918D01*
X51653088Y-27452168D01*
X51968967Y-27515000D01*
X52291033Y-27515000D01*
X52606912Y-27452168D01*
X52904463Y-27328918D01*
X53172252Y-27149987D01*
X53399987Y-26922252D01*
X53578918Y-26654463D01*
X53702168Y-26356912D01*
X53765000Y-26041033D01*
X53765000Y-25718967D01*
X53702168Y-25403088D01*
X53578918Y-25105537D01*
X53399987Y-24837748D01*
X53172252Y-24610013D01*
X52904463Y-24431082D01*
X52606912Y-24307832D01*
X52291033Y-24245000D01*
X51968967Y-24245000D01*
X51653088Y-24307832D01*
X51355537Y-24431082D01*
X51087748Y-24610013D01*
X50860013Y-24837748D01*
X50681082Y-25105537D01*
X50557832Y-25403088D01*
X50495000Y-25718967D01*
X27405000Y-25718967D01*
X27405000Y-20718967D01*
X50495000Y-20718967D01*
X50495000Y-21041033D01*
X50557832Y-21356912D01*
X50681082Y-21654463D01*
X50860013Y-21922252D01*
X51087748Y-22149987D01*
X51355537Y-22328918D01*
X51653088Y-22452168D01*
X51968967Y-22515000D01*
X52291033Y-22515000D01*
X52606912Y-22452168D01*
X52904463Y-22328918D01*
X53172252Y-22149987D01*
X53399987Y-21922252D01*
X53578918Y-21654463D01*
X53702168Y-21356912D01*
X53765000Y-21041033D01*
X53765000Y-20718967D01*
X53702168Y-20403088D01*
X53578918Y-20105537D01*
X53399987Y-19837748D01*
X53172252Y-19610013D01*
X52904463Y-19431082D01*
X52865000Y-19414736D01*
X52865000Y-18943137D01*
X53525000Y-18943137D01*
X53525000Y-19156863D01*
X53566696Y-19366483D01*
X53648485Y-19563940D01*
X53767225Y-19741647D01*
X53918353Y-19892775D01*
X54096060Y-20011515D01*
X54293517Y-20093304D01*
X54395001Y-20113490D01*
X54395000Y-30995252D01*
X54215241Y-31115363D01*
X54015363Y-31315241D01*
X53858320Y-31550273D01*
X53750147Y-31811426D01*
X53695000Y-32088665D01*
X53695000Y-32371335D01*
X53750147Y-32648574D01*
X53858320Y-32909727D01*
X54015363Y-33144759D01*
X54215241Y-33344637D01*
X54450273Y-33501680D01*
X54711426Y-33609853D01*
X54988665Y-33665000D01*
X55271335Y-33665000D01*
X55548574Y-33609853D01*
X55809727Y-33501680D01*
X56044759Y-33344637D01*
X56244637Y-33144759D01*
X56401680Y-32909727D01*
X56509853Y-32648574D01*
X56565000Y-32371335D01*
X56565000Y-32088665D01*
X56509853Y-31811426D01*
X56401680Y-31550273D01*
X56244637Y-31315241D01*
X56044759Y-31115363D01*
X55865000Y-30995252D01*
X55865000Y-27980000D01*
X56891928Y-27980000D01*
X56891928Y-29980000D01*
X56904188Y-30104482D01*
X56940498Y-30224180D01*
X56999463Y-30334494D01*
X57078815Y-30431185D01*
X57175506Y-30510537D01*
X57285820Y-30569502D01*
X57405518Y-30605812D01*
X57530000Y-30618072D01*
X60730000Y-30618072D01*
X60854482Y-30605812D01*
X60974180Y-30569502D01*
X61084494Y-30510537D01*
X61181185Y-30431185D01*
X61260537Y-30334494D01*
X61319502Y-30224180D01*
X61355812Y-30104482D01*
X61368072Y-29980000D01*
X61368072Y-27980000D01*
X61355812Y-27855518D01*
X61319502Y-27735820D01*
X61260537Y-27625506D01*
X61181185Y-27528815D01*
X61084494Y-27449463D01*
X60974180Y-27390498D01*
X60854482Y-27354188D01*
X60730000Y-27341928D01*
X57530000Y-27341928D01*
X57405518Y-27354188D01*
X57285820Y-27390498D01*
X57175506Y-27449463D01*
X57078815Y-27528815D01*
X56999463Y-27625506D01*
X56940498Y-27735820D01*
X56904188Y-27855518D01*
X56891928Y-27980000D01*
X55865000Y-27980000D01*
X55865000Y-19606104D01*
X55868556Y-19569999D01*
X55854365Y-19425914D01*
X55837252Y-19369502D01*
X55812337Y-19287367D01*
X55744087Y-19159680D01*
X55695000Y-19099867D01*
X55695000Y-19000133D01*
X55744087Y-18940320D01*
X55812337Y-18812633D01*
X55854365Y-18674085D01*
X55868556Y-18530001D01*
X55865000Y-18493896D01*
X55865000Y-16780000D01*
X56891928Y-16780000D01*
X56891928Y-18780000D01*
X56904188Y-18904482D01*
X56940498Y-19024180D01*
X56999463Y-19134494D01*
X57078815Y-19231185D01*
X57175506Y-19310537D01*
X57285820Y-19369502D01*
X57405518Y-19405812D01*
X57530000Y-19418072D01*
X60730000Y-19418072D01*
X60854482Y-19405812D01*
X60974180Y-19369502D01*
X61084494Y-19310537D01*
X61181185Y-19231185D01*
X61260537Y-19134494D01*
X61319502Y-19024180D01*
X61355812Y-18904482D01*
X61368072Y-18780000D01*
X61368072Y-16780000D01*
X61355812Y-16655518D01*
X61319502Y-16535820D01*
X61260537Y-16425506D01*
X61181185Y-16328815D01*
X61084494Y-16249463D01*
X60974180Y-16190498D01*
X60854482Y-16154188D01*
X60730000Y-16141928D01*
X57530000Y-16141928D01*
X57405518Y-16154188D01*
X57285820Y-16190498D01*
X57175506Y-16249463D01*
X57078815Y-16328815D01*
X56999463Y-16425506D01*
X56940498Y-16535820D01*
X56904188Y-16655518D01*
X56891928Y-16780000D01*
X55865000Y-16780000D01*
X55865000Y-15964748D01*
X56044759Y-15844637D01*
X56244637Y-15644759D01*
X56401680Y-15409727D01*
X56509853Y-15148574D01*
X56565000Y-14871335D01*
X56565000Y-14588665D01*
X56509853Y-14311426D01*
X56401680Y-14050273D01*
X56244637Y-13815241D01*
X56044759Y-13615363D01*
X55809727Y-13458320D01*
X55548574Y-13350147D01*
X55271335Y-13295000D01*
X54988665Y-13295000D01*
X54711426Y-13350147D01*
X54450273Y-13458320D01*
X54215241Y-13615363D01*
X54015363Y-13815241D01*
X53858320Y-14050273D01*
X53750147Y-14311426D01*
X53695000Y-14588665D01*
X53695000Y-14871335D01*
X53750147Y-15148574D01*
X53858320Y-15409727D01*
X54015363Y-15644759D01*
X54215241Y-15844637D01*
X54395000Y-15964748D01*
X54395001Y-17986510D01*
X54293517Y-18006696D01*
X54096060Y-18088485D01*
X53918353Y-18207225D01*
X53767225Y-18358353D01*
X53648485Y-18536060D01*
X53566696Y-18733517D01*
X53525000Y-18943137D01*
X52865000Y-18943137D01*
X52865000Y-8359422D01*
X52912775Y-8311647D01*
X53031515Y-8133940D01*
X53113304Y-7936483D01*
X53155000Y-7726863D01*
X53155000Y-7513137D01*
X53113304Y-7303517D01*
X53031515Y-7106060D01*
X52912775Y-6928353D01*
X52761647Y-6777225D01*
X52583940Y-6658485D01*
X52386483Y-6576696D01*
X52176863Y-6535000D01*
X51963137Y-6535000D01*
X51753517Y-6576696D01*
X51556060Y-6658485D01*
X51378353Y-6777225D01*
X51227225Y-6928353D01*
X51108485Y-7106060D01*
X51026696Y-7303517D01*
X50985000Y-7513137D01*
X50985000Y-7726863D01*
X51026696Y-7936483D01*
X51108485Y-8133940D01*
X51227225Y-8311647D01*
X51378353Y-8462775D01*
X51395001Y-8473899D01*
X51395000Y-19414736D01*
X51355537Y-19431082D01*
X51087748Y-19610013D01*
X50860013Y-19837748D01*
X50681082Y-20105537D01*
X50557832Y-20403088D01*
X50495000Y-20718967D01*
X27405000Y-20718967D01*
X27405000Y-9689422D01*
X27512775Y-9581647D01*
X27631515Y-9403940D01*
X27713304Y-9206483D01*
X27755000Y-8996863D01*
X27755000Y-8783137D01*
X27735598Y-8685598D01*
X27833137Y-8705000D01*
X28046863Y-8705000D01*
X28256483Y-8663304D01*
X28453940Y-8581515D01*
X28631647Y-8462775D01*
X28782775Y-8311647D01*
X28901515Y-8133940D01*
X28983304Y-7936483D01*
X29025000Y-7726863D01*
X29025000Y-7513137D01*
X28983304Y-7303517D01*
X28901515Y-7106060D01*
X28782775Y-6928353D01*
X28675000Y-6820578D01*
X28675000Y-6243137D01*
X61145000Y-6243137D01*
X61145000Y-6456863D01*
X61186696Y-6666483D01*
X61268485Y-6863940D01*
X61387225Y-7041647D01*
X61538353Y-7192775D01*
X61716060Y-7311515D01*
X61913517Y-7393304D01*
X62015001Y-7413490D01*
X62015000Y-13495252D01*
X61835241Y-13615363D01*
X61635363Y-13815241D01*
X61478320Y-14050273D01*
X61370147Y-14311426D01*
X61315000Y-14588665D01*
X61315000Y-14871335D01*
X61370147Y-15148574D01*
X61478320Y-15409727D01*
X61635363Y-15644759D01*
X61835241Y-15844637D01*
X62070273Y-16001680D01*
X62331426Y-16109853D01*
X62608665Y-16165000D01*
X62891335Y-16165000D01*
X63168574Y-16109853D01*
X63429727Y-16001680D01*
X63664759Y-15844637D01*
X63864637Y-15644759D01*
X64021680Y-15409727D01*
X64035001Y-15377568D01*
X64035001Y-25363885D01*
X64031444Y-25400000D01*
X64045635Y-25544085D01*
X64087664Y-25682633D01*
X64155914Y-25810320D01*
X64247763Y-25922238D01*
X64275808Y-25945254D01*
X64704741Y-26374187D01*
X64727762Y-26402238D01*
X64839680Y-26494087D01*
X64967366Y-26562337D01*
X64991928Y-26569788D01*
X64991928Y-26880000D01*
X65004188Y-27004482D01*
X65040498Y-27124180D01*
X65099463Y-27234494D01*
X65178815Y-27331185D01*
X65275506Y-27410537D01*
X65385820Y-27469502D01*
X65505518Y-27505812D01*
X65630000Y-27518072D01*
X65895000Y-27518072D01*
X65895001Y-30855552D01*
X65255554Y-31495000D01*
X63984748Y-31495000D01*
X63864637Y-31315241D01*
X63664759Y-31115363D01*
X63429727Y-30958320D01*
X63168574Y-30850147D01*
X62891335Y-30795000D01*
X62608665Y-30795000D01*
X62331426Y-30850147D01*
X62070273Y-30958320D01*
X61835241Y-31115363D01*
X61635363Y-31315241D01*
X61478320Y-31550273D01*
X61370147Y-31811426D01*
X61315000Y-32088665D01*
X61315000Y-32371335D01*
X61370147Y-32648574D01*
X61478320Y-32909727D01*
X61635363Y-33144759D01*
X61835241Y-33344637D01*
X62070273Y-33501680D01*
X62331426Y-33609853D01*
X62608665Y-33665000D01*
X62891335Y-33665000D01*
X63168574Y-33609853D01*
X63429727Y-33501680D01*
X63664759Y-33344637D01*
X63864637Y-33144759D01*
X63984748Y-32965000D01*
X65523895Y-32965000D01*
X65560000Y-32968556D01*
X65596105Y-32965000D01*
X65704085Y-32954365D01*
X65842633Y-32912337D01*
X65970320Y-32844087D01*
X66082238Y-32752238D01*
X66105258Y-32724188D01*
X67124193Y-31705254D01*
X67152238Y-31682238D01*
X67244087Y-31570320D01*
X67278662Y-31505635D01*
X67312337Y-31442634D01*
X67354365Y-31304085D01*
X67368556Y-31160000D01*
X67365000Y-31123895D01*
X67365000Y-27518072D01*
X67630000Y-27518072D01*
X67754482Y-27505812D01*
X67874180Y-27469502D01*
X67984494Y-27410537D01*
X68081185Y-27331185D01*
X68160537Y-27234494D01*
X68219502Y-27124180D01*
X68255812Y-27004482D01*
X68268072Y-26880000D01*
X68268072Y-24880000D01*
X68255812Y-24755518D01*
X68219502Y-24635820D01*
X68160537Y-24525506D01*
X68081185Y-24428815D01*
X67984494Y-24349463D01*
X67958063Y-24335335D01*
X68078918Y-24154463D01*
X68202168Y-23856912D01*
X68265000Y-23541033D01*
X68265000Y-23218967D01*
X68202168Y-22903088D01*
X68078918Y-22605537D01*
X67899987Y-22337748D01*
X67692239Y-22130000D01*
X67899987Y-21922252D01*
X68078918Y-21654463D01*
X68202168Y-21356912D01*
X68265000Y-21041033D01*
X68265000Y-20718967D01*
X68202168Y-20403088D01*
X68078918Y-20105537D01*
X67899987Y-19837748D01*
X67672252Y-19610013D01*
X67404463Y-19431082D01*
X67106912Y-19307832D01*
X66791033Y-19245000D01*
X66468967Y-19245000D01*
X66153088Y-19307832D01*
X65855537Y-19431082D01*
X65587748Y-19610013D01*
X65505000Y-19692761D01*
X65505000Y-4609422D01*
X65612775Y-4501647D01*
X65731515Y-4323940D01*
X65813304Y-4126483D01*
X65855000Y-3916863D01*
X65855000Y-3703137D01*
X65813304Y-3493517D01*
X65731515Y-3296060D01*
X65612775Y-3118353D01*
X65461647Y-2967225D01*
X65283940Y-2848485D01*
X65086483Y-2766696D01*
X64876863Y-2725000D01*
X64663137Y-2725000D01*
X64453517Y-2766696D01*
X64256060Y-2848485D01*
X64078353Y-2967225D01*
X63927225Y-3118353D01*
X63808485Y-3296060D01*
X63726696Y-3493517D01*
X63685000Y-3703137D01*
X63685000Y-3916863D01*
X63726696Y-4126483D01*
X63808485Y-4323940D01*
X63927225Y-4501647D01*
X64035000Y-4609422D01*
X64035000Y-14082432D01*
X64021680Y-14050273D01*
X63864637Y-13815241D01*
X63664759Y-13615363D01*
X63485000Y-13495252D01*
X63485000Y-6906104D01*
X63488556Y-6869999D01*
X63474365Y-6725914D01*
X63461616Y-6683886D01*
X63432337Y-6587367D01*
X63364087Y-6459680D01*
X63315000Y-6399867D01*
X63315000Y-6243137D01*
X63273304Y-6033517D01*
X63191515Y-5836060D01*
X63072775Y-5658353D01*
X62921647Y-5507225D01*
X62743940Y-5388485D01*
X62546483Y-5306696D01*
X62336863Y-5265000D01*
X62123137Y-5265000D01*
X61913517Y-5306696D01*
X61716060Y-5388485D01*
X61538353Y-5507225D01*
X61387225Y-5658353D01*
X61268485Y-5836060D01*
X61186696Y-6033517D01*
X61145000Y-6243137D01*
X28675000Y-6243137D01*
X28675000Y-1294883D01*
X28886632Y-1153475D01*
X29093475Y-946632D01*
X29210000Y-772240D01*
X29326525Y-946632D01*
X29533368Y-1153475D01*
X29776589Y-1315990D01*
X30046842Y-1427932D01*
X30333740Y-1485000D01*
X30626260Y-1485000D01*
X30913158Y-1427932D01*
X31183411Y-1315990D01*
X31426632Y-1153475D01*
X31633475Y-946632D01*
X31750000Y-772240D01*
X31866525Y-946632D01*
X32073368Y-1153475D01*
X32316589Y-1315990D01*
X32586842Y-1427932D01*
X32873740Y-1485000D01*
X33166260Y-1485000D01*
X33453158Y-1427932D01*
X33723411Y-1315990D01*
X33966632Y-1153475D01*
X34173475Y-946632D01*
X34290000Y-772240D01*
X34406525Y-946632D01*
X34613368Y-1153475D01*
X34856589Y-1315990D01*
X35126842Y-1427932D01*
X35413740Y-1485000D01*
X35706260Y-1485000D01*
X35993158Y-1427932D01*
X36263411Y-1315990D01*
X36506632Y-1153475D01*
X36713475Y-946632D01*
X36830000Y-772240D01*
X36946525Y-946632D01*
X37153368Y-1153475D01*
X37396589Y-1315990D01*
X37666842Y-1427932D01*
X37953740Y-1485000D01*
X38246260Y-1485000D01*
X38533158Y-1427932D01*
X38803411Y-1315990D01*
X39046632Y-1153475D01*
X39253475Y-946632D01*
X39370000Y-772240D01*
X39486525Y-946632D01*
X39693368Y-1153475D01*
X39936589Y-1315990D01*
X40206842Y-1427932D01*
X40493740Y-1485000D01*
X40786260Y-1485000D01*
X41073158Y-1427932D01*
X41343411Y-1315990D01*
X41586632Y-1153475D01*
X41793475Y-946632D01*
X41910000Y-772240D01*
X42026525Y-946632D01*
X42233368Y-1153475D01*
X42476589Y-1315990D01*
X42746842Y-1427932D01*
X43033740Y-1485000D01*
X43326260Y-1485000D01*
X43613158Y-1427932D01*
X43883411Y-1315990D01*
X44126632Y-1153475D01*
X44333475Y-946632D01*
X44450000Y-772240D01*
X44566525Y-946632D01*
X44773368Y-1153475D01*
X45016589Y-1315990D01*
X45286842Y-1427932D01*
X45573740Y-1485000D01*
X45866260Y-1485000D01*
X46153158Y-1427932D01*
X46423411Y-1315990D01*
X46666632Y-1153475D01*
X46873475Y-946632D01*
X46990000Y-772240D01*
X47106525Y-946632D01*
X47313368Y-1153475D01*
X47556589Y-1315990D01*
X47826842Y-1427932D01*
X48113740Y-1485000D01*
X48406260Y-1485000D01*
X48693158Y-1427932D01*
X48963411Y-1315990D01*
X49206632Y-1153475D01*
X49413475Y-946632D01*
X49575990Y-703411D01*
X49687932Y-433158D01*
X49745000Y-146260D01*
X49745000Y146260D01*
X49687932Y433158D01*
X49575990Y703411D01*
X49413475Y946632D01*
X49206632Y1153475D01*
X49032240Y1270000D01*
X49206632Y1386525D01*
X49285612Y1465505D01*
X51145000Y1465505D01*
X51145000Y1074495D01*
X51221282Y690997D01*
X51370915Y329750D01*
X51588149Y4636D01*
X51864636Y-271851D01*
X52189750Y-489085D01*
X52550997Y-638718D01*
X52934495Y-715000D01*
X53325505Y-715000D01*
X53709003Y-638718D01*
X54070250Y-489085D01*
X54395364Y-271851D01*
X54671851Y4636D01*
X54889085Y329750D01*
X55038718Y690997D01*
X55115000Y1074495D01*
X55115000Y1465505D01*
X55038718Y1849003D01*
X54889085Y2210250D01*
X54671851Y2535364D01*
X54395364Y2811851D01*
X54070250Y3029085D01*
X53947330Y3080000D01*
X58436928Y3080000D01*
X58449188Y2955518D01*
X58485498Y2835820D01*
X58544463Y2725506D01*
X58623815Y2628815D01*
X58720506Y2549463D01*
X58830820Y2490498D01*
X58950518Y2454188D01*
X59075000Y2441928D01*
X60039250Y2445000D01*
X60198000Y2603750D01*
X60198000Y4953000D01*
X60452000Y4953000D01*
X60452000Y2603750D01*
X60610750Y2445000D01*
X61575000Y2441928D01*
X61699482Y2454188D01*
X61819180Y2490498D01*
X61929494Y2549463D01*
X62026185Y2628815D01*
X62105537Y2725506D01*
X62164502Y2835820D01*
X62200812Y2955518D01*
X62213072Y3080000D01*
X62210000Y4794250D01*
X62051250Y4953000D01*
X60452000Y4953000D01*
X60198000Y4953000D01*
X58598750Y4953000D01*
X58440000Y4794250D01*
X58436928Y3080000D01*
X53947330Y3080000D01*
X53709003Y3178718D01*
X53325505Y3255000D01*
X52934495Y3255000D01*
X52550997Y3178718D01*
X52189750Y3029085D01*
X51864636Y2811851D01*
X51588149Y2535364D01*
X51370915Y2210250D01*
X51221282Y1849003D01*
X51145000Y1465505D01*
X49285612Y1465505D01*
X49413475Y1593368D01*
X49575990Y1836589D01*
X49687932Y2106842D01*
X49745000Y2393740D01*
X49745000Y2686260D01*
X49687932Y2973158D01*
X49575990Y3243411D01*
X49413475Y3486632D01*
X49206632Y3693475D01*
X48963411Y3855990D01*
X48693158Y3967932D01*
X48406260Y4025000D01*
X48113740Y4025000D01*
X47826842Y3967932D01*
X47556589Y3855990D01*
X47313368Y3693475D01*
X47106525Y3486632D01*
X46990000Y3312240D01*
X46873475Y3486632D01*
X46666632Y3693475D01*
X46423411Y3855990D01*
X46153158Y3967932D01*
X45866260Y4025000D01*
X45573740Y4025000D01*
X45286842Y3967932D01*
X45016589Y3855990D01*
X44773368Y3693475D01*
X44566525Y3486632D01*
X44450000Y3312240D01*
X44333475Y3486632D01*
X44126632Y3693475D01*
X43883411Y3855990D01*
X43613158Y3967932D01*
X43326260Y4025000D01*
X43033740Y4025000D01*
X42746842Y3967932D01*
X42476589Y3855990D01*
X42233368Y3693475D01*
X42026525Y3486632D01*
X41910000Y3312240D01*
X41793475Y3486632D01*
X41586632Y3693475D01*
X41343411Y3855990D01*
X41073158Y3967932D01*
X40786260Y4025000D01*
X40493740Y4025000D01*
X40206842Y3967932D01*
X39936589Y3855990D01*
X39693368Y3693475D01*
X39486525Y3486632D01*
X39370000Y3312240D01*
X39253475Y3486632D01*
X39046632Y3693475D01*
X38803411Y3855990D01*
X38533158Y3967932D01*
X38246260Y4025000D01*
X37953740Y4025000D01*
X37666842Y3967932D01*
X37396589Y3855990D01*
X37153368Y3693475D01*
X36946525Y3486632D01*
X36830000Y3312240D01*
X36713475Y3486632D01*
X36506632Y3693475D01*
X36263411Y3855990D01*
X35993158Y3967932D01*
X35706260Y4025000D01*
X35413740Y4025000D01*
X35126842Y3967932D01*
X34856589Y3855990D01*
X34613368Y3693475D01*
X34406525Y3486632D01*
X34290000Y3312240D01*
X34173475Y3486632D01*
X33966632Y3693475D01*
X33723411Y3855990D01*
X33453158Y3967932D01*
X33166260Y4025000D01*
X32873740Y4025000D01*
X32586842Y3967932D01*
X32316589Y3855990D01*
X32073368Y3693475D01*
X31866525Y3486632D01*
X31750000Y3312240D01*
X31633475Y3486632D01*
X31426632Y3693475D01*
X31183411Y3855990D01*
X30913158Y3967932D01*
X30626260Y4025000D01*
X30333740Y4025000D01*
X30046842Y3967932D01*
X29776589Y3855990D01*
X29533368Y3693475D01*
X29326525Y3486632D01*
X29210000Y3312240D01*
X29093475Y3486632D01*
X28886632Y3693475D01*
X28643411Y3855990D01*
X28373158Y3967932D01*
X28086260Y4025000D01*
X27793740Y4025000D01*
X27506842Y3967932D01*
X27236589Y3855990D01*
X26993368Y3693475D01*
X26786525Y3486632D01*
X26670000Y3312240D01*
X26553475Y3486632D01*
X26346632Y3693475D01*
X26103411Y3855990D01*
X25833158Y3967932D01*
X25546260Y4025000D01*
X25253740Y4025000D01*
X24966842Y3967932D01*
X24696589Y3855990D01*
X24453368Y3693475D01*
X24246525Y3486632D01*
X24130000Y3312240D01*
X24013475Y3486632D01*
X23806632Y3693475D01*
X23563411Y3855990D01*
X23293158Y3967932D01*
X23006260Y4025000D01*
X22713740Y4025000D01*
X22426842Y3967932D01*
X22156589Y3855990D01*
X21913368Y3693475D01*
X21706525Y3486632D01*
X21590000Y3312240D01*
X21473475Y3486632D01*
X21266632Y3693475D01*
X21023411Y3855990D01*
X20753158Y3967932D01*
X20466260Y4025000D01*
X20173740Y4025000D01*
X19886842Y3967932D01*
X19616589Y3855990D01*
X19373368Y3693475D01*
X19166525Y3486632D01*
X19050000Y3312240D01*
X18933475Y3486632D01*
X18726632Y3693475D01*
X18483411Y3855990D01*
X18213158Y3967932D01*
X17926260Y4025000D01*
X17633740Y4025000D01*
X17346842Y3967932D01*
X17076589Y3855990D01*
X16833368Y3693475D01*
X16626525Y3486632D01*
X16510000Y3312240D01*
X16393475Y3486632D01*
X16186632Y3693475D01*
X15943411Y3855990D01*
X15673158Y3967932D01*
X15386260Y4025000D01*
X15093740Y4025000D01*
X14806842Y3967932D01*
X14536589Y3855990D01*
X14293368Y3693475D01*
X14086525Y3486632D01*
X13970000Y3312240D01*
X13853475Y3486632D01*
X13646632Y3693475D01*
X13403411Y3855990D01*
X13133158Y3967932D01*
X12846260Y4025000D01*
X12553740Y4025000D01*
X12266842Y3967932D01*
X11996589Y3855990D01*
X11753368Y3693475D01*
X11546525Y3486632D01*
X11430000Y3312240D01*
X11313475Y3486632D01*
X11106632Y3693475D01*
X10863411Y3855990D01*
X10593158Y3967932D01*
X10306260Y4025000D01*
X10013740Y4025000D01*
X9726842Y3967932D01*
X9456589Y3855990D01*
X9213368Y3693475D01*
X9006525Y3486632D01*
X8890000Y3312240D01*
X8773475Y3486632D01*
X8566632Y3693475D01*
X8323411Y3855990D01*
X8053158Y3967932D01*
X7766260Y4025000D01*
X7473740Y4025000D01*
X7186842Y3967932D01*
X6916589Y3855990D01*
X6673368Y3693475D01*
X6466525Y3486632D01*
X6350000Y3312240D01*
X6233475Y3486632D01*
X6026632Y3693475D01*
X5783411Y3855990D01*
X5513158Y3967932D01*
X5226260Y4025000D01*
X4933740Y4025000D01*
X4646842Y3967932D01*
X4376589Y3855990D01*
X4133368Y3693475D01*
X3926525Y3486632D01*
X3804805Y3304466D01*
X3735178Y3421355D01*
X3540269Y3637588D01*
X3306920Y3811641D01*
X3044099Y3936825D01*
X2896890Y3981476D01*
X2667000Y3860155D01*
X2667000Y2667000D01*
X2687000Y2667000D01*
X2687000Y2413000D01*
X2667000Y2413000D01*
X2667000Y2393000D01*
X2413000Y2393000D01*
X2413000Y2413000D01*
X127000Y2413000D01*
X127000Y2393000D01*
X-127000Y2393000D01*
X-127000Y2413000D01*
X-1320814Y2413000D01*
X-1441481Y2183109D01*
X-1344157Y1908748D01*
X-1195178Y1658645D01*
X-1018374Y1462498D01*
X-1094180Y1439502D01*
X-1204494Y1380537D01*
X-1301185Y1301185D01*
X-1380537Y1204494D01*
X-1439502Y1094180D01*
X-1475812Y974482D01*
X-1488072Y850000D01*
X-1488072Y-850000D01*
X-1475812Y-974482D01*
X-1454421Y-1045000D01*
X-5336496Y-1045000D01*
X-5819016Y-997688D01*
X-6250927Y-867287D01*
X-6649280Y-655480D01*
X-6998914Y-370325D01*
X-7286497Y-22697D01*
X-7501085Y374175D01*
X-7634500Y805166D01*
X-7685000Y1285654D01*
X-7685000Y1465505D01*
X-6855000Y1465505D01*
X-6855000Y1074495D01*
X-6778718Y690997D01*
X-6629085Y329750D01*
X-6411851Y4636D01*
X-6135364Y-271851D01*
X-5810250Y-489085D01*
X-5449003Y-638718D01*
X-5065505Y-715000D01*
X-4674495Y-715000D01*
X-4290997Y-638718D01*
X-3929750Y-489085D01*
X-3604636Y-271851D01*
X-3328149Y4636D01*
X-3110915Y329750D01*
X-2961282Y690997D01*
X-2885000Y1074495D01*
X-2885000Y1465505D01*
X-2961282Y1849003D01*
X-3110915Y2210250D01*
X-3328149Y2535364D01*
X-3604636Y2811851D01*
X-3731907Y2896891D01*
X-1441481Y2896891D01*
X-1320814Y2667000D01*
X-127000Y2667000D01*
X-127000Y3860155D01*
X127000Y3860155D01*
X127000Y2667000D01*
X2413000Y2667000D01*
X2413000Y3860155D01*
X2183110Y3981476D01*
X2035901Y3936825D01*
X1773080Y3811641D01*
X1539731Y3637588D01*
X1344822Y3421355D01*
X1270000Y3295745D01*
X1195178Y3421355D01*
X1000269Y3637588D01*
X766920Y3811641D01*
X504099Y3936825D01*
X356890Y3981476D01*
X127000Y3860155D01*
X-127000Y3860155D01*
X-356890Y3981476D01*
X-504099Y3936825D01*
X-766920Y3811641D01*
X-1000269Y3637588D01*
X-1195178Y3421355D01*
X-1344157Y3171252D01*
X-1441481Y2896891D01*
X-3731907Y2896891D01*
X-3929750Y3029085D01*
X-4290997Y3178718D01*
X-4674495Y3255000D01*
X-5065505Y3255000D01*
X-5449003Y3178718D01*
X-5810250Y3029085D01*
X-6135364Y2811851D01*
X-6411851Y2535364D01*
X-6629085Y2210250D01*
X-6778718Y1849003D01*
X-6855000Y1465505D01*
X-7685000Y1465505D01*
X-7685000Y1736495D01*
X-7637688Y2219016D01*
X-7507286Y2650930D01*
X-7295476Y3049285D01*
X-7010325Y3398914D01*
X-6662697Y3686497D01*
X-6265823Y3901086D01*
X-5834839Y4034498D01*
X-5354346Y4085000D01*
X9663647Y4085000D01*
X9693645Y4087955D01*
X9706047Y4087868D01*
X9715565Y4088802D01*
X10103758Y4129603D01*
X10164539Y4142080D01*
X10225560Y4153720D01*
X10234716Y4156484D01*
X10607591Y4271908D01*
X10664870Y4295986D01*
X10722388Y4319225D01*
X10730833Y4323714D01*
X11074188Y4509366D01*
X11125635Y4544068D01*
X11177610Y4578079D01*
X11185022Y4584124D01*
X11485777Y4832931D01*
X11529524Y4876984D01*
X11573881Y4920422D01*
X11579978Y4927792D01*
X11826679Y5230276D01*
X11861047Y5282005D01*
X11896111Y5333215D01*
X11900661Y5341628D01*
X12083910Y5686270D01*
X12107555Y5743636D01*
X12132028Y5800736D01*
X12134856Y5809873D01*
X12247674Y6183544D01*
X12259737Y6244469D01*
X12272641Y6305174D01*
X12273641Y6314686D01*
X12311731Y6703155D01*
X12311731Y6703163D01*
X12315000Y6736353D01*
X12315000Y7080000D01*
X58436928Y7080000D01*
X58440000Y5365750D01*
X58598750Y5207000D01*
X60198000Y5207000D01*
X60198000Y7556250D01*
X60452000Y7556250D01*
X60452000Y5207000D01*
X62051250Y5207000D01*
X62210000Y5365750D01*
X62213072Y7080000D01*
X62246928Y7080000D01*
X62246928Y3080000D01*
X62259188Y2955518D01*
X62295498Y2835820D01*
X62354463Y2725506D01*
X62433815Y2628815D01*
X62530506Y2549463D01*
X62640820Y2490498D01*
X62760518Y2454188D01*
X62885000Y2441928D01*
X63200000Y2441928D01*
X63200000Y1823623D01*
X63173485Y1783940D01*
X63091696Y1586483D01*
X63050000Y1376863D01*
X63050000Y1163137D01*
X63091696Y953517D01*
X63173485Y756060D01*
X63292225Y578353D01*
X63443353Y427225D01*
X63621060Y308485D01*
X63818517Y226696D01*
X64028137Y185000D01*
X64241863Y185000D01*
X64451483Y226696D01*
X64648940Y308485D01*
X64826647Y427225D01*
X64977775Y578353D01*
X65096515Y756060D01*
X65178304Y953517D01*
X65220000Y1163137D01*
X65220000Y1376863D01*
X65178304Y1586483D01*
X65096515Y1783940D01*
X65070000Y1823623D01*
X65070000Y2441928D01*
X65385000Y2441928D01*
X65509482Y2454188D01*
X65629180Y2490498D01*
X65739494Y2549463D01*
X65836185Y2628815D01*
X65915537Y2725506D01*
X65974502Y2835820D01*
X66010812Y2955518D01*
X66023072Y3080000D01*
X66023072Y7080000D01*
X66010812Y7204482D01*
X65974502Y7324180D01*
X65915537Y7434494D01*
X65836185Y7531185D01*
X65739494Y7610537D01*
X65629180Y7669502D01*
X65509482Y7705812D01*
X65385000Y7718072D01*
X62885000Y7718072D01*
X62760518Y7705812D01*
X62640820Y7669502D01*
X62530506Y7610537D01*
X62433815Y7531185D01*
X62354463Y7434494D01*
X62295498Y7324180D01*
X62259188Y7204482D01*
X62246928Y7080000D01*
X62213072Y7080000D01*
X62200812Y7204482D01*
X62164502Y7324180D01*
X62105537Y7434494D01*
X62026185Y7531185D01*
X61929494Y7610537D01*
X61819180Y7669502D01*
X61699482Y7705812D01*
X61575000Y7718072D01*
X60610750Y7715000D01*
X60452000Y7556250D01*
X60198000Y7556250D01*
X60039250Y7715000D01*
X59075000Y7718072D01*
X58950518Y7705812D01*
X58830820Y7669502D01*
X58720506Y7610537D01*
X58623815Y7531185D01*
X58544463Y7434494D01*
X58485498Y7324180D01*
X58449188Y7204482D01*
X58436928Y7080000D01*
X12315000Y7080000D01*
X12315000Y13260765D01*
X12377988Y13108698D01*
X12611637Y12759017D01*
X12909017Y12461637D01*
X13258698Y12227988D01*
X13647244Y12067047D01*
X14059721Y11985000D01*
X14480279Y11985000D01*
X14892756Y12067047D01*
X15281302Y12227988D01*
X15630983Y12461637D01*
X15928363Y12759017D01*
X16162012Y13108698D01*
X16322953Y13497244D01*
X16405000Y13909721D01*
X16405000Y14330279D01*
X16322953Y14742756D01*
X16162012Y15131302D01*
X15928363Y15480983D01*
X15630983Y15778363D01*
X15281302Y16012012D01*
X15105093Y16085000D01*
X44436862Y16085000D01*
X44259398Y16011492D01*
G37*
G04 #@! TD.AperFunction*
M02*
