M48
; DRILL file {KiCad (5.1.10)-1} date 06/06/22 19:05:25
; FORMAT={-:-/ absolute / metric / decimal}
; #@! TF.CreationDate,2022-06-06T19:05:25+02:00
; #@! TF.GenerationSoftware,Kicad,Pcbnew,(5.1.10)-1
; #@! TF.FileFunction,Plated,1,2,PTH
FMAT,2
METRIC
T1C0.600
T2C0.800
T3C1.000
T4C1.200
T5C1.500
T6C2.500
%
G90
G05
T1
X12.7Y-8.89
X13.97Y-7.62
X16.51Y-2.54
X17.78Y-5.08
X19.05Y-24.13
X20.32Y-19.05
X21.59Y-2.54
X21.59Y-26.67
X22.86Y-3.81
X22.86Y-5.08
X22.86Y-29.21
X24.13Y-21.59
X25.4Y-6.35
X25.4Y-7.62
X25.4Y-41.91
X26.67Y-8.89
X26.67Y-46.99
X27.94Y-7.62
X52.07Y-7.62
X54.61Y-19.05
X62.23Y-6.35
X64.135Y1.27
X64.77Y-3.81
T2
X51.13Y-54.61
X51.13Y-57.15
X51.13Y-59.69
X55.13Y-14.73
X55.13Y-32.23
X62.75Y-14.73
X62.75Y-32.23
T3
X0.0Y2.54
X0.0Y0.0
X2.54Y2.54
X2.54Y0.0
X5.08Y2.54
X5.08Y0.0
X7.62Y2.54
X7.62Y0.0
X10.16Y2.54
X10.16Y0.0
X12.7Y2.54
X12.7Y0.0
X15.24Y2.54
X15.24Y0.0
X17.78Y2.54
X17.78Y0.0
X20.32Y2.54
X20.32Y0.0
X22.86Y2.54
X22.86Y0.0
X25.4Y2.54
X25.4Y0.0
X27.94Y2.54
X27.94Y0.0
X30.48Y2.54
X30.48Y0.0
X33.02Y2.54
X33.02Y0.0
X35.56Y2.54
X35.56Y0.0
X38.1Y2.54
X38.1Y0.0
X40.64Y2.54
X40.64Y0.0
X43.18Y2.54
X43.18Y0.0
X45.72Y2.54
X45.72Y0.0
X48.26Y2.54
X48.26Y0.0
X52.13Y-20.88
X52.13Y-25.88
X66.63Y-20.88
X66.63Y-23.38
X66.63Y-25.88
T4
X14.27Y-17.28
X14.27Y-19.82
X14.27Y-22.36
X14.27Y-24.9
X14.27Y-27.44
X14.27Y-29.98
X14.27Y-32.52
X14.27Y-35.06
X14.27Y-37.6
X14.27Y-40.14
X14.27Y-42.68
X14.27Y-45.22
X14.27Y-47.76
X14.27Y-50.3
X14.27Y-52.84
X14.27Y-55.38
T6
X14.27Y14.12
X14.27Y-60.879
X45.271Y14.119
X45.271Y-60.879
T5
G00X59.78Y-17.78
M15
G01X58.48Y-17.78
M16
G05
G00X59.78Y-28.98
M15
G01X58.48Y-28.98
M16
G05
T0
M30
