G04 #@! TF.GenerationSoftware,KiCad,Pcbnew,(5.1.9)-1*
G04 #@! TF.CreationDate,2022-05-06T12:13:32+02:00*
G04 #@! TF.ProjectId,cluimsyMIDI AddOn,636c7569-6d73-4794-9d49-444920416464,rev?*
G04 #@! TF.SameCoordinates,Original*
G04 #@! TF.FileFunction,Soldermask,Bot*
G04 #@! TF.FilePolarity,Negative*
%FSLAX46Y46*%
G04 Gerber Fmt 4.6, Leading zero omitted, Abs format (unit mm)*
G04 Created by KiCad (PCBNEW (5.1.9)-1) date 2022-05-06 12:13:32*
%MOMM*%
%LPD*%
G01*
G04 APERTURE LIST*
%ADD10R,2.000000X2.000000*%
%ADD11C,2.000000*%
%ADD12R,3.200000X2.000000*%
%ADD13O,1.600000X1.600000*%
%ADD14C,1.600000*%
%ADD15C,1.440000*%
%ADD16C,3.000000*%
%ADD17O,2.600000X1.800000*%
%ADD18R,2.600000X1.800000*%
%ADD19R,1.700000X1.700000*%
%ADD20O,1.700000X1.700000*%
%ADD21C,2.700000*%
G04 APERTURE END LIST*
D10*
X66630000Y-25880000D03*
D11*
X66630000Y-23380000D03*
X66630000Y-20880000D03*
D12*
X59130000Y-28980000D03*
X59130000Y-17780000D03*
D11*
X52130000Y-25880000D03*
X52130000Y-20880000D03*
D13*
X62750000Y-32230000D03*
D14*
X55130000Y-32230000D03*
D13*
X62750000Y-14730000D03*
D14*
X55130000Y-14730000D03*
D15*
X51130000Y-54610000D03*
X51130000Y-57150000D03*
X51130000Y-59690000D03*
D16*
X14270000Y14120000D03*
X45270700Y14119480D03*
X45270700Y-60879100D03*
X14270000Y-60879100D03*
D17*
X14270000Y-17280000D03*
X14270000Y-19820000D03*
X14270000Y-22360000D03*
X14270000Y-24900000D03*
X14270000Y-27440000D03*
X14270000Y-29980000D03*
X14270000Y-32520000D03*
X14270000Y-35060000D03*
X14270000Y-37600000D03*
X14270000Y-40140000D03*
X14270000Y-42680000D03*
X14270000Y-45220000D03*
X14270000Y-47760000D03*
X14270000Y-50300000D03*
X14270000Y-52840000D03*
D18*
X14270000Y-55380000D03*
D19*
X0Y0D03*
D20*
X0Y2540000D03*
X2540000Y0D03*
X2540000Y2540000D03*
X5080000Y0D03*
X5080000Y2540000D03*
X7620000Y0D03*
X7620000Y2540000D03*
X10160000Y0D03*
X10160000Y2540000D03*
X12700000Y0D03*
X12700000Y2540000D03*
X15240000Y0D03*
X15240000Y2540000D03*
X17780000Y0D03*
X17780000Y2540000D03*
X20320000Y0D03*
X20320000Y2540000D03*
X22860000Y0D03*
X22860000Y2540000D03*
X25400000Y0D03*
X25400000Y2540000D03*
X27940000Y0D03*
X27940000Y2540000D03*
X30480000Y0D03*
X30480000Y2540000D03*
X33020000Y0D03*
X33020000Y2540000D03*
X35560000Y0D03*
X35560000Y2540000D03*
X38100000Y0D03*
X38100000Y2540000D03*
X40640000Y0D03*
X40640000Y2540000D03*
X43180000Y0D03*
X43180000Y2540000D03*
X45720000Y0D03*
X45720000Y2540000D03*
X48260000Y0D03*
X48260000Y2540000D03*
D21*
X53130000Y-47730000D03*
X-4870000Y-47730000D03*
X53130000Y1270000D03*
X-4870000Y1270000D03*
M02*
