  0
SECTION
  2
HEADER
  9
$ACADVER
  1
AC1014
  9
$ACADMAINTVER
 70
     9
  9
$DWGCODEPAGE
  3
ANSI_1252
  9
$INSBASE
 10
0.0
 20
0.0
 30
0.0
  9
$EXTMIN
 10
0.0
 20
0.0
 30
0.0
  9
$EXTMAX
 10
841.0
 20
594.0
 30
0.0
  9
$LIMMIN
 10
0.0
 20
0.0
  9
$LIMMAX
 10
841.0
 20
594.0
  9
$ORTHOMODE
 70
     0
  9
$REGENMODE
 70
     1
  9
$FILLMODE
 70
     1
  9
$QTEXTMODE
 70
     0
  9
$MIRRTEXT
 70
     1
  9
$DRAGMODE
 70
     2
  9
$LTSCALE
 40
1.0
  9
$OSMODE
 70
    37
  9
$ATTMODE
 70
     1
  9
$TEXTSIZE
 40
3.5
  9
$TRACEWID
 40
1.0
  9
$TEXTSTYLE
  7
STANDARD
  9
$CLAYER
  8
0
  9
$CELTYPE
  6
BYLAYER
  9
$CECOLOR
 62
   256
  9
$CELTSCALE
 40
1.0
  9
$DELOBJ
 70
     1
  9
$DISPSILH
 70
     0
  9
$DIMSCALE
 40
1.0
  9
$DIMASZ
 40
3.302
  9
$DIMEXO
 40
1.0
  9
$DIMDLI
 40
3.75
  9
$DIMRND
 40
0.0
  9
$DIMDLE
 40
0.0
  9
$DIMEXE
 40
1.0
  9
$DIMTP
 40
0.0
  9
$DIMTM
 40
0.0
  9
$DIMTXT
 40
3.5
  9
$DIMCEN
 40
2.5
  9
$DIMTSZ
 40
0.0
  9
$DIMTOL
 70
     0
  9
$DIMLIM
 70
     0
  9
$DIMTIH
 70
     1
  9
$DIMTOH
 70
     1
  9
$DIMSE1
 70
     0
  9
$DIMSE2
 70
     0
  9
$DIMTAD
 70
     1
  9
$DIMZIN
 70
     1
  9
$DIMBLK
  1

  9
$DIMASO
 70
     1
  9
$DIMSHO
 70
     1
  9
$DIMPOST
  1

  9
$DIMAPOST
  1

  9
$DIMALT
 70
     0
  9
$DIMALTD
 70
     3
  9
$DIMALTF
 40
0.0393700787
  9
$DIMLFAC
 40
1.0
  9
$DIMTOFL
 70
     1
  9
$DIMTVP
 40
0.0
  9
$DIMTIX
 70
     0
  9
$DIMSOXD
 70
     0
  9
$DIMSAH
 70
     0
  9
$DIMBLK1
  1

  9
$DIMBLK2
  1

  9
$DIMSTYLE
  2
ISO-25
  9
$DIMCLRD
 70
     0
  9
$DIMCLRE
 70
     0
  9
$DIMCLRT
 70
     0
  9
$DIMTFAC
 40
1.0
  9
$DIMGAP
 40
1.524
  9
$DIMJUST
 70
     0
  9
$DIMSD1
 70
     0
  9
$DIMSD2
 70
     0
  9
$DIMTOLJ
 70
     0
  9
$DIMTZIN
 70
     1
  9
$DIMALTZ
 70
     0
  9
$DIMALTTZ
 70
     0
  9
$DIMFIT
 70
     3
  9
$DIMUPT
 70
     0
  9
$DIMUNIT
 70
     2
  9
$DIMDEC
 70
     2
  9
$DIMTDEC
 70
     2
  9
$DIMALTU
 70
     2
  9
$DIMALTTD
 70
     3
  9
$DIMTXSTY
  7
STANDARD
  9
$DIMAUNIT
 70
     0
  9
$LUNITS
 70
     2
  9
$LUPREC
 70
     2
  9
$SKETCHINC
 40
1.0
  9
$FILLETRAD
 40
10.0
  9
$AUNITS
 70
     0
  9
$AUPREC
 70
     2
  9
$MENU
  1
.
  9
$ELEVATION
 40
0.0
  9
$PELEVATION
 40
0.0
  9
$THICKNESS
 40
0.0
  9
$LIMCHECK
 70
     0
  9
$CHAMFERA
 40
0.0
  9
$CHAMFERB
 40
0.0
  9
$CHAMFERC
 40
0.0
  9
$CHAMFERD
 40
0.0
  9
$SKPOLY
 70
     0
  9
$TDCREATE
 40
2459735.4523464
  9
$TDUPDATE
 40
2459735.452347049
  9
$TDINDWG
 40
0.0000000116
  9
$TDUSRTIMER
 40
0.0000000116
  9
$USRTIMER
 70
     1
  9
$ANGBASE
 50
0.0
  9
$ANGDIR
 70
     0
  9
$PDMODE
 70
     0
  9
$PDSIZE
 40
-1.0
  9
$PLINEWID
 40
0.0
  9
$COORDS
 70
     1
  9
$SPLFRAME
 70
     0
  9
$SPLINETYPE
 70
     6
  9
$SPLINESEGS
 70
     8
  9
$ATTDIA
 70
     0
  9
$ATTREQ
 70
     1
  9
$HANDLING
 70
     1
  9
$HANDSEED
  5
331
  9
$SURFTAB1
 70
     6
  9
$SURFTAB2
 70
     6
  9
$SURFTYPE
 70
     6
  9
$SURFU
 70
     6
  9
$SURFV
 70
     6
  9
$UCSNAME
  2

  9
$UCSORG
 10
0.0
 20
0.0
 30
0.0
  9
$UCSXDIR
 10
1.0
 20
0.0
 30
0.0
  9
$UCSYDIR
 10
0.0
 20
1.0
 30
0.0
  9
$PUCSNAME
  2

  9
$PUCSORG
 10
0.0
 20
0.0
 30
0.0
  9
$PUCSXDIR
 10
1.0
 20
0.0
 30
0.0
  9
$PUCSYDIR
 10
0.0
 20
1.0
 30
0.0
  9
$USERI1
 70
     0
  9
$USERI2
 70
     0
  9
$USERI3
 70
     0
  9
$USERI4
 70
     0
  9
$USERI5
 70
     0
  9
$USERR1
 40
0.0
  9
$USERR2
 40
0.0
  9
$USERR3
 40
0.0
  9
$USERR4
 40
0.0
  9
$USERR5
 40
0.0
  9
$WORLDVIEW
 70
     1
  9
$SHADEDGE
 70
     3
  9
$SHADEDIF
 70
    70
  9
$TILEMODE
 70
     1
  9
$MAXACTVP
 70
    64
  9
$PINSBASE
 10
0.0
 20
0.0
 30
0.0
  9
$PLIMCHECK
 70
     0
  9
$PEXTMIN
 10
1.0000000000E+20
 20
1.0000000000E+20
 30
1.0000000000E+20
  9
$PEXTMAX
 10
-1.0000000000E+20
 20
-1.0000000000E+20
 30
-1.0000000000E+20
  9
$PLIMMIN
 10
0.0
 20
0.0
  9
$PLIMMAX
 10
420.0
 20
297.0
  9
$UNITMODE
 70
     0
  9
$VISRETAIN
 70
     1
  9
$PLINEGEN
 70
     0
  9
$PSLTSCALE
 70
     1
  9
$TREEDEPTH
 70
  3020
  9
$PICKSTYLE
 70
     1
  9
$CMLSTYLE
  2
STANDARD
  9
$CMLJUST
 70
     0
  9
$CMLSCALE
 40
20.0
  9
$PROXYGRAPHICS
 70
     1
  9
$MEASUREMENT
 70
     1
  0
ENDSEC
  0
SECTION
  2
CLASSES
  0
CLASS
  1
ACDBDICTIONARYWDFLT
  2
AcDbDictionaryWithDefault
  3
ObjectDBX Classes
 90
        0
280
     0
281
     0
  0
CLASS
  1
VISUALSTYLE
  2
AcDbVisualStyle
  3
ObjectDBX Classes
 90
     4095
280
     0
281
     0
  0
CLASS
  1
MATERIAL
  2
AcDbMaterial
  3
ObjectDBX Classes
 90
     1153
280
     0
281
     0
  0
CLASS
  1
SCALE
  2
AcDbScale
  3
ObjectDBX Classes
 90
     1153
280
     0
281
     0
  0
CLASS
  1
TABLESTYLE
  2
AcDbTableStyle
  3
ObjectDBX Classes
 90
     4095
280
     0
281
     0
  0
CLASS
  1
MLEADERSTYLE
  2
AcDbMLeaderStyle
  3
ACDB_MLEADERSTYLE_CLASS
 90
     4095
280
     0
281
     0
  0
CLASS
  1
SUN
  2
AcDbSun
  3
SCENEOE
 90
     1153
280
     0
281
     0
  0
CLASS
  1
XRECORD
  2
AcDbXrecord
  3
ObjectDBX Classes
 90
        0
280
     0
281
     0
  0
CLASS
  1
LWPOLYLINE
  2
AcDbPolyline
  3
ObjectDBX Classes
 90
        0
280
     0
281
     1
  0
CLASS
  1
HATCH
  2
AcDbHatch
  3
ObjectDBX Classes
 90
        0
280
     0
281
     1
  0
ENDSEC
  0
SECTION
  2
TABLES
  0
TABLE
  2
VPORT
  5
8
330
0
100
AcDbSymbolTable
 70
     1
  0
VPORT
  5
29
330
8
100
AcDbSymbolTableRecord
100
AcDbViewportTableRecord
  2
*ACTIVE
 70
     0
 10
0.0
 20
0.0
 11
1.0
 21
1.0
 12
420.5
 22
297.0
 13
0.0
 23
0.0
 14
10.0
 24
10.0
 15
10.0
 25
10.0
 16
0.0
 26
0.0
 36
1.0
 17
0.0
 27
0.0
 37
0.0
 40
594.0
 41
1.4158249158
 42
50.0
 43
0.0
 44
0.0
 50
0.0
 51
0.0
 71
     0
 72
  2000
 73
     1
 74
     3
 75
     0
 76
     0
 77
     0
 78
     0
  0
ENDTAB
  0
TABLE
  2
LTYPE
  5
5
330
0
100
AcDbSymbolTable
 70
     6
  0
LTYPE
  5
14
330
5
100
AcDbSymbolTableRecord
100
AcDbLinetypeTableRecord
  2
BYBLOCK
 70
     0
  3

 72
    65
 73
     0
 40
0.0
  0
LTYPE
  5
15
330
5
100
AcDbSymbolTableRecord
100
AcDbLinetypeTableRecord
  2
BYLAYER
 70
     0
  3

 72
    65
 73
     0
 40
0.0
  0
LTYPE
  5
16
330
5
100
AcDbSymbolTableRecord
100
AcDbLinetypeTableRecord
  2
CONTINUOUS
 70
     0
  3
Solid line
 72
    65
 73
     0
 40
0.0
  0
LTYPE
  5
6E
330
5
100
AcDbSymbolTableRecord
100
AcDbLinetypeTableRecord
  2
HIDDEN
 70
     0
  3
Hidden __ __ __ __ __ __ __ __ __ __ __ __ __ __
 72
    65
 73
     2
 40
1.905
 49
1.27
 74
     0
 49
-0.635
 74
     0
  0
LTYPE
  5
6F
330
5
100
AcDbSymbolTableRecord
100
AcDbLinetypeTableRecord
  2
PHANTOM
 70
     0
  3
Phantom ______  __  __  ______  __  __  ______
 72
    65
 73
     6
 40
12.7
 49
6.35
 74
     0
 49
-1.27
 74
     0
 49
1.27
 74
     0
 49
-1.27
 74
     0
 49
1.27
 74
     0
 49
-1.27
 74
     0
  0
LTYPE
  5
70
330
5
100
AcDbSymbolTableRecord
100
AcDbLinetypeTableRecord
  2
CENTER
 70
     0
  3
Center ____ _ ____ _ ____ _ ____ _ ____ _ ____
 72
    65
 73
     4
 40
10.16
 49
6.35
 74
     0
 49
-1.27
 74
     0
 49
1.27
 74
     0
 49
-1.27
 74
     0
  0
LTYPE
  5
71
330
5
100
AcDbSymbolTableRecord
100
AcDbLinetypeTableRecord
  2
CENTERX2
 70
     0
  3
Center (2x) ________  __  ________  __  _____
 72
    65
 73
     4
 40
20.32
 49
12.7
 74
     0
 49
-2.54
 74
     0
 49
2.54
 74
     0
 49
-2.54
 74
     0
  0
LTYPE
  5
72
330
5
100
AcDbSymbolTableRecord
100
AcDbLinetypeTableRecord
  2
DOT2
 70
     0
  3
Dot (.5x) ........................................
 72
    65
 73
     2
 40
0.635
 49
0.0
 74
     0
 49
-0.635
 74
     0
  0
ENDTAB
  0
TABLE
  2
LAYER
  5
2
330
0
100
AcDbSymbolTable
 70
     1
  0
LAYER
  5
10
330
2
100
AcDbSymbolTableRecord
100
AcDbLayerTableRecord
  2
0
 70
     0
 62
     7
  6
CONTINUOUS
  0
ENDTAB
  0
TABLE
  2
STYLE
  5
3
330
0
100
AcDbSymbolTable
 70
     1
  0
STYLE
  5
11
330
3
100
AcDbSymbolTableRecord
100
AcDbTextStyleTableRecord
  2
STANDARD
 70
     0
 40
0.0
 41
1.0
 50
0.0
 71
     0
 42
3.5
  3
txt
  4

  0
ENDTAB
  0
TABLE
  2
VIEW
  5
6
330
0
100
AcDbSymbolTable
 70
     0
  0
ENDTAB
  0
TABLE
  2
UCS
  5
7
330
0
100
AcDbSymbolTable
 70
     0
  0
ENDTAB
  0
TABLE
  2
APPID
  5
9
330
0
100
AcDbSymbolTable
 70
     1
  0
APPID
  5
12
330
9
100
AcDbSymbolTableRecord
100
AcDbRegAppTableRecord
  2
ACAD
 70
     0
  0
ENDTAB
  0
TABLE
  2
DIMSTYLE
  5
A
330
0
100
AcDbSymbolTable
 70
     1
  0
DIMSTYLE
105
27
330
A
100
AcDbSymbolTableRecord
100
AcDbDimStyleTableRecord
  2
ISO-25
 70
     0
  3

  4

  5

  6

  7

 40
1.0
 41
2.5
 42
0.625
 43
3.75
 44
1.25
 45
0.0
 46
0.0
 47
0.0
 48
0.0
140
2.5
141
2.5
142
0.0
143
0.0393700787
144
1.0
145
0.0
146
1.0
147
0.625
 71
     0
 72
     0
 73
     0
 74
     0
 75
     0
 76
     0
 77
     1
 78
     8
170
     0
171
     3
172
     1
173
     0
174
     0
175
     0
176
     0
177
     0
178
     0
270
     2
271
     2
272
     2
273
     2
274
     3
340
11
275
     0
280
     0
281
     0
282
     0
283
     0
284
     8
285
     0
286
     0
287
     3
288
     0
  0
ENDTAB
  0
TABLE
  2
BLOCK_RECORD
  5
1
330
0
100
AcDbSymbolTable
 70
     1
  0
BLOCK_RECORD
  5
1F
330
1
100
AcDbSymbolTableRecord
100
AcDbBlockTableRecord
  2
*MODEL_SPACE
  0
BLOCK_RECORD
  5
1B
330
1
100
AcDbSymbolTableRecord
100
AcDbBlockTableRecord
  2
*PAPER_SPACE
  0
BLOCK_RECORD
  5
23
330
1
100
AcDbSymbolTableRecord
100
AcDbBlockTableRecord
  2
*PAPER_SPACE0
  0
ENDTAB
  0
ENDSEC
  0
SECTION
  2
BLOCKS
  0
BLOCK
  5
20
330
1F
100
AcDbEntity
  8
0
100
AcDbBlockBegin
  2
*MODEL_SPACE
 70
     0
 10
0.0
 20
0.0
 30
0.0
  3
*MODEL_SPACE
  1

  0
ENDBLK
  5
21
330
1F
100
AcDbEntity
  8
0
100
AcDbBlockEnd
  0
BLOCK
  5
1C
330
1B
100
AcDbEntity
 67
     1
  8
0
100
AcDbBlockBegin
  2
*PAPER_SPACE
 70
     0
 10
0.0
 20
0.0
 30
0.0
  3
*PAPER_SPACE
  1

  0
ENDBLK
  5
1D
330
1B
100
AcDbEntity
 67
     1
  8
0
100
AcDbBlockEnd
  0
BLOCK
  5
24
330
23
100
AcDbEntity
  8
0
100
AcDbBlockBegin
  2
*PAPER_SPACE0
 70
     0
 10
0.0
 20
0.0
 30
0.0
  3
*PAPER_SPACE0
  1

  0
ENDBLK
  5
25
330
23
100
AcDbEntity
  8
0
100
AcDbBlockEnd
  0
ENDSEC
  0
SECTION
  2
ENTITIES
  0
CIRCLE
  5
73
330
1F
100
AcDbEntity
  8
0
  6
CONTINUOUS
 62
     7
100
AcDbCircle
 10
423.6896712752
 20
428.9339110604
 30
0.0
 40
1.349999999999966
  0
CIRCLE
  5
74
330
1F
100
AcDbEntity
  8
0
  6
CONTINUOUS
 62
     7
100
AcDbCircle
 10
503.6896712752
 20
428.9339110604
 30
0.0
 40
1.349999999999966
  0
ARC
  5
75
330
1F
100
AcDbEntity
  8
0
  6
CONTINUOUS
 62
     7
100
AcDbCircle
 10
429.9793453527
 20
426.9339110604
 30
0.0
 40
2.0
100
AcDbArc
 50
90.0
 51
162.3602986058
  0
ARC
  5
76
330
1F
100
AcDbEntity
  8
0
  6
CONTINUOUS
 62
     7
100
AcDbCircle
 10
423.6896712752
 20
428.9339110604
 30
0.0
 40
4.600000000000023
100
AcDbArc
 50
270.0
 51
342.3602986058
  0
LINE
  5
77
330
1F
100
AcDbEntity
  8
0
  6
CONTINUOUS
 62
     7
100
AcDbLine
 10
419.6896712752
 20
424.3339110604
 30
0.0
 11
423.6896712752
 21
424.3339110604
 31
0.0
  0
LINE
  5
78
330
1F
100
AcDbEntity
  8
0
  6
CONTINUOUS
 62
     7
100
AcDbLine
 10
419.6896712752
 20
426.6339110604
 30
0.0
 11
419.6896712752
 21
424.3339110604
 31
0.0
  0
LINE
  5
79
330
1F
100
AcDbEntity
  8
0
  6
CONTINUOUS
 62
     7
100
AcDbLine
 10
416.6896712752
 20
426.6339110604
 30
0.0
 11
419.6896712752
 21
426.6339110604
 31
0.0
  0
LINE
  5
7A
330
1F
100
AcDbEntity
  8
0
  6
CONTINUOUS
 62
     7
100
AcDbLine
 10
416.6896712752
 20
426.6339110604
 30
0.0
 11
416.6896712752
 21
430.6339110604
 31
0.0
  0
LINE
  5
7B
330
1F
100
AcDbEntity
  8
0
  6
CONTINUOUS
 62
     7
100
AcDbLine
 10
416.6896712752
 20
430.6339110604
 30
0.0
 11
419.6896712752
 21
430.6339110604
 31
0.0
  0
LINE
  5
7C
330
1F
100
AcDbEntity
  8
0
  6
CONTINUOUS
 62
     7
100
AcDbLine
 10
419.6896712752
 20
432.9339110604
 30
0.0
 11
419.6896712752
 21
430.6339110604
 31
0.0
  0
LINE
  5
7D
330
1F
100
AcDbEntity
  8
0
  6
CONTINUOUS
 62
     7
100
AcDbLine
 10
429.467449053
 20
432.9339110604
 30
0.0
 11
419.6896712752
 21
432.9339110604
 31
0.0
  0
LINE
  5
7E
330
1F
100
AcDbEntity
  8
0
  6
CONTINUOUS
 62
     7
100
AcDbLine
 10
429.467449053
 20
435.9339110604
 30
0.0
 11
429.467449053
 21
432.9339110604
 31
0.0
  0
LINE
  5
7F
330
1F
100
AcDbEntity
  8
0
  6
CONTINUOUS
 62
     7
100
AcDbLine
 10
439.2452268308
 20
435.9339110604
 30
0.0
 11
429.467449053
 21
435.9339110604
 31
0.0
  0
LINE
  5
80
330
1F
100
AcDbEntity
  8
0
  6
CONTINUOUS
 62
     7
100
AcDbLine
 10
439.2452268308
 20
432.9339110604
 30
0.0
 11
439.2452268308
 21
435.9339110604
 31
0.0
  0
LINE
  5
81
330
1F
100
AcDbEntity
  8
0
  6
CONTINUOUS
 62
     7
100
AcDbLine
 10
458.8007823864
 20
432.9339110604
 30
0.0
 11
439.2452268308
 21
432.9339110604
 31
0.0
  0
LINE
  5
82
330
1F
100
AcDbEntity
  8
0
  6
CONTINUOUS
 62
     7
100
AcDbLine
 10
458.8007823864
 20
435.9339110604
 30
0.0
 11
458.8007823864
 21
432.9339110604
 31
0.0
  0
LINE
  5
83
330
1F
100
AcDbEntity
  8
0
  6
CONTINUOUS
 62
     7
100
AcDbLine
 10
468.5785601641
 20
435.9339110604
 30
0.0
 11
458.8007823864
 21
435.9339110604
 31
0.0
  0
LINE
  5
84
330
1F
100
AcDbEntity
  8
0
  6
CONTINUOUS
 62
     7
100
AcDbLine
 10
468.5785601641
 20
432.9339110604
 30
0.0
 11
468.5785601641
 21
435.9339110604
 31
0.0
  0
LINE
  5
85
330
1F
100
AcDbEntity
  8
0
  6
CONTINUOUS
 62
     7
100
AcDbLine
 10
488.1341157197
 20
432.9339110604
 30
0.0
 11
468.5785601641
 21
432.9339110604
 31
0.0
  0
LINE
  5
86
330
1F
100
AcDbEntity
  8
0
  6
CONTINUOUS
 62
     7
100
AcDbLine
 10
488.1341157197
 20
435.9339110604
 30
0.0
 11
488.1341157197
 21
432.9339110604
 31
0.0
  0
LINE
  5
87
330
1F
100
AcDbEntity
  8
0
  6
CONTINUOUS
 62
     7
100
AcDbLine
 10
497.9118934975
 20
435.9339110604
 30
0.0
 11
488.1341157197
 21
435.9339110604
 31
0.0
  0
LINE
  5
88
330
1F
100
AcDbEntity
  8
0
  6
CONTINUOUS
 62
     7
100
AcDbLine
 10
497.9118934975
 20
432.9339110604
 30
0.0
 11
497.9118934975
 21
435.9339110604
 31
0.0
  0
LINE
  5
89
330
1F
100
AcDbEntity
  8
0
  6
CONTINUOUS
 62
     7
100
AcDbLine
 10
507.6896712752
 20
432.9339110604
 30
0.0
 11
497.9118934975
 21
432.9339110604
 31
0.0
  0
LINE
  5
8A
330
1F
100
AcDbEntity
  8
0
  6
CONTINUOUS
 62
     7
100
AcDbLine
 10
507.6896712752
 20
430.6339110604
 30
0.0
 11
507.6896712752
 21
432.9339110604
 31
0.0
  0
LINE
  5
8B
330
1F
100
AcDbEntity
  8
0
  6
CONTINUOUS
 62
     7
100
AcDbLine
 10
510.6896712752
 20
430.6339110604
 30
0.0
 11
507.6896712752
 21
430.6339110604
 31
0.0
  0
LINE
  5
8C
330
1F
100
AcDbEntity
  8
0
  6
CONTINUOUS
 62
     7
100
AcDbLine
 10
510.6896712752
 20
430.6339110604
 30
0.0
 11
510.6896712752
 21
426.6339110604
 31
0.0
  0
LINE
  5
8D
330
1F
100
AcDbEntity
  8
0
  6
CONTINUOUS
 62
     7
100
AcDbLine
 10
510.6896712752
 20
426.6339110604
 30
0.0
 11
507.6896712752
 21
426.6339110604
 31
0.0
  0
LINE
  5
8E
330
1F
100
AcDbEntity
  8
0
  6
CONTINUOUS
 62
     7
100
AcDbLine
 10
507.6896712752
 20
424.3339110604
 30
0.0
 11
507.6896712752
 21
426.6339110604
 31
0.0
  0
LINE
  5
8F
330
1F
100
AcDbEntity
  8
0
  6
CONTINUOUS
 62
     7
100
AcDbLine
 10
503.6896712752
 20
424.3339110604
 30
0.0
 11
507.6896712752
 21
424.3339110604
 31
0.0
  0
ARC
  5
90
330
1F
100
AcDbEntity
  8
0
  6
CONTINUOUS
 62
     7
100
AcDbCircle
 10
503.6896712752
 20
428.9339110604
 30
0.0
 40
4.600000000000023
100
AcDbArc
 50
197.6397013942
 51
270.0
  0
ARC
  5
91
330
1F
100
AcDbEntity
  8
0
  6
CONTINUOUS
 62
     7
100
AcDbCircle
 10
497.3999971978
 20
426.9339110604
 30
0.0
 40
2.000000000000027
100
AcDbArc
 50
17.6397013942
 51
90.0
  0
LINE
  5
92
330
1F
100
AcDbEntity
  8
0
  6
CONTINUOUS
 62
     7
100
AcDbLine
 10
497.3999971978
 20
428.9339110604
 30
0.0
 11
429.9793453527
 21
428.9339110604
 31
0.0
  0
CIRCLE
  5
93
330
1F
100
AcDbEntity
  8
0
  6
CONTINUOUS
 62
     7
100
AcDbCircle
 10
423.6896712752
 20
414.3339110604
 30
0.0
 40
1.350000000000023
  0
CIRCLE
  5
94
330
1F
100
AcDbEntity
  8
0
  6
CONTINUOUS
 62
     7
100
AcDbCircle
 10
503.6896712752
 20
414.3339110604
 30
0.0
 40
1.35000000000008
  0
ARC
  5
95
330
1F
100
AcDbEntity
  8
0
  6
CONTINUOUS
 62
     7
100
AcDbCircle
 10
429.9793453527
 20
412.3339110604
 30
0.0
 40
2.0
100
AcDbArc
 50
90.0
 51
162.3602986058
  0
ARC
  5
96
330
1F
100
AcDbEntity
  8
0
  6
CONTINUOUS
 62
     7
100
AcDbCircle
 10
423.6896712752
 20
414.3339110604
 30
0.0
 40
4.599999999999991
100
AcDbArc
 50
270.0
 51
342.3602986058
  0
LINE
  5
97
330
1F
100
AcDbEntity
  8
0
  6
CONTINUOUS
 62
     7
100
AcDbLine
 10
419.6896712752
 20
409.7339110604
 30
0.0
 11
423.6896712752
 21
409.7339110604
 31
0.0
  0
LINE
  5
98
330
1F
100
AcDbEntity
  8
0
  6
CONTINUOUS
 62
     7
100
AcDbLine
 10
419.6896712752
 20
412.0339110604
 30
0.0
 11
419.6896712752
 21
409.7339110604
 31
0.0
  0
LINE
  5
99
330
1F
100
AcDbEntity
  8
0
  6
CONTINUOUS
 62
     7
100
AcDbLine
 10
416.6896712752
 20
412.0339110604
 30
0.0
 11
419.6896712752
 21
412.0339110604
 31
0.0
  0
LINE
  5
9A
330
1F
100
AcDbEntity
  8
0
  6
CONTINUOUS
 62
     7
100
AcDbLine
 10
416.6896712752
 20
412.0339110604
 30
0.0
 11
416.6896712752
 21
416.0339110604
 31
0.0
  0
LINE
  5
9B
330
1F
100
AcDbEntity
  8
0
  6
CONTINUOUS
 62
     7
100
AcDbLine
 10
416.6896712752
 20
416.0339110604
 30
0.0
 11
419.6896712752
 21
416.0339110604
 31
0.0
  0
LINE
  5
9C
330
1F
100
AcDbEntity
  8
0
  6
CONTINUOUS
 62
     7
100
AcDbLine
 10
419.6896712752
 20
418.3339110604
 30
0.0
 11
419.6896712752
 21
416.0339110604
 31
0.0
  0
LINE
  5
9D
330
1F
100
AcDbEntity
  8
0
  6
CONTINUOUS
 62
     7
100
AcDbLine
 10
429.467449053
 20
418.3339110604
 30
0.0
 11
419.6896712752
 21
418.3339110604
 31
0.0
  0
LINE
  5
9E
330
1F
100
AcDbEntity
  8
0
  6
CONTINUOUS
 62
     7
100
AcDbLine
 10
429.467449053
 20
421.3339110604
 30
0.0
 11
429.467449053
 21
418.3339110604
 31
0.0
  0
LINE
  5
9F
330
1F
100
AcDbEntity
  8
0
  6
CONTINUOUS
 62
     7
100
AcDbLine
 10
439.2452268308
 20
421.3339110604
 30
0.0
 11
429.467449053
 21
421.3339110604
 31
0.0
  0
LINE
  5
A0
330
1F
100
AcDbEntity
  8
0
  6
CONTINUOUS
 62
     7
100
AcDbLine
 10
439.2452268308
 20
418.3339110604
 30
0.0
 11
439.2452268308
 21
421.3339110604
 31
0.0
  0
LINE
  5
A1
330
1F
100
AcDbEntity
  8
0
  6
CONTINUOUS
 62
     7
100
AcDbLine
 10
458.8007823864
 20
418.3339110604
 30
0.0
 11
439.2452268308
 21
418.3339110604
 31
0.0
  0
LINE
  5
A2
330
1F
100
AcDbEntity
  8
0
  6
CONTINUOUS
 62
     7
100
AcDbLine
 10
458.8007823864
 20
421.3339110604
 30
0.0
 11
458.8007823864
 21
418.3339110604
 31
0.0
  0
LINE
  5
A3
330
1F
100
AcDbEntity
  8
0
  6
CONTINUOUS
 62
     7
100
AcDbLine
 10
468.5785601641
 20
421.3339110604
 30
0.0
 11
458.8007823864
 21
421.3339110604
 31
0.0
  0
LINE
  5
A4
330
1F
100
AcDbEntity
  8
0
  6
CONTINUOUS
 62
     7
100
AcDbLine
 10
468.5785601641
 20
418.3339110604
 30
0.0
 11
468.5785601641
 21
421.3339110604
 31
0.0
  0
LINE
  5
A5
330
1F
100
AcDbEntity
  8
0
  6
CONTINUOUS
 62
     7
100
AcDbLine
 10
488.1341157197
 20
418.3339110604
 30
0.0
 11
468.5785601641
 21
418.3339110604
 31
0.0
  0
LINE
  5
A6
330
1F
100
AcDbEntity
  8
0
  6
CONTINUOUS
 62
     7
100
AcDbLine
 10
488.1341157197
 20
421.3339110604
 30
0.0
 11
488.1341157197
 21
418.3339110604
 31
0.0
  0
LINE
  5
A7
330
1F
100
AcDbEntity
  8
0
  6
CONTINUOUS
 62
     7
100
AcDbLine
 10
497.9118934975
 20
421.3339110604
 30
0.0
 11
488.1341157197
 21
421.3339110604
 31
0.0
  0
LINE
  5
A8
330
1F
100
AcDbEntity
  8
0
  6
CONTINUOUS
 62
     7
100
AcDbLine
 10
497.9118934975
 20
418.3339110604
 30
0.0
 11
497.9118934975
 21
421.3339110604
 31
0.0
  0
LINE
  5
A9
330
1F
100
AcDbEntity
  8
0
  6
CONTINUOUS
 62
     7
100
AcDbLine
 10
507.6896712752
 20
418.3339110604
 30
0.0
 11
497.9118934975
 21
418.3339110604
 31
0.0
  0
LINE
  5
AA
330
1F
100
AcDbEntity
  8
0
  6
CONTINUOUS
 62
     7
100
AcDbLine
 10
507.6896712752
 20
416.0339110604
 30
0.0
 11
507.6896712752
 21
418.3339110604
 31
0.0
  0
LINE
  5
AB
330
1F
100
AcDbEntity
  8
0
  6
CONTINUOUS
 62
     7
100
AcDbLine
 10
510.6896712752
 20
416.0339110604
 30
0.0
 11
507.6896712752
 21
416.0339110604
 31
0.0
  0
LINE
  5
AC
330
1F
100
AcDbEntity
  8
0
  6
CONTINUOUS
 62
     7
100
AcDbLine
 10
510.6896712752
 20
416.0339110604
 30
0.0
 11
510.6896712752
 21
412.0339110604
 31
0.0
  0
LINE
  5
AD
330
1F
100
AcDbEntity
  8
0
  6
CONTINUOUS
 62
     7
100
AcDbLine
 10
510.6896712752
 20
412.0339110604
 30
0.0
 11
507.6896712752
 21
412.0339110604
 31
0.0
  0
LINE
  5
AE
330
1F
100
AcDbEntity
  8
0
  6
CONTINUOUS
 62
     7
100
AcDbLine
 10
507.6896712752
 20
409.7339110604
 30
0.0
 11
507.6896712752
 21
412.0339110604
 31
0.0
  0
LINE
  5
AF
330
1F
100
AcDbEntity
  8
0
  6
CONTINUOUS
 62
     7
100
AcDbLine
 10
503.6896712752
 20
409.7339110604
 30
0.0
 11
507.6896712752
 21
409.7339110604
 31
0.0
  0
ARC
  5
B0
330
1F
100
AcDbEntity
  8
0
  6
CONTINUOUS
 62
     7
100
AcDbCircle
 10
503.6896712752
 20
414.3339110604
 30
0.0
 40
4.600000000000027
100
AcDbArc
 50
197.6397013942
 51
270.0
  0
ARC
  5
B1
330
1F
100
AcDbEntity
  8
0
  6
CONTINUOUS
 62
     7
100
AcDbCircle
 10
497.3999971978
 20
412.3339110604
 30
0.0
 40
2.0
100
AcDbArc
 50
17.6397013942
 51
90.0
  0
LINE
  5
B2
330
1F
100
AcDbEntity
  8
0
  6
CONTINUOUS
 62
     7
100
AcDbLine
 10
497.3999971978
 20
414.3339110604
 30
0.0
 11
429.9793453527
 21
414.3339110604
 31
0.0
  0
LINE
  5
B3
330
1F
100
AcDbEntity
  8
0
  6
CONTINUOUS
 62
     7
100
AcDbLine
 10
460.5896712752
 20
450.5339110604
 30
0.0
 11
460.5896712752
 21
447.5339110604
 31
0.0
  0
LINE
  5
B4
330
1F
100
AcDbEntity
  8
0
  6
CONTINUOUS
 62
     7
100
AcDbLine
 10
460.5896712752
 20
450.5339110604
 30
0.0
 11
464.5896712752
 21
450.5339110604
 31
0.0
  0
LINE
  5
B5
330
1F
100
AcDbEntity
  8
0
  6
CONTINUOUS
 62
     7
100
AcDbLine
 10
464.5896712752
 20
450.5339110604
 30
0.0
 11
464.5896712752
 21
447.5339110604
 31
0.0
  0
LINE
  5
B6
330
1F
100
AcDbEntity
  8
0
  6
CONTINUOUS
 62
     7
100
AcDbLine
 10
464.5896712752
 20
447.5339110604
 30
0.0
 11
466.8896712752
 21
447.5339110604
 31
0.0
  0
LINE
  5
B7
330
1F
100
AcDbEntity
  8
0
  6
CONTINUOUS
 62
     7
100
AcDbLine
 10
458.2896712752
 20
438.9339110604
 30
0.0
 11
458.2896712752
 21
441.2339110604
 31
0.0
  0
LINE
  5
B8
330
1F
100
AcDbEntity
  8
0
  6
CONTINUOUS
 62
     7
100
AcDbLine
 10
455.2896712752
 20
441.2339110604
 30
0.0
 11
458.2896712752
 21
441.2339110604
 31
0.0
  0
LINE
  5
B9
330
1F
100
AcDbEntity
  8
0
  6
CONTINUOUS
 62
     7
100
AcDbLine
 10
458.2896712752
 20
447.5339110604
 30
0.0
 11
460.5896712752
 21
447.5339110604
 31
0.0
  0
LINE
  5
BA
330
1F
100
AcDbEntity
  8
0
  6
CONTINUOUS
 62
     7
100
AcDbLine
 10
455.2896712752
 20
441.2339110604
 30
0.0
 11
455.2896712752
 21
445.2339110604
 31
0.0
  0
LINE
  5
BB
330
1F
100
AcDbEntity
  8
0
  6
CONTINUOUS
 62
     7
100
AcDbLine
 10
455.2896712752
 20
445.2339110604
 30
0.0
 11
458.2896712752
 21
445.2339110604
 31
0.0
  0
CIRCLE
  5
BC
330
1F
100
AcDbEntity
  8
0
  6
CONTINUOUS
 62
     7
100
AcDbCircle
 10
462.2896712752
 20
443.5339110604
 30
0.0
 40
1.349999999999966
  0
ARC
  5
BD
330
1F
100
AcDbEntity
  8
0
  6
CONTINUOUS
 62
     7
100
AcDbCircle
 10
462.2896712752
 20
443.5339110604
 30
0.0
 40
4.600000000000023
100
AcDbArc
 50
270.0
 51
0.0
  0
LINE
  5
BE
330
1F
100
AcDbEntity
  8
0
  6
CONTINUOUS
 62
     7
100
AcDbLine
 10
466.8896712752
 20
447.5339110604
 30
0.0
 11
466.8896712752
 21
443.5339110604
 31
0.0
  0
LINE
  5
BF
330
1F
100
AcDbEntity
  8
0
  6
CONTINUOUS
 62
     7
100
AcDbLine
 10
462.2896712752
 20
438.9339110604
 30
0.0
 11
458.2896712752
 21
438.9339110604
 31
0.0
  0
LINE
  5
C0
330
1F
100
AcDbEntity
  8
0
  6
CONTINUOUS
 62
     7
100
AcDbLine
 10
458.2896712752
 20
445.2339110604
 30
0.0
 11
458.2896712752
 21
447.5339110604
 31
0.0
  0
CIRCLE
  5
C1
330
1F
100
AcDbEntity
  8
0
  6
CONTINUOUS
 62
     7
100
AcDbCircle
 10
506.0896712752
 20
443.5339110604
 30
0.0
 40
1.349999999999909
  0
LINE
  5
C2
330
1F
100
AcDbEntity
  8
0
  6
CONTINUOUS
 62
     7
100
AcDbLine
 10
504.3896712752
 20
447.5339110604
 30
0.0
 11
502.0896712752
 21
447.5339110604
 31
0.0
  0
LINE
  5
C3
330
1F
100
AcDbEntity
  8
0
  6
CONTINUOUS
 62
     7
100
AcDbLine
 10
504.3896712752
 20
450.5339110604
 30
0.0
 11
504.3896712752
 21
447.5339110604
 31
0.0
  0
LINE
  5
C4
330
1F
100
AcDbEntity
  8
0
  6
CONTINUOUS
 62
     7
100
AcDbLine
 10
504.3896712752
 20
450.5339110604
 30
0.0
 11
508.3896712752
 21
450.5339110604
 31
0.0
  0
LINE
  5
C5
330
1F
100
AcDbEntity
  8
0
  6
CONTINUOUS
 62
     7
100
AcDbLine
 10
508.3896712752
 20
450.5339110604
 30
0.0
 11
508.3896712752
 21
447.5339110604
 31
0.0
  0
LINE
  5
C6
330
1F
100
AcDbEntity
  8
0
  6
CONTINUOUS
 62
     7
100
AcDbLine
 10
510.6896712752
 20
447.5339110604
 30
0.0
 11
508.3896712752
 21
447.5339110604
 31
0.0
  0
LINE
  5
C7
330
1F
100
AcDbEntity
  8
0
  6
CONTINUOUS
 62
     7
100
AcDbLine
 10
510.6896712752
 20
443.5339110604
 30
0.0
 11
510.6896712752
 21
447.5339110604
 31
0.0
  0
ARC
  5
C8
330
1F
100
AcDbEntity
  8
0
  6
CONTINUOUS
 62
     7
100
AcDbCircle
 10
506.0896712752
 20
443.5339110604
 30
0.0
 40
4.60000000000008
100
AcDbArc
 50
270.0
 51
0.0
  0
LINE
  5
C9
330
1F
100
AcDbEntity
  8
0
  6
CONTINUOUS
 62
     7
100
AcDbLine
 10
502.0896712752
 20
438.9339110604
 30
0.0
 11
506.0896712752
 21
438.9339110604
 31
0.0
  0
LINE
  5
CA
330
1F
100
AcDbEntity
  8
0
  6
CONTINUOUS
 62
     7
100
AcDbLine
 10
502.0896712752
 20
441.2339110604
 30
0.0
 11
502.0896712752
 21
438.9339110604
 31
0.0
  0
LINE
  5
CB
330
1F
100
AcDbEntity
  8
0
  6
CONTINUOUS
 62
     7
100
AcDbLine
 10
499.0896712752
 20
441.2339110604
 30
0.0
 11
502.0896712752
 21
441.2339110604
 31
0.0
  0
LINE
  5
CC
330
1F
100
AcDbEntity
  8
0
  6
CONTINUOUS
 62
     7
100
AcDbLine
 10
499.0896712752
 20
445.2339110604
 30
0.0
 11
502.0896712752
 21
445.2339110604
 31
0.0
  0
LINE
  5
CD
330
1F
100
AcDbEntity
  8
0
  6
CONTINUOUS
 62
     7
100
AcDbLine
 10
502.0896712752
 20
447.5339110604
 30
0.0
 11
502.0896712752
 21
445.2339110604
 31
0.0
  0
LINE
  5
CE
330
1F
100
AcDbEntity
  8
0
  6
CONTINUOUS
 62
     7
100
AcDbLine
 10
499.0896712752
 20
441.2339110604
 30
0.0
 11
499.0896712752
 21
445.2339110604
 31
0.0
  0
CIRCLE
  5
CF
330
1F
100
AcDbEntity
  8
0
  6
CONTINUOUS
 62
     7
100
AcDbCircle
 10
491.4896712752
 20
443.5339110604
 30
0.0
 40
1.350000000000023
  0
LINE
  5
D0
330
1F
100
AcDbEntity
  8
0
  6
CONTINUOUS
 62
     7
100
AcDbLine
 10
489.7896712752
 20
447.5339110604
 30
0.0
 11
487.4896712752
 21
447.5339110604
 31
0.0
  0
LINE
  5
D1
330
1F
100
AcDbEntity
  8
0
  6
CONTINUOUS
 62
     7
100
AcDbLine
 10
489.7896712752
 20
450.5339110604
 30
0.0
 11
489.7896712752
 21
447.5339110604
 31
0.0
  0
LINE
  5
D2
330
1F
100
AcDbEntity
  8
0
  6
CONTINUOUS
 62
     7
100
AcDbLine
 10
489.7896712752
 20
450.5339110604
 30
0.0
 11
493.7896712752
 21
450.5339110604
 31
0.0
  0
LINE
  5
D3
330
1F
100
AcDbEntity
  8
0
  6
CONTINUOUS
 62
     7
100
AcDbLine
 10
493.7896712752
 20
450.5339110604
 30
0.0
 11
493.7896712752
 21
447.5339110604
 31
0.0
  0
LINE
  5
D4
330
1F
100
AcDbEntity
  8
0
  6
CONTINUOUS
 62
     7
100
AcDbLine
 10
496.0896712752
 20
447.5339110604
 30
0.0
 11
493.7896712752
 21
447.5339110604
 31
0.0
  0
LINE
  5
D5
330
1F
100
AcDbEntity
  8
0
  6
CONTINUOUS
 62
     7
100
AcDbLine
 10
496.0896712752
 20
443.5339110604
 30
0.0
 11
496.0896712752
 21
447.5339110604
 31
0.0
  0
ARC
  5
D6
330
1F
100
AcDbEntity
  8
0
  6
CONTINUOUS
 62
     7
100
AcDbCircle
 10
491.4896712752
 20
443.5339110604
 30
0.0
 40
4.600000000000023
100
AcDbArc
 50
270.0
 51
0.0
  0
LINE
  5
D7
330
1F
100
AcDbEntity
  8
0
  6
CONTINUOUS
 62
     7
100
AcDbLine
 10
487.4896712752
 20
438.9339110604
 30
0.0
 11
491.4896712752
 21
438.9339110604
 31
0.0
  0
LINE
  5
D8
330
1F
100
AcDbEntity
  8
0
  6
CONTINUOUS
 62
     7
100
AcDbLine
 10
487.4896712752
 20
441.2339110604
 30
0.0
 11
487.4896712752
 21
438.9339110604
 31
0.0
  0
LINE
  5
D9
330
1F
100
AcDbEntity
  8
0
  6
CONTINUOUS
 62
     7
100
AcDbLine
 10
484.4896712752
 20
441.2339110604
 30
0.0
 11
487.4896712752
 21
441.2339110604
 31
0.0
  0
LINE
  5
DA
330
1F
100
AcDbEntity
  8
0
  6
CONTINUOUS
 62
     7
100
AcDbLine
 10
484.4896712752
 20
441.2339110604
 30
0.0
 11
484.4896712752
 21
445.2339110604
 31
0.0
  0
LINE
  5
DB
330
1F
100
AcDbEntity
  8
0
  6
CONTINUOUS
 62
     7
100
AcDbLine
 10
484.4896712752
 20
445.2339110604
 30
0.0
 11
487.4896712752
 21
445.2339110604
 31
0.0
  0
LINE
  5
DC
330
1F
100
AcDbEntity
  8
0
  6
CONTINUOUS
 62
     7
100
AcDbLine
 10
487.4896712752
 20
447.5339110604
 30
0.0
 11
487.4896712752
 21
445.2339110604
 31
0.0
  0
CIRCLE
  5
DD
330
1F
100
AcDbEntity
  8
0
  6
CONTINUOUS
 62
     7
100
AcDbCircle
 10
476.8896712752
 20
443.5339110604
 30
0.0
 40
1.35000000000008
  0
LINE
  5
DE
330
1F
100
AcDbEntity
  8
0
  6
CONTINUOUS
 62
     7
100
AcDbLine
 10
475.1896712752
 20
447.5339110604
 30
0.0
 11
472.8896712752
 21
447.5339110604
 31
0.0
  0
LINE
  5
DF
330
1F
100
AcDbEntity
  8
0
  6
CONTINUOUS
 62
     7
100
AcDbLine
 10
475.1896712752
 20
450.5339110604
 30
0.0
 11
475.1896712752
 21
447.5339110604
 31
0.0
  0
LINE
  5
E0
330
1F
100
AcDbEntity
  8
0
  6
CONTINUOUS
 62
     7
100
AcDbLine
 10
475.1896712752
 20
450.5339110604
 30
0.0
 11
479.1896712752
 21
450.5339110604
 31
0.0
  0
LINE
  5
E1
330
1F
100
AcDbEntity
  8
0
  6
CONTINUOUS
 62
     7
100
AcDbLine
 10
479.1896712752
 20
450.5339110604
 30
0.0
 11
479.1896712752
 21
447.5339110604
 31
0.0
  0
LINE
  5
E2
330
1F
100
AcDbEntity
  8
0
  6
CONTINUOUS
 62
     7
100
AcDbLine
 10
481.4896712752
 20
447.5339110604
 30
0.0
 11
479.1896712752
 21
447.5339110604
 31
0.0
  0
LINE
  5
E3
330
1F
100
AcDbEntity
  8
0
  6
CONTINUOUS
 62
     7
100
AcDbLine
 10
481.4896712752
 20
443.5339110604
 30
0.0
 11
481.4896712752
 21
447.5339110604
 31
0.0
  0
ARC
  5
E4
330
1F
100
AcDbEntity
  8
0
  6
CONTINUOUS
 62
     7
100
AcDbCircle
 10
476.8896712752
 20
443.5339110604
 30
0.0
 40
4.600000000000023
100
AcDbArc
 50
270.0
 51
0.0
  0
LINE
  5
E5
330
1F
100
AcDbEntity
  8
0
  6
CONTINUOUS
 62
     7
100
AcDbLine
 10
472.8896712752
 20
438.9339110604
 30
0.0
 11
476.8896712752
 21
438.9339110604
 31
0.0
  0
LINE
  5
E6
330
1F
100
AcDbEntity
  8
0
  6
CONTINUOUS
 62
     7
100
AcDbLine
 10
472.8896712752
 20
441.2339110604
 30
0.0
 11
472.8896712752
 21
438.9339110604
 31
0.0
  0
LINE
  5
E7
330
1F
100
AcDbEntity
  8
0
  6
CONTINUOUS
 62
     7
100
AcDbLine
 10
469.8896712752
 20
441.2339110604
 30
0.0
 11
472.8896712752
 21
441.2339110604
 31
0.0
  0
LINE
  5
E8
330
1F
100
AcDbEntity
  8
0
  6
CONTINUOUS
 62
     7
100
AcDbLine
 10
469.8896712752
 20
441.2339110604
 30
0.0
 11
469.8896712752
 21
445.2339110604
 31
0.0
  0
LINE
  5
E9
330
1F
100
AcDbEntity
  8
0
  6
CONTINUOUS
 62
     7
100
AcDbLine
 10
469.8896712752
 20
445.2339110604
 30
0.0
 11
472.8896712752
 21
445.2339110604
 31
0.0
  0
LINE
  5
EA
330
1F
100
AcDbEntity
  8
0
  6
CONTINUOUS
 62
     7
100
AcDbLine
 10
472.8896712752
 20
447.5339110604
 30
0.0
 11
472.8896712752
 21
445.2339110604
 31
0.0
  0
LINE
  5
EB
330
1F
100
AcDbEntity
  8
0
  6
CONTINUOUS
 62
     7
100
AcDbLine
 10
407.0896712752
 20
412.8328003605
 30
0.0
 11
409.6896712752
 21
411.3316896606
 31
0.0
  0
LINE
  5
EC
330
1F
100
AcDbEntity
  8
0
  6
CONTINUOUS
 62
     7
100
AcDbLine
 10
409.6896712752
 20
411.3316896606
 30
0.0
 11
412.2896712752
 21
412.8328003605
 31
0.0
  0
LINE
  5
ED
330
1F
100
AcDbEntity
  8
0
  6
CONTINUOUS
 62
     7
100
AcDbLine
 10
412.2896712752
 20
412.8328003605
 30
0.0
 11
412.2896712752
 21
415.8350217603
 31
0.0
  0
LINE
  5
EE
330
1F
100
AcDbEntity
  8
0
  6
CONTINUOUS
 62
     7
100
AcDbLine
 10
412.2896712752
 20
415.8350217603
 30
0.0
 11
409.6896712752
 21
417.3361324602
 31
0.0
  0
LINE
  5
EF
330
1F
100
AcDbEntity
  8
0
  6
CONTINUOUS
 62
     7
100
AcDbLine
 10
409.6896712752
 20
417.3361324602
 30
0.0
 11
407.0896712752
 21
415.8350217603
 31
0.0
  0
LINE
  5
F0
330
1F
100
AcDbEntity
  8
0
  6
CONTINUOUS
 62
     7
100
AcDbLine
 10
407.0896712752
 20
415.8350217603
 30
0.0
 11
407.0896712752
 21
412.8328003605
 31
0.0
  0
LINE
  5
F1
330
1F
100
AcDbEntity
  8
0
  6
CONTINUOUS
 62
     7
100
AcDbLine
 10
413.6896712752
 20
409.7339110604
 30
0.0
 11
413.6896712752
 21
418.3339110604
 31
0.0
  0
LINE
  5
F2
330
1F
100
AcDbEntity
  8
0
  6
CONTINUOUS
 62
     7
100
AcDbLine
 10
409.6896712752
 20
409.7339110604
 30
0.0
 11
413.6896712752
 21
409.7339110604
 31
0.0
  0
ARC
  5
F3
330
1F
100
AcDbEntity
  8
0
  6
CONTINUOUS
 62
     7
100
AcDbCircle
 10
409.6896712752
 20
414.3339110604
 30
0.0
 40
4.599999999999966
100
AcDbArc
 50
180.0
 51
270.0
  0
LINE
  5
F4
330
1F
100
AcDbEntity
  8
0
  6
CONTINUOUS
 62
     7
100
AcDbLine
 10
405.0896712752
 20
418.3339110604
 30
0.0
 11
405.0896712752
 21
414.3339110604
 31
0.0
  0
LINE
  5
F5
330
1F
100
AcDbEntity
  8
0
  6
CONTINUOUS
 62
     7
100
AcDbLine
 10
413.6896712752
 20
418.3339110604
 30
0.0
 11
405.0896712752
 21
418.3339110604
 31
0.0
  0
LINE
  5
F6
330
1F
100
AcDbEntity
  8
0
  6
CONTINUOUS
 62
     7
100
AcDbLine
 10
407.0896712752
 20
447.6328003605
 30
0.0
 11
409.6896712752
 21
446.1316896606
 31
0.0
  0
LINE
  5
F7
330
1F
100
AcDbEntity
  8
0
  6
CONTINUOUS
 62
     7
100
AcDbLine
 10
409.6896712752
 20
446.1316896606
 30
0.0
 11
412.2896712752
 21
447.6328003605
 31
0.0
  0
LINE
  5
F8
330
1F
100
AcDbEntity
  8
0
  6
CONTINUOUS
 62
     7
100
AcDbLine
 10
412.2896712752
 20
447.6328003605
 30
0.0
 11
412.2896712752
 21
450.6350217603
 31
0.0
  0
LINE
  5
F9
330
1F
100
AcDbEntity
  8
0
  6
CONTINUOUS
 62
     7
100
AcDbLine
 10
412.2896712752
 20
450.6350217603
 30
0.0
 11
409.6896712752
 21
452.1361324602
 31
0.0
  0
LINE
  5
FA
330
1F
100
AcDbEntity
  8
0
  6
CONTINUOUS
 62
     7
100
AcDbLine
 10
409.6896712752
 20
452.1361324602
 30
0.0
 11
407.0896712752
 21
450.6350217603
 31
0.0
  0
LINE
  5
FB
330
1F
100
AcDbEntity
  8
0
  6
CONTINUOUS
 62
     7
100
AcDbLine
 10
407.0896712752
 20
450.6350217603
 30
0.0
 11
407.0896712752
 21
447.6328003605
 31
0.0
  0
LINE
  5
FC
330
1F
100
AcDbEntity
  8
0
  6
CONTINUOUS
 62
     7
100
AcDbLine
 10
413.6896712752
 20
444.5339110604
 30
0.0
 11
413.6896712752
 21
453.1339110604
 31
0.0
  0
LINE
  5
FD
330
1F
100
AcDbEntity
  8
0
  6
CONTINUOUS
 62
     7
100
AcDbLine
 10
409.6896712752
 20
444.5339110604
 30
0.0
 11
413.6896712752
 21
444.5339110604
 31
0.0
  0
ARC
  5
FE
330
1F
100
AcDbEntity
  8
0
  6
CONTINUOUS
 62
     7
100
AcDbCircle
 10
409.6896712752
 20
449.1339110604
 30
0.0
 40
4.599999999999966
100
AcDbArc
 50
180.0
 51
270.0
  0
LINE
  5
FF
330
1F
100
AcDbEntity
  8
0
  6
CONTINUOUS
 62
     7
100
AcDbLine
 10
405.0896712752
 20
453.1339110604
 30
0.0
 11
405.0896712752
 21
449.1339110604
 31
0.0
  0
LINE
  5
100
330
1F
100
AcDbEntity
  8
0
  6
CONTINUOUS
 62
     7
100
AcDbLine
 10
413.6896712752
 20
453.1339110604
 30
0.0
 11
405.0896712752
 21
453.1339110604
 31
0.0
  0
LINE
  5
101
330
1F
100
AcDbEntity
  8
0
  6
CONTINUOUS
 62
     7
100
AcDbLine
 10
407.0896712752
 20
424.4328003605
 30
0.0
 11
409.6896712752
 21
422.9316896606
 31
0.0
  0
LINE
  5
102
330
1F
100
AcDbEntity
  8
0
  6
CONTINUOUS
 62
     7
100
AcDbLine
 10
409.6896712752
 20
422.9316896606
 30
0.0
 11
412.2896712752
 21
424.4328003605
 31
0.0
  0
LINE
  5
103
330
1F
100
AcDbEntity
  8
0
  6
CONTINUOUS
 62
     7
100
AcDbLine
 10
412.2896712752
 20
424.4328003605
 30
0.0
 11
412.2896712752
 21
427.4350217603
 31
0.0
  0
LINE
  5
104
330
1F
100
AcDbEntity
  8
0
  6
CONTINUOUS
 62
     7
100
AcDbLine
 10
412.2896712752
 20
427.4350217603
 30
0.0
 11
409.6896712752
 21
428.9361324602
 31
0.0
  0
LINE
  5
105
330
1F
100
AcDbEntity
  8
0
  6
CONTINUOUS
 62
     7
100
AcDbLine
 10
409.6896712752
 20
428.9361324602
 30
0.0
 11
407.0896712752
 21
427.4350217603
 31
0.0
  0
LINE
  5
106
330
1F
100
AcDbEntity
  8
0
  6
CONTINUOUS
 62
     7
100
AcDbLine
 10
407.0896712752
 20
427.4350217603
 30
0.0
 11
407.0896712752
 21
424.4328003605
 31
0.0
  0
LINE
  5
107
330
1F
100
AcDbEntity
  8
0
  6
CONTINUOUS
 62
     7
100
AcDbLine
 10
413.6896712752
 20
421.3339110604
 30
0.0
 11
413.6896712752
 21
429.9339110604
 31
0.0
  0
LINE
  5
108
330
1F
100
AcDbEntity
  8
0
  6
CONTINUOUS
 62
     7
100
AcDbLine
 10
409.6896712752
 20
421.3339110604
 30
0.0
 11
413.6896712752
 21
421.3339110604
 31
0.0
  0
ARC
  5
109
330
1F
100
AcDbEntity
  8
0
  6
CONTINUOUS
 62
     7
100
AcDbCircle
 10
409.6896712752
 20
425.9339110604
 30
0.0
 40
4.600000000000023
100
AcDbArc
 50
180.0
 51
270.0
  0
LINE
  5
10A
330
1F
100
AcDbEntity
  8
0
  6
CONTINUOUS
 62
     7
100
AcDbLine
 10
405.0896712752
 20
429.9339110604
 30
0.0
 11
405.0896712752
 21
425.9339110604
 31
0.0
  0
LINE
  5
10B
330
1F
100
AcDbEntity
  8
0
  6
CONTINUOUS
 62
     7
100
AcDbLine
 10
413.6896712752
 20
429.9339110604
 30
0.0
 11
405.0896712752
 21
429.9339110604
 31
0.0
  0
LINE
  5
10C
330
1F
100
AcDbEntity
  8
0
  6
CONTINUOUS
 62
     7
100
AcDbLine
 10
407.0896712752
 20
436.0328003605
 30
0.0
 11
409.6896712752
 21
434.5316896606
 31
0.0
  0
LINE
  5
10D
330
1F
100
AcDbEntity
  8
0
  6
CONTINUOUS
 62
     7
100
AcDbLine
 10
409.6896712752
 20
434.5316896606
 30
0.0
 11
412.2896712752
 21
436.0328003605
 31
0.0
  0
LINE
  5
10E
330
1F
100
AcDbEntity
  8
0
  6
CONTINUOUS
 62
     7
100
AcDbLine
 10
412.2896712752
 20
436.0328003605
 30
0.0
 11
412.2896712752
 21
439.0350217603
 31
0.0
  0
LINE
  5
10F
330
1F
100
AcDbEntity
  8
0
  6
CONTINUOUS
 62
     7
100
AcDbLine
 10
412.2896712752
 20
439.0350217603
 30
0.0
 11
409.6896712752
 21
440.5361324602
 31
0.0
  0
LINE
  5
110
330
1F
100
AcDbEntity
  8
0
  6
CONTINUOUS
 62
     7
100
AcDbLine
 10
409.6896712752
 20
440.5361324602
 30
0.0
 11
407.0896712752
 21
439.0350217603
 31
0.0
  0
LINE
  5
111
330
1F
100
AcDbEntity
  8
0
  6
CONTINUOUS
 62
     7
100
AcDbLine
 10
407.0896712752
 20
439.0350217603
 30
0.0
 11
407.0896712752
 21
436.0328003605
 31
0.0
  0
LINE
  5
112
330
1F
100
AcDbEntity
  8
0
  6
CONTINUOUS
 62
     7
100
AcDbLine
 10
413.6896712752
 20
432.9339110604
 30
0.0
 11
413.6896712752
 21
441.5339110604
 31
0.0
  0
LINE
  5
113
330
1F
100
AcDbEntity
  8
0
  6
CONTINUOUS
 62
     7
100
AcDbLine
 10
409.6896712752
 20
432.9339110604
 30
0.0
 11
413.6896712752
 21
432.9339110604
 31
0.0
  0
ARC
  5
114
330
1F
100
AcDbEntity
  8
0
  6
CONTINUOUS
 62
     7
100
AcDbCircle
 10
409.6896712752
 20
437.5339110604
 30
0.0
 40
4.599999999999966
100
AcDbArc
 50
180.0
 51
270.0
  0
LINE
  5
115
330
1F
100
AcDbEntity
  8
0
  6
CONTINUOUS
 62
     7
100
AcDbLine
 10
405.0896712752
 20
441.5339110604
 30
0.0
 11
405.0896712752
 21
437.5339110604
 31
0.0
  0
LINE
  5
116
330
1F
100
AcDbEntity
  8
0
  6
CONTINUOUS
 62
     7
100
AcDbLine
 10
413.6896712752
 20
441.5339110604
 30
0.0
 11
405.0896712752
 21
441.5339110604
 31
0.0
  0
LINE
  5
117
330
1F
100
AcDbEntity
  8
0
  6
CONTINUOUS
 62
     7
100
AcDbLine
 10
325.6896712752
 20
203.7339110604
 30
0.0
 11
413.6896712752
 21
203.7339110604
 31
0.0
  0
LINE
  5
118
330
1F
100
AcDbEntity
  8
0
  6
CONTINUOUS
 62
     7
100
AcDbLine
 10
325.6896712752
 20
297.7339110604
 30
0.0
 11
325.6896712752
 21
203.7339110604
 31
0.0
  0
LINE
  5
119
330
1F
100
AcDbEntity
  8
0
  6
CONTINUOUS
 62
     7
100
AcDbLine
 10
351.6838856865
 20
286.7339110604
 30
0.0
 11
351.6838856865
 21
214.4339110604
 31
0.0
  0
LINE
  5
11A
330
1F
100
AcDbEntity
  8
0
  6
CONTINUOUS
 62
     7
100
AcDbLine
 10
376.8838856865
 20
214.4339110604
 30
0.0
 11
376.8838856865
 21
286.7339110604
 31
0.0
  0
LINE
  5
11B
330
1F
100
AcDbEntity
  8
0
  6
CONTINUOUS
 62
     7
100
AcDbLine
 10
413.6896712752
 20
203.7339110604
 30
0.0
 11
413.6896712752
 21
297.7339110604
 31
0.0
  0
LINE
  5
11C
330
1F
100
AcDbEntity
  8
0
  6
CONTINUOUS
 62
     7
100
AcDbLine
 10
351.6838856865
 20
214.4339110604
 30
0.0
 11
376.8838856865
 21
214.4339110604
 31
0.0
  0
LINE
  5
11D
330
1F
100
AcDbEntity
  8
0
  6
CONTINUOUS
 62
     7
100
AcDbLine
 10
376.8838856865
 20
286.7339110604
 30
0.0
 11
351.6838856865
 21
286.7339110604
 31
0.0
  0
CIRCLE
  5
11E
330
1F
100
AcDbEntity
  8
0
  6
CONTINUOUS
 62
     7
100
AcDbCircle
 10
386.8396712752
 20
220.3089110604
 30
0.0
 40
1.595000000000027
  0
CIRCLE
  5
11F
330
1F
100
AcDbEntity
  8
0
  6
CONTINUOUS
 62
     7
100
AcDbCircle
 10
329.6896712752
 20
293.7339110604
 30
0.0
 40
1.349999999999966
  0
CIRCLE
  5
120
330
1F
100
AcDbEntity
  8
0
  6
CONTINUOUS
 62
     7
100
AcDbCircle
 10
393.6896712752
 20
250.5839110604
 30
0.0
 40
3.499999999999972
  0
LINE
  5
121
330
1F
100
AcDbEntity
  8
0
  6
CONTINUOUS
 62
     7
100
AcDbLine
 10
413.6896712752
 20
297.7339110604
 30
0.0
 11
325.6896712752
 21
297.7339110604
 31
0.0
  0
CIRCLE
  5
122
330
1F
100
AcDbEntity
  8
0
  6
CONTINUOUS
 62
     7
100
AcDbCircle
 10
329.6896712752
 20
206.978740074
 30
0.0
 40
1.349999999999994
  0
CIRCLE
  5
123
330
1F
100
AcDbEntity
  8
0
  6
CONTINUOUS
 62
     7
100
AcDbCircle
 10
409.6896712752
 20
207.7339110604
 30
0.0
 40
1.350000000000023
  0
CIRCLE
  5
124
330
1F
100
AcDbEntity
  8
0
  6
CONTINUOUS
 62
     7
100
AcDbCircle
 10
409.6896712752
 20
293.7339110604
 30
0.0
 40
1.349999999999966
  0
LINE
  5
125
330
1F
100
AcDbEntity
  8
0
  6
CONTINUOUS
 62
     7
100
AcDbLine
 10
412.3645359835
 20
309.7339110604
 30
0.0
 11
412.3645359835
 21
306.7339110604
 31
0.0
  0
LINE
  5
126
330
1F
100
AcDbEntity
  8
0
  6
CONTINUOUS
 62
     7
100
AcDbLine
 10
403.8645359835
 20
403.7339110604
 30
0.0
 11
403.8645359835
 21
406.7339110604
 31
0.0
  0
LINE
  5
127
330
1F
100
AcDbEntity
  8
0
  6
CONTINUOUS
 62
     7
100
AcDbLine
 10
412.3645359835
 20
406.7339110604
 30
0.0
 11
412.3645359835
 21
403.7339110604
 31
0.0
  0
LINE
  5
128
330
1F
100
AcDbEntity
  8
0
  6
CONTINUOUS
 62
     7
100
AcDbLine
 10
412.3645359835
 20
403.7339110604
 30
0.0
 11
420.8645359835
 21
403.7339110604
 31
0.0
  0
LINE
  5
129
330
1F
100
AcDbEntity
  8
0
  6
CONTINUOUS
 62
     7
100
AcDbLine
 10
420.8645359835
 20
403.7339110604
 30
0.0
 11
420.8645359835
 21
406.7339110604
 31
0.0
  0
LINE
  5
12A
330
1F
100
AcDbEntity
  8
0
  6
CONTINUOUS
 62
     7
100
AcDbLine
 10
420.8645359835
 20
406.7339110604
 30
0.0
 11
429.3645359835
 21
406.7339110604
 31
0.0
  0
LINE
  5
12B
330
1F
100
AcDbEntity
  8
0
  6
CONTINUOUS
 62
     7
100
AcDbLine
 10
429.3645359835
 20
406.7339110604
 30
0.0
 11
429.3645359835
 21
403.7339110604
 31
0.0
  0
LINE
  5
12C
330
1F
100
AcDbEntity
  8
0
  6
CONTINUOUS
 62
     7
100
AcDbLine
 10
429.3645359835
 20
403.7339110604
 30
0.0
 11
437.8645359835
 21
403.7339110604
 31
0.0
  0
LINE
  5
12D
330
1F
100
AcDbEntity
  8
0
  6
CONTINUOUS
 62
     7
100
AcDbLine
 10
437.8645359835
 20
403.7339110604
 30
0.0
 11
437.8645359835
 21
406.7339110604
 31
0.0
  0
LINE
  5
12E
330
1F
100
AcDbEntity
  8
0
  6
CONTINUOUS
 62
     7
100
AcDbLine
 10
437.8645359835
 20
406.7339110604
 30
0.0
 11
446.3645359835
 21
406.7339110604
 31
0.0
  0
LINE
  5
12F
330
1F
100
AcDbEntity
  8
0
  6
CONTINUOUS
 62
     7
100
AcDbLine
 10
446.3645359835
 20
406.7339110604
 30
0.0
 11
446.3645359835
 21
403.7339110604
 31
0.0
  0
LINE
  5
130
330
1F
100
AcDbEntity
  8
0
  6
CONTINUOUS
 62
     7
100
AcDbLine
 10
446.3645359835
 20
403.7339110604
 30
0.0
 11
450.6145359835
 21
403.7339110604
 31
0.0
  0
LINE
  5
131
330
1F
100
AcDbEntity
  8
0
  6
CONTINUOUS
 62
     7
100
AcDbLine
 10
450.6145359835
 20
403.7339110604
 30
0.0
 11
450.6145359835
 21
401.7339110604
 31
0.0
  0
LINE
  5
132
330
1F
100
AcDbEntity
  8
0
  6
CONTINUOUS
 62
     7
100
AcDbLine
 10
450.6145359835
 20
401.7339110604
 30
0.0
 11
453.6896712752
 21
401.7339110604
 31
0.0
  0
LINE
  5
133
330
1F
100
AcDbEntity
  8
0
  6
CONTINUOUS
 62
     7
100
AcDbLine
 10
453.6896712752
 20
401.7339110604
 30
0.0
 11
453.6896712752
 21
391.7339110604
 31
0.0
  0
LINE
  5
134
330
1F
100
AcDbEntity
  8
0
  6
CONTINUOUS
 62
     7
100
AcDbLine
 10
453.6896712752
 20
391.7339110604
 30
0.0
 11
450.6145359835
 21
391.7339110604
 31
0.0
  0
LINE
  5
135
330
1F
100
AcDbEntity
  8
0
  6
CONTINUOUS
 62
     7
100
AcDbLine
 10
450.6145359835
 20
391.7339110604
 30
0.0
 11
450.6145359835
 21
381.7339110604
 31
0.0
  0
LINE
  5
136
330
1F
100
AcDbEntity
  8
0
  6
CONTINUOUS
 62
     7
100
AcDbLine
 10
450.6145359835
 20
381.7339110604
 30
0.0
 11
453.6896712752
 21
381.7339110604
 31
0.0
  0
LINE
  5
137
330
1F
100
AcDbEntity
  8
0
  6
CONTINUOUS
 62
     7
100
AcDbLine
 10
453.6896712752
 20
381.7339110604
 30
0.0
 11
453.6896712752
 21
371.7339110604
 31
0.0
  0
LINE
  5
138
330
1F
100
AcDbEntity
  8
0
  6
CONTINUOUS
 62
     7
100
AcDbLine
 10
453.6896712752
 20
371.7339110604
 30
0.0
 11
450.6145359835
 21
371.7339110604
 31
0.0
  0
LINE
  5
139
330
1F
100
AcDbEntity
  8
0
  6
CONTINUOUS
 62
     7
100
AcDbLine
 10
450.6145359835
 20
371.7339110604
 30
0.0
 11
450.6145359835
 21
361.7339110604
 31
0.0
  0
LINE
  5
13A
330
1F
100
AcDbEntity
  8
0
  6
CONTINUOUS
 62
     7
100
AcDbLine
 10
450.6145359835
 20
361.7339110604
 30
0.0
 11
453.6896712752
 21
361.7339110604
 31
0.0
  0
LINE
  5
13B
330
1F
100
AcDbEntity
  8
0
  6
CONTINUOUS
 62
     7
100
AcDbLine
 10
453.6896712752
 20
361.7339110604
 30
0.0
 11
453.6896712752
 21
351.7339110604
 31
0.0
  0
LINE
  5
13C
330
1F
100
AcDbEntity
  8
0
  6
CONTINUOUS
 62
     7
100
AcDbLine
 10
453.6896712752
 20
351.7339110604
 30
0.0
 11
450.6145359835
 21
351.7339110604
 31
0.0
  0
LINE
  5
13D
330
1F
100
AcDbEntity
  8
0
  6
CONTINUOUS
 62
     7
100
AcDbLine
 10
450.6145359835
 20
351.7339110604
 30
0.0
 11
450.6145359835
 21
341.7339110604
 31
0.0
  0
LINE
  5
13E
330
1F
100
AcDbEntity
  8
0
  6
CONTINUOUS
 62
     7
100
AcDbLine
 10
450.6145359835
 20
341.7339110604
 30
0.0
 11
453.6896712752
 21
341.7339110604
 31
0.0
  0
LINE
  5
13F
330
1F
100
AcDbEntity
  8
0
  6
CONTINUOUS
 62
     7
100
AcDbLine
 10
453.6896712752
 20
341.7339110604
 30
0.0
 11
453.6896712752
 21
331.7339110604
 31
0.0
  0
LINE
  5
140
330
1F
100
AcDbEntity
  8
0
  6
CONTINUOUS
 62
     7
100
AcDbLine
 10
453.6896712752
 20
331.7339110604
 30
0.0
 11
450.6145359835
 21
331.7339110604
 31
0.0
  0
LINE
  5
141
330
1F
100
AcDbEntity
  8
0
  6
CONTINUOUS
 62
     7
100
AcDbLine
 10
450.6145359835
 20
331.7339110604
 30
0.0
 11
450.6145359835
 21
321.7339110604
 31
0.0
  0
LINE
  5
142
330
1F
100
AcDbEntity
  8
0
  6
CONTINUOUS
 62
     7
100
AcDbLine
 10
450.6145359835
 20
321.7339110604
 30
0.0
 11
453.6896712752
 21
321.7339110604
 31
0.0
  0
LINE
  5
143
330
1F
100
AcDbEntity
  8
0
  6
CONTINUOUS
 62
     7
100
AcDbLine
 10
453.6896712752
 20
321.7339110604
 30
0.0
 11
453.6896712752
 21
311.7339110604
 31
0.0
  0
LINE
  5
144
330
1F
100
AcDbEntity
  8
0
  6
CONTINUOUS
 62
     7
100
AcDbLine
 10
453.6896712752
 20
311.7339110604
 30
0.0
 11
450.6145359835
 21
311.7339110604
 31
0.0
  0
LINE
  5
145
330
1F
100
AcDbEntity
  8
0
  6
CONTINUOUS
 62
     7
100
AcDbLine
 10
450.6145359835
 20
311.7339110604
 30
0.0
 11
450.6145359835
 21
309.7339110604
 31
0.0
  0
LINE
  5
146
330
1F
100
AcDbEntity
  8
0
  6
CONTINUOUS
 62
     7
100
AcDbLine
 10
450.6145359835
 20
309.7339110604
 30
0.0
 11
446.3645359835
 21
309.7339110604
 31
0.0
  0
LINE
  5
147
330
1F
100
AcDbEntity
  8
0
  6
CONTINUOUS
 62
     7
100
AcDbLine
 10
446.3645359835
 20
309.7339110604
 30
0.0
 11
446.3645359835
 21
306.7339110604
 31
0.0
  0
LINE
  5
148
330
1F
100
AcDbEntity
  8
0
  6
CONTINUOUS
 62
     7
100
AcDbLine
 10
446.3645359835
 20
306.7339110604
 30
0.0
 11
437.8645359835
 21
306.7339110604
 31
0.0
  0
LINE
  5
149
330
1F
100
AcDbEntity
  8
0
  6
CONTINUOUS
 62
     7
100
AcDbLine
 10
437.8645359835
 20
306.7339110604
 30
0.0
 11
437.8645359835
 21
309.7339110604
 31
0.0
  0
LINE
  5
14A
330
1F
100
AcDbEntity
  8
0
  6
CONTINUOUS
 62
     7
100
AcDbLine
 10
437.8645359835
 20
309.7339110604
 30
0.0
 11
429.3645359835
 21
309.7339110604
 31
0.0
  0
LINE
  5
14B
330
1F
100
AcDbEntity
  8
0
  6
CONTINUOUS
 62
     7
100
AcDbLine
 10
429.3645359835
 20
309.7339110604
 30
0.0
 11
429.3645359835
 21
306.7339110604
 31
0.0
  0
LINE
  5
14C
330
1F
100
AcDbEntity
  8
0
  6
CONTINUOUS
 62
     7
100
AcDbLine
 10
429.3645359835
 20
306.7339110604
 30
0.0
 11
420.8645359835
 21
306.7339110604
 31
0.0
  0
LINE
  5
14D
330
1F
100
AcDbEntity
  8
0
  6
CONTINUOUS
 62
     7
100
AcDbLine
 10
420.8645359835
 20
306.7339110604
 30
0.0
 11
420.8645359835
 21
309.7339110604
 31
0.0
  0
LINE
  5
14E
330
1F
100
AcDbEntity
  8
0
  6
CONTINUOUS
 62
     7
100
AcDbLine
 10
420.8645359835
 20
309.7339110604
 30
0.0
 11
412.3645359835
 21
309.7339110604
 31
0.0
  0
LINE
  5
14F
330
1F
100
AcDbEntity
  8
0
  6
CONTINUOUS
 62
     7
100
AcDbLine
 10
405.6145359835
 20
312.0339110604
 30
0.0
 11
405.6145359835
 21
316.0339110604
 31
0.0
  0
LINE
  5
150
330
1F
100
AcDbEntity
  8
0
  6
CONTINUOUS
 62
     7
100
AcDbLine
 10
411.6145359835
 20
401.4339110604
 30
0.0
 11
408.6145359835
 21
401.4339110604
 31
0.0
  0
LINE
  5
151
330
1F
100
AcDbEntity
  8
0
  6
CONTINUOUS
 62
     7
100
AcDbLine
 10
408.6145359835
 20
401.4339110604
 30
0.0
 11
408.6145359835
 21
397.4339110604
 31
0.0
  0
LINE
  5
152
330
1F
100
AcDbEntity
  8
0
  6
CONTINUOUS
 62
     7
100
AcDbLine
 10
408.6145359835
 20
397.4339110604
 30
0.0
 11
411.6145359835
 21
397.4339110604
 31
0.0
  0
LINE
  5
153
330
1F
100
AcDbEntity
  8
0
  6
CONTINUOUS
 62
     7
100
AcDbLine
 10
411.6145359835
 20
397.4339110604
 30
0.0
 11
411.6145359835
 21
401.4339110604
 31
0.0
  0
LINE
  5
154
330
1F
100
AcDbEntity
  8
0
  6
CONTINUOUS
 62
     7
100
AcDbLine
 10
405.6145359835
 20
397.4339110604
 30
0.0
 11
405.6145359835
 21
401.4339110604
 31
0.0
  0
LINE
  5
155
330
1F
100
AcDbEntity
  8
0
  6
CONTINUOUS
 62
     7
100
AcDbLine
 10
411.6145359835
 20
316.0339110604
 30
0.0
 11
408.6145359835
 21
316.0339110604
 31
0.0
  0
LINE
  5
156
330
1F
100
AcDbEntity
  8
0
  6
CONTINUOUS
 62
     7
100
AcDbLine
 10
408.6145359835
 20
316.0339110604
 30
0.0
 11
408.6145359835
 21
312.0339110604
 31
0.0
  0
LINE
  5
157
330
1F
100
AcDbEntity
  8
0
  6
CONTINUOUS
 62
     7
100
AcDbLine
 10
408.6145359835
 20
312.0339110604
 30
0.0
 11
411.6145359835
 21
312.0339110604
 31
0.0
  0
LINE
  5
158
330
1F
100
AcDbEntity
  8
0
  6
CONTINUOUS
 62
     7
100
AcDbLine
 10
411.6145359835
 20
312.0339110604
 30
0.0
 11
411.6145359835
 21
316.0339110604
 31
0.0
  0
CIRCLE
  5
159
330
1F
100
AcDbEntity
  8
0
  6
CONTINUOUS
 62
     7
100
AcDbCircle
 10
417.8645359835
 20
367.4759110604
 30
0.0
 40
9.0
  0
CIRCLE
  5
15A
330
1F
100
AcDbEntity
  8
0
  6
CONTINUOUS
 62
     7
100
AcDbCircle
 10
417.8645359835
 20
345.9839110604
 30
0.0
 40
9.0
  0
ARC
  5
15B
330
1F
100
AcDbEntity
  8
0
  6
CONTINUOUS
 62
     7
100
AcDbCircle
 10
446.7145359835
 20
359.4334008032
 30
0.0
 40
0.5
100
AcDbArc
 50
180.0
 51
258.4630409672
  0
LINE
  5
15C
330
1F
100
AcDbEntity
  8
0
  6
CONTINUOUS
 62
     7
100
AcDbLine
 10
446.2145359835
 20
365.2339110604
 30
0.0
 11
446.2145359835
 21
359.4334008032
 31
0.0
  0
ARC
  5
15D
330
1F
100
AcDbEntity
  8
0
  6
CONTINUOUS
 62
     7
100
AcDbCircle
 10
445.7145359835
 20
365.2339110604
 30
0.0
 40
0.5
100
AcDbArc
 50
0.0
 51
90.0
  0
LINE
  5
15E
330
1F
100
AcDbEntity
  8
0
  6
CONTINUOUS
 62
     7
100
AcDbLine
 10
443.6145359835
 20
365.7339110604
 30
0.0
 11
445.7145359835
 21
365.7339110604
 31
0.0
  0
ARC
  5
15F
330
1F
100
AcDbEntity
  8
0
  6
CONTINUOUS
 62
     7
100
AcDbCircle
 10
443.6145359835
 20
365.2339110604
 30
0.0
 40
0.5
100
AcDbArc
 50
90.0
 51
180.0
  0
LINE
  5
160
330
1F
100
AcDbEntity
  8
0
  6
CONTINUOUS
 62
     7
100
AcDbLine
 10
443.1145359835
 20
359.4334008032
 30
0.0
 11
443.1145359835
 21
365.2339110604
 31
0.0
  0
ARC
  5
161
330
1F
100
AcDbEntity
  8
0
  6
CONTINUOUS
 62
     7
100
AcDbCircle
 10
442.6145359835
 20
359.4334008032
 30
0.0
 40
0.5
100
AcDbArc
 50
281.5369590328
 51
0.0
  0
ARC
  5
162
330
1F
100
AcDbEntity
  8
0
  6
CONTINUOUS
 62
     7
100
AcDbCircle
 10
443.1145359835
 20
356.9839110604
 30
0.0
 40
2.000000000000046
100
AcDbArc
 50
101.5369590328
 51
258.4630409672
  0
ARC
  5
163
330
1F
100
AcDbEntity
  8
0
  6
CONTINUOUS
 62
     7
100
AcDbCircle
 10
442.6145359835
 20
354.5344213177
 30
0.0
 40
0.5
100
AcDbArc
 50
0.0
 51
78.4630409672
  0
LINE
  5
164
330
1F
100
AcDbEntity
  8
0
  6
CONTINUOUS
 62
     7
100
AcDbLine
 10
443.1145359835
 20
348.7339110604
 30
0.0
 11
443.1145359835
 21
354.5344213177
 31
0.0
  0
ARC
  5
165
330
1F
100
AcDbEntity
  8
0
  6
CONTINUOUS
 62
     7
100
AcDbCircle
 10
443.6145359835
 20
348.7339110604
 30
0.0
 40
0.5
100
AcDbArc
 50
180.0
 51
270.0
  0
LINE
  5
166
330
1F
100
AcDbEntity
  8
0
  6
CONTINUOUS
 62
     7
100
AcDbLine
 10
445.7145359835
 20
348.2339110604
 30
0.0
 11
443.6145359835
 21
348.2339110604
 31
0.0
  0
ARC
  5
167
330
1F
100
AcDbEntity
  8
0
  6
CONTINUOUS
 62
     7
100
AcDbCircle
 10
445.7145359835
 20
348.7339110604
 30
0.0
 40
0.5
100
AcDbArc
 50
270.0
 51
0.0
  0
LINE
  5
168
330
1F
100
AcDbEntity
  8
0
  6
CONTINUOUS
 62
     7
100
AcDbLine
 10
446.2145359835
 20
354.5344213177
 30
0.0
 11
446.2145359835
 21
348.7339110604
 31
0.0
  0
ARC
  5
169
330
1F
100
AcDbEntity
  8
0
  6
CONTINUOUS
 62
     7
100
AcDbCircle
 10
446.7145359835
 20
354.5344213177
 30
0.0
 40
0.5
100
AcDbArc
 50
101.5369590328
 51
180.0
  0
ARC
  5
16A
330
1F
100
AcDbEntity
  8
0
  6
CONTINUOUS
 62
     7
100
AcDbCircle
 10
446.2145359835
 20
356.9839110604
 30
0.0
 40
2.000000000000046
100
AcDbArc
 50
281.5369590328
 51
78.4630409672
  0
CIRCLE
  5
16B
330
1F
100
AcDbEntity
  8
0
  6
CONTINUOUS
 62
     7
100
AcDbCircle
 10
436.6145359835
 20
319.7339110604
 30
0.0
 40
3.250000000000057
  0
CIRCLE
  5
16C
330
1F
100
AcDbEntity
  8
0
  6
CONTINUOUS
 62
     7
100
AcDbCircle
 10
436.6145359835
 20
393.7339110604
 30
0.0
 40
4.0
  0
LINE
  5
16D
330
1F
100
AcDbEntity
  8
0
  6
CONTINUOUS
 62
     7
100
AcDbLine
 10
403.8645359835
 20
406.7339110604
 30
0.0
 11
412.3645359835
 21
406.7339110604
 31
0.0
  0
LINE
  5
16E
330
1F
100
AcDbEntity
  8
0
  6
CONTINUOUS
 62
     7
100
AcDbLine
 10
403.8645359835
 20
309.7339110604
 30
0.0
 11
399.6896712752
 21
309.7339110604
 31
0.0
  0
LINE
  5
16F
330
1F
100
AcDbEntity
  8
0
  6
CONTINUOUS
 62
     7
100
AcDbLine
 10
412.3645359835
 20
306.7339110604
 30
0.0
 11
403.8645359835
 21
306.7339110604
 31
0.0
  0
LINE
  5
170
330
1F
100
AcDbEntity
  8
0
  6
CONTINUOUS
 62
     7
100
AcDbLine
 10
405.6145359835
 20
316.0339110604
 30
0.0
 11
402.6145359835
 21
316.0339110604
 31
0.0
  0
LINE
  5
171
330
1F
100
AcDbEntity
  8
0
  6
CONTINUOUS
 62
     7
100
AcDbLine
 10
402.6145359835
 20
316.0339110604
 30
0.0
 11
402.6145359835
 21
312.0339110604
 31
0.0
  0
LINE
  5
172
330
1F
100
AcDbEntity
  8
0
  6
CONTINUOUS
 62
     7
100
AcDbLine
 10
402.6145359835
 20
312.0339110604
 30
0.0
 11
405.6145359835
 21
312.0339110604
 31
0.0
  0
LINE
  5
173
330
1F
100
AcDbEntity
  8
0
  6
CONTINUOUS
 62
     7
100
AcDbLine
 10
402.6145359835
 20
401.4339110604
 30
0.0
 11
402.6145359835
 21
397.4339110604
 31
0.0
  0
LINE
  5
174
330
1F
100
AcDbEntity
  8
0
  6
CONTINUOUS
 62
     7
100
AcDbLine
 10
399.6896712752
 20
309.7339110604
 30
0.0
 11
399.6896712752
 21
403.7339110604
 31
0.0
  0
LINE
  5
175
330
1F
100
AcDbEntity
  8
0
  6
CONTINUOUS
 62
     7
100
AcDbLine
 10
403.8645359835
 20
306.7339110604
 30
0.0
 11
403.8645359835
 21
309.7339110604
 31
0.0
  0
LINE
  5
176
330
1F
100
AcDbEntity
  8
0
  6
CONTINUOUS
 62
     7
100
AcDbLine
 10
402.6145359835
 20
397.4339110604
 30
0.0
 11
405.6145359835
 21
397.4339110604
 31
0.0
  0
LINE
  5
177
330
1F
100
AcDbEntity
  8
0
  6
CONTINUOUS
 62
     7
100
AcDbLine
 10
405.6145359835
 20
401.4339110604
 30
0.0
 11
402.6145359835
 21
401.4339110604
 31
0.0
  0
LINE
  5
178
330
1F
100
AcDbEntity
  8
0
  6
CONTINUOUS
 62
     7
100
AcDbLine
 10
403.8645359835
 20
403.7339110604
 30
0.0
 11
399.6896712752
 21
403.7339110604
 31
0.0
  0
LINE
  5
179
330
1F
100
AcDbEntity
  8
0
  6
CONTINUOUS
 62
     7
100
AcDbLine
 10
481.014806567
 20
306.7339110604
 30
0.0
 11
489.514806567
 21
306.7339110604
 31
0.0
  0
LINE
  5
17A
330
1F
100
AcDbEntity
  8
0
  6
CONTINUOUS
 62
     7
100
AcDbLine
 10
481.014806567
 20
309.7339110604
 30
0.0
 11
481.014806567
 21
306.7339110604
 31
0.0
  0
LINE
  5
17B
330
1F
100
AcDbEntity
  8
0
  6
CONTINUOUS
 62
     7
100
AcDbLine
 10
472.514806567
 20
309.7339110604
 30
0.0
 11
481.014806567
 21
309.7339110604
 31
0.0
  0
LINE
  5
17C
330
1F
100
AcDbEntity
  8
0
  6
CONTINUOUS
 62
     7
100
AcDbLine
 10
472.514806567
 20
306.7339110604
 30
0.0
 11
472.514806567
 21
309.7339110604
 31
0.0
  0
LINE
  5
17D
330
1F
100
AcDbEntity
  8
0
  6
CONTINUOUS
 62
     7
100
AcDbLine
 10
464.014806567
 20
306.7339110604
 30
0.0
 11
472.514806567
 21
306.7339110604
 31
0.0
  0
LINE
  5
17E
330
1F
100
AcDbEntity
  8
0
  6
CONTINUOUS
 62
     7
100
AcDbLine
 10
464.014806567
 20
309.7339110604
 30
0.0
 11
464.014806567
 21
306.7339110604
 31
0.0
  0
LINE
  5
17F
330
1F
100
AcDbEntity
  8
0
  6
CONTINUOUS
 62
     7
100
AcDbLine
 10
459.764806567
 20
309.7339110604
 30
0.0
 11
464.014806567
 21
309.7339110604
 31
0.0
  0
LINE
  5
180
330
1F
100
AcDbEntity
  8
0
  6
CONTINUOUS
 62
     7
100
AcDbLine
 10
459.764806567
 20
311.7339110604
 30
0.0
 11
459.764806567
 21
309.7339110604
 31
0.0
  0
LINE
  5
181
330
1F
100
AcDbEntity
  8
0
  6
CONTINUOUS
 62
     7
100
AcDbLine
 10
456.6896712752
 20
311.7339110604
 30
0.0
 11
459.764806567
 21
311.7339110604
 31
0.0
  0
LINE
  5
182
330
1F
100
AcDbEntity
  8
0
  6
CONTINUOUS
 62
     7
100
AcDbLine
 10
456.6896712752
 20
321.7339110604
 30
0.0
 11
456.6896712752
 21
311.7339110604
 31
0.0
  0
LINE
  5
183
330
1F
100
AcDbEntity
  8
0
  6
CONTINUOUS
 62
     7
100
AcDbLine
 10
459.764806567
 20
321.7339110604
 30
0.0
 11
456.6896712752
 21
321.7339110604
 31
0.0
  0
LINE
  5
184
330
1F
100
AcDbEntity
  8
0
  6
CONTINUOUS
 62
     7
100
AcDbLine
 10
459.764806567
 20
331.7339110604
 30
0.0
 11
459.764806567
 21
321.7339110604
 31
0.0
  0
LINE
  5
185
330
1F
100
AcDbEntity
  8
0
  6
CONTINUOUS
 62
     7
100
AcDbLine
 10
456.6896712752
 20
331.7339110604
 30
0.0
 11
459.764806567
 21
331.7339110604
 31
0.0
  0
LINE
  5
186
330
1F
100
AcDbEntity
  8
0
  6
CONTINUOUS
 62
     7
100
AcDbLine
 10
456.6896712752
 20
341.7339110604
 30
0.0
 11
456.6896712752
 21
331.7339110604
 31
0.0
  0
LINE
  5
187
330
1F
100
AcDbEntity
  8
0
  6
CONTINUOUS
 62
     7
100
AcDbLine
 10
459.764806567
 20
341.7339110604
 30
0.0
 11
456.6896712752
 21
341.7339110604
 31
0.0
  0
LINE
  5
188
330
1F
100
AcDbEntity
  8
0
  6
CONTINUOUS
 62
     7
100
AcDbLine
 10
459.764806567
 20
351.7339110604
 30
0.0
 11
459.764806567
 21
341.7339110604
 31
0.0
  0
LINE
  5
189
330
1F
100
AcDbEntity
  8
0
  6
CONTINUOUS
 62
     7
100
AcDbLine
 10
456.6896712752
 20
351.7339110604
 30
0.0
 11
459.764806567
 21
351.7339110604
 31
0.0
  0
LINE
  5
18A
330
1F
100
AcDbEntity
  8
0
  6
CONTINUOUS
 62
     7
100
AcDbLine
 10
456.6896712752
 20
361.7339110604
 30
0.0
 11
456.6896712752
 21
351.7339110604
 31
0.0
  0
LINE
  5
18B
330
1F
100
AcDbEntity
  8
0
  6
CONTINUOUS
 62
     7
100
AcDbLine
 10
459.764806567
 20
361.7339110604
 30
0.0
 11
456.6896712752
 21
361.7339110604
 31
0.0
  0
LINE
  5
18C
330
1F
100
AcDbEntity
  8
0
  6
CONTINUOUS
 62
     7
100
AcDbLine
 10
459.764806567
 20
371.7339110604
 30
0.0
 11
459.764806567
 21
361.7339110604
 31
0.0
  0
LINE
  5
18D
330
1F
100
AcDbEntity
  8
0
  6
CONTINUOUS
 62
     7
100
AcDbLine
 10
456.6896712752
 20
371.7339110604
 30
0.0
 11
459.764806567
 21
371.7339110604
 31
0.0
  0
LINE
  5
18E
330
1F
100
AcDbEntity
  8
0
  6
CONTINUOUS
 62
     7
100
AcDbLine
 10
456.6896712752
 20
381.7339110604
 30
0.0
 11
456.6896712752
 21
371.7339110604
 31
0.0
  0
LINE
  5
18F
330
1F
100
AcDbEntity
  8
0
  6
CONTINUOUS
 62
     7
100
AcDbLine
 10
459.764806567
 20
381.7339110604
 30
0.0
 11
456.6896712752
 21
381.7339110604
 31
0.0
  0
LINE
  5
190
330
1F
100
AcDbEntity
  8
0
  6
CONTINUOUS
 62
     7
100
AcDbLine
 10
456.6896712752
 20
391.7339110604
 30
0.0
 11
459.764806567
 21
391.7339110604
 31
0.0
  0
LINE
  5
191
330
1F
100
AcDbEntity
  8
0
  6
CONTINUOUS
 62
     7
100
AcDbLine
 10
456.6896712752
 20
401.7339110604
 30
0.0
 11
456.6896712752
 21
391.7339110604
 31
0.0
  0
LINE
  5
192
330
1F
100
AcDbEntity
  8
0
  6
CONTINUOUS
 62
     7
100
AcDbLine
 10
459.764806567
 20
401.7339110604
 30
0.0
 11
456.6896712752
 21
401.7339110604
 31
0.0
  0
LINE
  5
193
330
1F
100
AcDbEntity
  8
0
  6
CONTINUOUS
 62
     7
100
AcDbLine
 10
459.764806567
 20
403.7339110604
 30
0.0
 11
459.764806567
 21
401.7339110604
 31
0.0
  0
LINE
  5
194
330
1F
100
AcDbEntity
  8
0
  6
CONTINUOUS
 62
     7
100
AcDbLine
 10
464.014806567
 20
406.7339110604
 30
0.0
 11
464.014806567
 21
403.7339110604
 31
0.0
  0
LINE
  5
195
330
1F
100
AcDbEntity
  8
0
  6
CONTINUOUS
 62
     7
100
AcDbLine
 10
472.514806567
 20
406.7339110604
 30
0.0
 11
464.014806567
 21
406.7339110604
 31
0.0
  0
LINE
  5
196
330
1F
100
AcDbEntity
  8
0
  6
CONTINUOUS
 62
     7
100
AcDbLine
 10
472.514806567
 20
403.7339110604
 30
0.0
 11
472.514806567
 21
406.7339110604
 31
0.0
  0
LINE
  5
197
330
1F
100
AcDbEntity
  8
0
  6
CONTINUOUS
 62
     7
100
AcDbLine
 10
481.014806567
 20
403.7339110604
 30
0.0
 11
472.514806567
 21
403.7339110604
 31
0.0
  0
LINE
  5
198
330
1F
100
AcDbEntity
  8
0
  6
CONTINUOUS
 62
     7
100
AcDbLine
 10
489.514806567
 20
406.7339110604
 30
0.0
 11
481.014806567
 21
406.7339110604
 31
0.0
  0
LINE
  5
199
330
1F
100
AcDbEntity
  8
0
  6
CONTINUOUS
 62
     7
100
AcDbLine
 10
489.514806567
 20
403.7339110604
 30
0.0
 11
489.514806567
 21
406.7339110604
 31
0.0
  0
LINE
  5
19A
330
1F
100
AcDbEntity
  8
0
  6
CONTINUOUS
 62
     7
100
AcDbLine
 10
498.014806567
 20
403.7339110604
 30
0.0
 11
489.514806567
 21
403.7339110604
 31
0.0
  0
LINE
  5
19B
330
1F
100
AcDbEntity
  8
0
  6
CONTINUOUS
 62
     7
100
AcDbLine
 10
498.014806567
 20
406.7339110604
 30
0.0
 11
498.014806567
 21
403.7339110604
 31
0.0
  0
LINE
  5
19C
330
1F
100
AcDbEntity
  8
0
  6
CONTINUOUS
 62
     7
100
AcDbLine
 10
506.514806567
 20
406.7339110604
 30
0.0
 11
498.014806567
 21
406.7339110604
 31
0.0
  0
LINE
  5
19D
330
1F
100
AcDbEntity
  8
0
  6
CONTINUOUS
 62
     7
100
AcDbLine
 10
506.514806567
 20
403.7339110604
 30
0.0
 11
506.514806567
 21
406.7339110604
 31
0.0
  0
LINE
  5
19E
330
1F
100
AcDbEntity
  8
0
  6
CONTINUOUS
 62
     7
100
AcDbLine
 10
510.6896712752
 20
403.7339110604
 30
0.0
 11
506.514806567
 21
403.7339110604
 31
0.0
  0
LINE
  5
19F
330
1F
100
AcDbEntity
  8
0
  6
CONTINUOUS
 62
     7
100
AcDbLine
 10
510.6896712752
 20
309.7339110604
 30
0.0
 11
510.6896712752
 21
403.7339110604
 31
0.0
  0
LINE
  5
1A0
330
1F
100
AcDbEntity
  8
0
  6
CONTINUOUS
 62
     7
100
AcDbLine
 10
506.514806567
 20
309.7339110604
 30
0.0
 11
510.6896712752
 21
309.7339110604
 31
0.0
  0
LINE
  5
1A1
330
1F
100
AcDbEntity
  8
0
  6
CONTINUOUS
 62
     7
100
AcDbLine
 10
506.514806567
 20
306.7339110604
 30
0.0
 11
506.514806567
 21
309.7339110604
 31
0.0
  0
LINE
  5
1A2
330
1F
100
AcDbEntity
  8
0
  6
CONTINUOUS
 62
     7
100
AcDbLine
 10
498.014806567
 20
306.7339110604
 30
0.0
 11
506.514806567
 21
306.7339110604
 31
0.0
  0
LINE
  5
1A3
330
1F
100
AcDbEntity
  8
0
  6
CONTINUOUS
 62
     7
100
AcDbLine
 10
498.014806567
 20
309.7339110604
 30
0.0
 11
498.014806567
 21
306.7339110604
 31
0.0
  0
LINE
  5
1A4
330
1F
100
AcDbEntity
  8
0
  6
CONTINUOUS
 62
     7
100
AcDbLine
 10
489.514806567
 20
306.7339110604
 30
0.0
 11
489.514806567
 21
309.7339110604
 31
0.0
  0
LINE
  5
1A5
330
1F
100
AcDbEntity
  8
0
  6
CONTINUOUS
 62
     7
100
AcDbLine
 10
507.764806567
 20
316.0339110604
 30
0.0
 11
507.764806567
 21
312.0339110604
 31
0.0
  0
LINE
  5
1A6
330
1F
100
AcDbEntity
  8
0
  6
CONTINUOUS
 62
     7
100
AcDbLine
 10
504.764806567
 20
316.0339110604
 30
0.0
 11
507.764806567
 21
316.0339110604
 31
0.0
  0
LINE
  5
1A7
330
1F
100
AcDbEntity
  8
0
  6
CONTINUOUS
 62
     7
100
AcDbLine
 10
504.764806567
 20
312.0339110604
 30
0.0
 11
504.764806567
 21
316.0339110604
 31
0.0
  0
LINE
  5
1A8
330
1F
100
AcDbEntity
  8
0
  6
CONTINUOUS
 62
     7
100
AcDbLine
 10
507.764806567
 20
312.0339110604
 30
0.0
 11
504.764806567
 21
312.0339110604
 31
0.0
  0
LINE
  5
1A9
330
1F
100
AcDbEntity
  8
0
  6
CONTINUOUS
 62
     7
100
AcDbLine
 10
501.764806567
 20
401.4339110604
 30
0.0
 11
501.764806567
 21
397.4339110604
 31
0.0
  0
LINE
  5
1AA
330
1F
100
AcDbEntity
  8
0
  6
CONTINUOUS
 62
     7
100
AcDbLine
 10
498.764806567
 20
401.4339110604
 30
0.0
 11
501.764806567
 21
401.4339110604
 31
0.0
  0
LINE
  5
1AB
330
1F
100
AcDbEntity
  8
0
  6
CONTINUOUS
 62
     7
100
AcDbLine
 10
498.764806567
 20
397.4339110604
 30
0.0
 11
498.764806567
 21
401.4339110604
 31
0.0
  0
LINE
  5
1AC
330
1F
100
AcDbEntity
  8
0
  6
CONTINUOUS
 62
     7
100
AcDbLine
 10
501.764806567
 20
397.4339110604
 30
0.0
 11
498.764806567
 21
397.4339110604
 31
0.0
  0
LINE
  5
1AD
330
1F
100
AcDbEntity
  8
0
  6
CONTINUOUS
 62
     7
100
AcDbLine
 10
504.764806567
 20
397.4339110604
 30
0.0
 11
504.764806567
 21
401.4339110604
 31
0.0
  0
LINE
  5
1AE
330
1F
100
AcDbEntity
  8
0
  6
CONTINUOUS
 62
     7
100
AcDbLine
 10
507.764806567
 20
397.4339110604
 30
0.0
 11
504.764806567
 21
397.4339110604
 31
0.0
  0
LINE
  5
1AF
330
1F
100
AcDbEntity
  8
0
  6
CONTINUOUS
 62
     7
100
AcDbLine
 10
507.764806567
 20
401.4339110604
 30
0.0
 11
507.764806567
 21
397.4339110604
 31
0.0
  0
LINE
  5
1B0
330
1F
100
AcDbEntity
  8
0
  6
CONTINUOUS
 62
     7
100
AcDbLine
 10
504.764806567
 20
401.4339110604
 30
0.0
 11
507.764806567
 21
401.4339110604
 31
0.0
  0
LINE
  5
1B1
330
1F
100
AcDbEntity
  8
0
  6
CONTINUOUS
 62
     7
100
AcDbLine
 10
501.764806567
 20
316.0339110604
 30
0.0
 11
501.764806567
 21
312.0339110604
 31
0.0
  0
LINE
  5
1B2
330
1F
100
AcDbEntity
  8
0
  6
CONTINUOUS
 62
     7
100
AcDbLine
 10
498.764806567
 20
316.0339110604
 30
0.0
 11
501.764806567
 21
316.0339110604
 31
0.0
  0
LINE
  5
1B3
330
1F
100
AcDbEntity
  8
0
  6
CONTINUOUS
 62
     7
100
AcDbLine
 10
498.764806567
 20
312.0339110604
 30
0.0
 11
498.764806567
 21
316.0339110604
 31
0.0
  0
LINE
  5
1B4
330
1F
100
AcDbEntity
  8
0
  6
CONTINUOUS
 62
     7
100
AcDbLine
 10
501.764806567
 20
312.0339110604
 30
0.0
 11
498.764806567
 21
312.0339110604
 31
0.0
  0
LINE
  5
1B5
330
1F
100
AcDbEntity
  8
0
  6
CONTINUOUS
 62
     7
100
AcDbLine
 10
483.564806567
 20
365.9839110604
 30
0.0
 11
483.564806567
 21
349.4839110604
 31
0.0
  0
LINE
  5
1B6
330
1F
100
AcDbEntity
  8
0
  6
CONTINUOUS
 62
     7
100
AcDbLine
 10
466.764806567
 20
365.9839110604
 30
0.0
 11
483.564806567
 21
365.9839110604
 31
0.0
  0
LINE
  5
1B7
330
1F
100
AcDbEntity
  8
0
  6
CONTINUOUS
 62
     7
100
AcDbLine
 10
466.764806567
 20
349.4839110604
 30
0.0
 11
466.764806567
 21
365.9839110604
 31
0.0
  0
LINE
  5
1B8
330
1F
100
AcDbEntity
  8
0
  6
CONTINUOUS
 62
     7
100
AcDbLine
 10
483.564806567
 20
349.4839110604
 30
0.0
 11
466.764806567
 21
349.4839110604
 31
0.0
  0
LINE
  5
1B9
330
1F
100
AcDbEntity
  8
0
  6
CONTINUOUS
 62
     7
100
AcDbLine
 10
459.764806567
 20
391.7339110604
 30
0.0
 11
459.764806567
 21
381.7339110604
 31
0.0
  0
LINE
  5
1BA
330
1F
100
AcDbEntity
  8
0
  6
CONTINUOUS
 62
     7
100
AcDbLine
 10
481.014806567
 20
406.7339110604
 30
0.0
 11
481.014806567
 21
403.7339110604
 31
0.0
  0
LINE
  5
1BB
330
1F
100
AcDbEntity
  8
0
  6
CONTINUOUS
 62
     7
100
AcDbLine
 10
489.514806567
 20
309.7339110604
 30
0.0
 11
498.014806567
 21
309.7339110604
 31
0.0
  0
LINE
  5
1BC
330
1F
100
AcDbEntity
  8
0
  6
CONTINUOUS
 62
     7
100
AcDbLine
 10
464.014806567
 20
403.7339110604
 30
0.0
 11
459.764806567
 21
403.7339110604
 31
0.0
  0
LINE
  5
1BD
330
1F
100
AcDbEntity
  8
0
  6
CONTINUOUS
 62
     7
100
AcDbLine
 10
393.9127004465
 20
338.9839110604
 30
0.0
 11
393.9127004465
 21
330.4839110604
 31
0.0
  0
LINE
  5
1BE
330
1F
100
AcDbEntity
  8
0
  6
CONTINUOUS
 62
     7
100
AcDbLine
 10
393.9127004465
 20
321.9839110604
 30
0.0
 11
393.9127004465
 21
313.4839110604
 31
0.0
  0
LINE
  5
1BF
330
1F
100
AcDbEntity
  8
0
  6
CONTINUOUS
 62
     7
100
AcDbLine
 10
299.9127004465
 20
300.7339110604
 30
0.0
 11
299.9127004465
 21
304.9839110604
 31
0.0
  0
LINE
  5
1C0
330
1F
100
AcDbEntity
  8
0
  6
CONTINUOUS
 62
     7
100
AcDbLine
 10
299.9127004465
 20
330.4839110604
 30
0.0
 11
299.9127004465
 21
338.9839110604
 31
0.0
  0
LINE
  5
1C1
330
1F
100
AcDbEntity
  8
0
  6
CONTINUOUS
 62
     7
100
AcDbLine
 10
299.9127004465
 20
347.4839110604
 30
0.0
 11
299.9127004465
 21
351.7339110604
 31
0.0
  0
LINE
  5
1C2
330
1F
100
AcDbEntity
  8
0
  6
CONTINUOUS
 62
     7
100
AcDbLine
 10
304.6127004465
 20
354.7339110604
 30
0.0
 11
314.0127004465
 21
354.7339110604
 31
0.0
  0
LINE
  5
1C3
330
1F
100
AcDbEntity
  8
0
  6
CONTINUOUS
 62
     7
100
AcDbLine
 10
361.0127004465
 20
354.7339110604
 30
0.0
 11
370.4127004465
 21
354.7339110604
 31
0.0
  0
LINE
  5
1C4
330
1F
100
AcDbEntity
  8
0
  6
CONTINUOUS
 62
     7
100
AcDbLine
 10
370.4127004465
 20
351.7339110604
 30
0.0
 11
370.4127004465
 21
354.7339110604
 31
0.0
  0
LINE
  5
1C5
330
1F
100
AcDbEntity
  8
0
  6
CONTINUOUS
 62
     7
100
AcDbLine
 10
379.8127004465
 20
351.7339110604
 30
0.0
 11
370.4127004465
 21
351.7339110604
 31
0.0
  0
LINE
  5
1C6
330
1F
100
AcDbEntity
  8
0
  6
CONTINUOUS
 62
     7
100
AcDbLine
 10
379.8127004465
 20
354.7339110604
 30
0.0
 11
379.8127004465
 21
351.7339110604
 31
0.0
  0
LINE
  5
1C7
330
1F
100
AcDbEntity
  8
0
  6
CONTINUOUS
 62
     7
100
AcDbLine
 10
389.2127004465
 20
351.7339110604
 30
0.0
 11
389.2127004465
 21
354.7339110604
 31
0.0
  0
LINE
  5
1C8
330
1F
100
AcDbEntity
  8
0
  6
CONTINUOUS
 62
     7
100
AcDbLine
 10
393.9127004465
 20
351.7339110604
 30
0.0
 11
389.2127004465
 21
351.7339110604
 31
0.0
  0
LINE
  5
1C9
330
1F
100
AcDbEntity
  8
0
  6
CONTINUOUS
 62
     7
100
AcDbLine
 10
393.9127004465
 20
351.7339110604
 30
0.0
 11
393.9127004465
 21
347.4839110604
 31
0.0
  0
LINE
  5
1CA
330
1F
100
AcDbEntity
  8
0
  6
CONTINUOUS
 62
     7
100
AcDbLine
 10
371.357144891
 20
306.7339110604
 30
0.0
 11
381.1349226688
 21
306.7339110604
 31
0.0
  0
LINE
  5
1CB
330
1F
100
AcDbEntity
  8
0
  6
CONTINUOUS
 62
     7
100
AcDbLine
 10
351.8015893354
 20
303.7339110604
 30
0.0
 11
342.0238115576
 21
303.7339110604
 31
0.0
  0
LINE
  5
1CC
330
1F
100
AcDbEntity
  8
0
  6
CONTINUOUS
 62
     7
100
AcDbLine
 10
342.0238115576
 20
303.7339110604
 30
0.0
 11
342.0238115576
 21
306.7339110604
 31
0.0
  0
LINE
  5
1CD
330
1F
100
AcDbEntity
  8
0
  6
CONTINUOUS
 62
     7
100
AcDbLine
 10
390.9127004465
 20
304.9839110604
 30
0.0
 11
390.9127004465
 21
313.4839110604
 31
0.0
  0
LINE
  5
1CE
330
1F
100
AcDbEntity
  8
0
  6
CONTINUOUS
 62
     7
100
AcDbLine
 10
302.9127004465
 20
347.4839110604
 30
0.0
 11
299.9127004465
 21
347.4839110604
 31
0.0
  0
LINE
  5
1CF
330
1F
100
AcDbEntity
  8
0
  6
CONTINUOUS
 62
     7
100
AcDbLine
 10
299.9127004465
 20
338.9839110604
 30
0.0
 11
302.9127004465
 21
338.9839110604
 31
0.0
  0
LINE
  5
1D0
330
1F
100
AcDbEntity
  8
0
  6
CONTINUOUS
 62
     7
100
AcDbLine
 10
361.0127004465
 20
351.7339110604
 30
0.0
 11
351.6127004465
 21
351.7339110604
 31
0.0
  0
LINE
  5
1D1
330
1F
100
AcDbEntity
  8
0
  6
CONTINUOUS
 62
     7
100
AcDbLine
 10
302.9127004465
 20
338.9839110604
 30
0.0
 11
302.9127004465
 21
347.4839110604
 31
0.0
  0
LINE
  5
1D2
330
1F
100
AcDbEntity
  8
0
  6
CONTINUOUS
 62
     7
100
AcDbLine
 10
379.8127004465
 20
354.7339110604
 30
0.0
 11
389.2127004465
 21
354.7339110604
 31
0.0
  0
LINE
  5
1D3
330
1F
100
AcDbEntity
  8
0
  6
CONTINUOUS
 62
     7
100
AcDbLine
 10
381.1349226688
 20
306.7339110604
 30
0.0
 11
381.1349226688
 21
303.7339110604
 31
0.0
  0
LINE
  5
1D4
330
1F
100
AcDbEntity
  8
0
  6
CONTINUOUS
 62
     7
100
AcDbLine
 10
381.1349226688
 20
303.7339110604
 30
0.0
 11
371.357144891
 21
303.7339110604
 31
0.0
  0
LINE
  5
1D5
330
1F
100
AcDbEntity
  8
0
  6
CONTINUOUS
 62
     7
100
AcDbLine
 10
371.357144891
 20
303.7339110604
 30
0.0
 11
371.357144891
 21
306.7339110604
 31
0.0
  0
LINE
  5
1D6
330
1F
100
AcDbEntity
  8
0
  6
CONTINUOUS
 62
     7
100
AcDbLine
 10
390.9127004465
 20
347.4839110604
 30
0.0
 11
393.9127004465
 21
347.4839110604
 31
0.0
  0
LINE
  5
1D7
330
1F
100
AcDbEntity
  8
0
  6
CONTINUOUS
 62
     7
100
AcDbLine
 10
390.9127004465
 20
338.9839110604
 30
0.0
 11
390.9127004465
 21
347.4839110604
 31
0.0
  0
LINE
  5
1D8
330
1F
100
AcDbEntity
  8
0
  6
CONTINUOUS
 62
     7
100
AcDbLine
 10
393.9127004465
 20
321.9839110604
 30
0.0
 11
390.9127004465
 21
321.9839110604
 31
0.0
  0
LINE
  5
1D9
330
1F
100
AcDbEntity
  8
0
  6
CONTINUOUS
 62
     7
100
AcDbLine
 10
299.9127004465
 20
313.4839110604
 30
0.0
 11
299.9127004465
 21
321.9839110604
 31
0.0
  0
LINE
  5
1DA
330
1F
100
AcDbEntity
  8
0
  6
CONTINUOUS
 62
     7
100
AcDbLine
 10
393.9127004465
 20
304.9839110604
 30
0.0
 11
390.9127004465
 21
304.9839110604
 31
0.0
  0
LINE
  5
1DB
330
1F
100
AcDbEntity
  8
0
  6
CONTINUOUS
 62
     7
100
AcDbLine
 10
390.9127004465
 20
313.4839110604
 30
0.0
 11
393.9127004465
 21
313.4839110604
 31
0.0
  0
LINE
  5
1DC
330
1F
100
AcDbEntity
  8
0
  6
CONTINUOUS
 62
     7
100
AcDbLine
 10
342.0238115576
 20
306.7339110604
 30
0.0
 11
351.8015893354
 21
306.7339110604
 31
0.0
  0
LINE
  5
1DD
330
1F
100
AcDbEntity
  8
0
  6
CONTINUOUS
 62
     7
100
AcDbLine
 10
351.8015893354
 20
306.7339110604
 30
0.0
 11
351.8015893354
 21
303.7339110604
 31
0.0
  0
LINE
  5
1DE
330
1F
100
AcDbEntity
  8
0
  6
CONTINUOUS
 62
     7
100
AcDbLine
 10
323.4127004465
 20
354.7339110604
 30
0.0
 11
332.8127004465
 21
354.7339110604
 31
0.0
  0
LINE
  5
1DF
330
1F
100
AcDbEntity
  8
0
  6
CONTINUOUS
 62
     7
100
AcDbLine
 10
390.9127004465
 20
330.4839110604
 30
0.0
 11
393.9127004465
 21
330.4839110604
 31
0.0
  0
LINE
  5
1E0
330
1F
100
AcDbEntity
  8
0
  6
CONTINUOUS
 62
     7
100
AcDbLine
 10
393.9127004465
 20
300.7339110604
 30
0.0
 11
299.9127004465
 21
300.7339110604
 31
0.0
  0
LINE
  5
1E1
330
1F
100
AcDbEntity
  8
0
  6
CONTINUOUS
 62
     7
100
AcDbLine
 10
393.9127004465
 20
338.9839110604
 30
0.0
 11
390.9127004465
 21
338.9839110604
 31
0.0
  0
LINE
  5
1E2
330
1F
100
AcDbEntity
  8
0
  6
CONTINUOUS
 62
     7
100
AcDbLine
 10
342.2127004465
 20
354.7339110604
 30
0.0
 11
351.6127004465
 21
354.7339110604
 31
0.0
  0
LINE
  5
1E3
330
1F
100
AcDbEntity
  8
0
  6
CONTINUOUS
 62
     7
100
AcDbLine
 10
309.2127004465
 20
312.7339110604
 30
0.0
 11
305.2127004465
 21
312.7339110604
 31
0.0
  0
LINE
  5
1E4
330
1F
100
AcDbEntity
  8
0
  6
CONTINUOUS
 62
     7
100
AcDbLine
 10
305.2127004465
 20
312.7339110604
 30
0.0
 11
305.2127004465
 21
309.7339110604
 31
0.0
  0
LINE
  5
1E5
330
1F
100
AcDbEntity
  8
0
  6
CONTINUOUS
 62
     7
100
AcDbLine
 10
390.9127004465
 20
321.9839110604
 30
0.0
 11
390.9127004465
 21
330.4839110604
 31
0.0
  0
LINE
  5
1E6
330
1F
100
AcDbEntity
  8
0
  6
CONTINUOUS
 62
     7
100
AcDbLine
 10
393.9127004465
 20
304.9839110604
 30
0.0
 11
393.9127004465
 21
300.7339110604
 31
0.0
  0
LINE
  5
1E7
330
1F
100
AcDbEntity
  8
0
  6
CONTINUOUS
 62
     7
100
AcDbLine
 10
351.6127004465
 20
351.7339110604
 30
0.0
 11
351.6127004465
 21
354.7339110604
 31
0.0
  0
LINE
  5
1E8
330
1F
100
AcDbEntity
  8
0
  6
CONTINUOUS
 62
     7
100
AcDbLine
 10
388.6127004465
 20
309.7339110604
 30
0.0
 11
388.6127004465
 21
312.7339110604
 31
0.0
  0
LINE
  5
1E9
330
1F
100
AcDbEntity
  8
0
  6
CONTINUOUS
 62
     7
100
AcDbLine
 10
302.9127004465
 20
330.4839110604
 30
0.0
 11
299.9127004465
 21
330.4839110604
 31
0.0
  0
LINE
  5
1EA
330
1F
100
AcDbEntity
  8
0
  6
CONTINUOUS
 62
     7
100
AcDbLine
 10
388.6127004465
 20
312.7339110604
 30
0.0
 11
384.6127004465
 21
312.7339110604
 31
0.0
  0
LINE
  5
1EB
330
1F
100
AcDbEntity
  8
0
  6
CONTINUOUS
 62
     7
100
AcDbLine
 10
384.6127004465
 20
312.7339110604
 30
0.0
 11
384.6127004465
 21
309.7339110604
 31
0.0
  0
LINE
  5
1EC
330
1F
100
AcDbEntity
  8
0
  6
CONTINUOUS
 62
     7
100
AcDbLine
 10
304.6127004465
 20
351.7339110604
 30
0.0
 11
299.9127004465
 21
351.7339110604
 31
0.0
  0
LINE
  5
1ED
330
1F
100
AcDbEntity
  8
0
  6
CONTINUOUS
 62
     7
100
AcDbLine
 10
305.2127004465
 20
309.7339110604
 30
0.0
 11
309.2127004465
 21
309.7339110604
 31
0.0
  0
LINE
  5
1EE
330
1F
100
AcDbEntity
  8
0
  6
CONTINUOUS
 62
     7
100
AcDbLine
 10
309.2127004465
 20
309.7339110604
 30
0.0
 11
309.2127004465
 21
312.7339110604
 31
0.0
  0
LINE
  5
1EF
330
1F
100
AcDbEntity
  8
0
  6
CONTINUOUS
 62
     7
100
AcDbLine
 10
322.4682560021
 20
303.7339110604
 30
0.0
 11
312.6904782243
 21
303.7339110604
 31
0.0
  0
LINE
  5
1F0
330
1F
100
AcDbEntity
  8
0
  6
CONTINUOUS
 62
     7
100
AcDbLine
 10
322.4682560021
 20
306.7339110604
 30
0.0
 11
322.4682560021
 21
303.7339110604
 31
0.0
  0
LINE
  5
1F1
330
1F
100
AcDbEntity
  8
0
  6
CONTINUOUS
 62
     7
100
AcDbLine
 10
299.9127004465
 20
321.9839110604
 30
0.0
 11
302.9127004465
 21
321.9839110604
 31
0.0
  0
LINE
  5
1F2
330
1F
100
AcDbEntity
  8
0
  6
CONTINUOUS
 62
     7
100
AcDbLine
 10
304.6127004465
 20
354.7339110604
 30
0.0
 11
304.6127004465
 21
351.7339110604
 31
0.0
  0
LINE
  5
1F3
330
1F
100
AcDbEntity
  8
0
  6
CONTINUOUS
 62
     7
100
AcDbLine
 10
312.6904782243
 20
303.7339110604
 30
0.0
 11
312.6904782243
 21
306.7339110604
 31
0.0
  0
LINE
  5
1F4
330
1F
100
AcDbEntity
  8
0
  6
CONTINUOUS
 62
     7
100
AcDbLine
 10
302.9127004465
 20
304.9839110604
 30
0.0
 11
302.9127004465
 21
313.4839110604
 31
0.0
  0
LINE
  5
1F5
330
1F
100
AcDbEntity
  8
0
  6
CONTINUOUS
 62
     7
100
AcDbLine
 10
302.9127004465
 20
321.9839110604
 30
0.0
 11
302.9127004465
 21
330.4839110604
 31
0.0
  0
LINE
  5
1F6
330
1F
100
AcDbEntity
  8
0
  6
CONTINUOUS
 62
     7
100
AcDbLine
 10
312.6904782243
 20
306.7339110604
 30
0.0
 11
322.4682560021
 21
306.7339110604
 31
0.0
  0
LINE
  5
1F7
330
1F
100
AcDbEntity
  8
0
  6
CONTINUOUS
 62
     7
100
AcDbLine
 10
323.4127004465
 20
354.7339110604
 30
0.0
 11
323.4127004465
 21
351.7339110604
 31
0.0
  0
LINE
  5
1F8
330
1F
100
AcDbEntity
  8
0
  6
CONTINUOUS
 62
     7
100
AcDbLine
 10
384.6127004465
 20
309.7339110604
 30
0.0
 11
388.6127004465
 21
309.7339110604
 31
0.0
  0
LINE
  5
1F9
330
1F
100
AcDbEntity
  8
0
  6
CONTINUOUS
 62
     7
100
AcDbLine
 10
332.8127004465
 20
351.7339110604
 30
0.0
 11
332.8127004465
 21
354.7339110604
 31
0.0
  0
LINE
  5
1FA
330
1F
100
AcDbEntity
  8
0
  6
CONTINUOUS
 62
     7
100
AcDbLine
 10
361.0127004465
 20
354.7339110604
 30
0.0
 11
361.0127004465
 21
351.7339110604
 31
0.0
  0
LINE
  5
1FB
330
1F
100
AcDbEntity
  8
0
  6
CONTINUOUS
 62
     7
100
AcDbLine
 10
302.9127004465
 20
313.4839110604
 30
0.0
 11
299.9127004465
 21
313.4839110604
 31
0.0
  0
LINE
  5
1FC
330
1F
100
AcDbEntity
  8
0
  6
CONTINUOUS
 62
     7
100
AcDbLine
 10
342.2127004465
 20
351.7339110604
 30
0.0
 11
332.8127004465
 21
351.7339110604
 31
0.0
  0
LINE
  5
1FD
330
1F
100
AcDbEntity
  8
0
  6
CONTINUOUS
 62
     7
100
AcDbLine
 10
299.9127004465
 20
304.9839110604
 30
0.0
 11
302.9127004465
 21
304.9839110604
 31
0.0
  0
LINE
  5
1FE
330
1F
100
AcDbEntity
  8
0
  6
CONTINUOUS
 62
     7
100
AcDbLine
 10
342.2127004465
 20
354.7339110604
 30
0.0
 11
342.2127004465
 21
351.7339110604
 31
0.0
  0
LINE
  5
1FF
330
1F
100
AcDbEntity
  8
0
  6
CONTINUOUS
 62
     7
100
AcDbLine
 10
323.4127004465
 20
351.7339110604
 30
0.0
 11
314.0127004465
 21
351.7339110604
 31
0.0
  0
LINE
  5
200
330
1F
100
AcDbEntity
  8
0
  6
CONTINUOUS
 62
     7
100
AcDbLine
 10
314.0127004465
 20
351.7339110604
 30
0.0
 11
314.0127004465
 21
354.7339110604
 31
0.0
  0
LINE
  5
201
330
1F
100
AcDbEntity
  8
0
  6
CONTINUOUS
 62
     7
100
AcDbLine
 10
393.9127004465
 20
395.9839110604
 30
0.0
 11
393.9127004465
 21
387.4839110604
 31
0.0
  0
LINE
  5
202
330
1F
100
AcDbEntity
  8
0
  6
CONTINUOUS
 62
     7
100
AcDbLine
 10
390.9127004465
 20
378.9839110604
 30
0.0
 11
390.9127004465
 21
387.4839110604
 31
0.0
  0
LINE
  5
203
330
1F
100
AcDbEntity
  8
0
  6
CONTINUOUS
 62
     7
100
AcDbLine
 10
393.9127004465
 20
378.9839110604
 30
0.0
 11
390.9127004465
 21
378.9839110604
 31
0.0
  0
LINE
  5
204
330
1F
100
AcDbEntity
  8
0
  6
CONTINUOUS
 62
     7
100
AcDbLine
 10
393.9127004465
 20
378.9839110604
 30
0.0
 11
393.9127004465
 21
370.4839110604
 31
0.0
  0
LINE
  5
205
330
1F
100
AcDbEntity
  8
0
  6
CONTINUOUS
 62
     7
100
AcDbLine
 10
390.9127004465
 20
361.9839110604
 30
0.0
 11
390.9127004465
 21
370.4839110604
 31
0.0
  0
LINE
  5
206
330
1F
100
AcDbEntity
  8
0
  6
CONTINUOUS
 62
     7
100
AcDbLine
 10
393.9127004465
 20
361.9839110604
 30
0.0
 11
393.9127004465
 21
357.7339110604
 31
0.0
  0
LINE
  5
207
330
1F
100
AcDbEntity
  8
0
  6
CONTINUOUS
 62
     7
100
AcDbLine
 10
299.9127004465
 20
357.7339110604
 30
0.0
 11
299.9127004465
 21
361.9839110604
 31
0.0
  0
LINE
  5
208
330
1F
100
AcDbEntity
  8
0
  6
CONTINUOUS
 62
     7
100
AcDbLine
 10
299.9127004465
 20
361.9839110604
 30
0.0
 11
302.9127004465
 21
361.9839110604
 31
0.0
  0
LINE
  5
209
330
1F
100
AcDbEntity
  8
0
  6
CONTINUOUS
 62
     7
100
AcDbLine
 10
302.9127004465
 20
361.9839110604
 30
0.0
 11
302.9127004465
 21
370.4839110604
 31
0.0
  0
LINE
  5
20A
330
1F
100
AcDbEntity
  8
0
  6
CONTINUOUS
 62
     7
100
AcDbLine
 10
302.9127004465
 20
370.4839110604
 30
0.0
 11
299.9127004465
 21
370.4839110604
 31
0.0
  0
LINE
  5
20B
330
1F
100
AcDbEntity
  8
0
  6
CONTINUOUS
 62
     7
100
AcDbLine
 10
299.9127004465
 20
370.4839110604
 30
0.0
 11
299.9127004465
 21
378.9839110604
 31
0.0
  0
LINE
  5
20C
330
1F
100
AcDbEntity
  8
0
  6
CONTINUOUS
 62
     7
100
AcDbLine
 10
299.9127004465
 20
378.9839110604
 30
0.0
 11
302.9127004465
 21
378.9839110604
 31
0.0
  0
LINE
  5
20D
330
1F
100
AcDbEntity
  8
0
  6
CONTINUOUS
 62
     7
100
AcDbLine
 10
302.9127004465
 20
378.9839110604
 30
0.0
 11
302.9127004465
 21
387.4839110604
 31
0.0
  0
LINE
  5
20E
330
1F
100
AcDbEntity
  8
0
  6
CONTINUOUS
 62
     7
100
AcDbLine
 10
302.9127004465
 20
387.4839110604
 30
0.0
 11
299.9127004465
 21
387.4839110604
 31
0.0
  0
LINE
  5
20F
330
1F
100
AcDbEntity
  8
0
  6
CONTINUOUS
 62
     7
100
AcDbLine
 10
299.9127004465
 20
387.4839110604
 30
0.0
 11
299.9127004465
 21
395.9839110604
 31
0.0
  0
LINE
  5
210
330
1F
100
AcDbEntity
  8
0
  6
CONTINUOUS
 62
     7
100
AcDbLine
 10
299.9127004465
 20
395.9839110604
 30
0.0
 11
302.9127004465
 21
395.9839110604
 31
0.0
  0
LINE
  5
211
330
1F
100
AcDbEntity
  8
0
  6
CONTINUOUS
 62
     7
100
AcDbLine
 10
302.9127004465
 20
395.9839110604
 30
0.0
 11
302.9127004465
 21
404.4839110604
 31
0.0
  0
LINE
  5
212
330
1F
100
AcDbEntity
  8
0
  6
CONTINUOUS
 62
     7
100
AcDbLine
 10
302.9127004465
 20
404.4839110604
 30
0.0
 11
299.9127004465
 21
404.4839110604
 31
0.0
  0
LINE
  5
213
330
1F
100
AcDbEntity
  8
0
  6
CONTINUOUS
 62
     7
100
AcDbLine
 10
299.9127004465
 20
404.4839110604
 30
0.0
 11
299.9127004465
 21
408.7339110604
 31
0.0
  0
LINE
  5
214
330
1F
100
AcDbEntity
  8
0
  6
CONTINUOUS
 62
     7
100
AcDbLine
 10
304.6127004465
 20
408.7339110604
 30
0.0
 11
299.9127004465
 21
408.7339110604
 31
0.0
  0
LINE
  5
215
330
1F
100
AcDbEntity
  8
0
  6
CONTINUOUS
 62
     7
100
AcDbLine
 10
304.6127004465
 20
411.7339110604
 30
0.0
 11
304.6127004465
 21
408.7339110604
 31
0.0
  0
LINE
  5
216
330
1F
100
AcDbEntity
  8
0
  6
CONTINUOUS
 62
     7
100
AcDbLine
 10
304.6127004465
 20
411.7339110604
 30
0.0
 11
314.0127004465
 21
411.7339110604
 31
0.0
  0
LINE
  5
217
330
1F
100
AcDbEntity
  8
0
  6
CONTINUOUS
 62
     7
100
AcDbLine
 10
314.0127004465
 20
408.7339110604
 30
0.0
 11
314.0127004465
 21
411.7339110604
 31
0.0
  0
LINE
  5
218
330
1F
100
AcDbEntity
  8
0
  6
CONTINUOUS
 62
     7
100
AcDbLine
 10
323.4127004465
 20
408.7339110604
 30
0.0
 11
314.0127004465
 21
408.7339110604
 31
0.0
  0
LINE
  5
219
330
1F
100
AcDbEntity
  8
0
  6
CONTINUOUS
 62
     7
100
AcDbLine
 10
323.4127004465
 20
411.7339110604
 30
0.0
 11
323.4127004465
 21
408.7339110604
 31
0.0
  0
LINE
  5
21A
330
1F
100
AcDbEntity
  8
0
  6
CONTINUOUS
 62
     7
100
AcDbLine
 10
323.4127004465
 20
411.7339110604
 30
0.0
 11
332.8127004465
 21
411.7339110604
 31
0.0
  0
LINE
  5
21B
330
1F
100
AcDbEntity
  8
0
  6
CONTINUOUS
 62
     7
100
AcDbLine
 10
332.8127004465
 20
408.7339110604
 30
0.0
 11
332.8127004465
 21
411.7339110604
 31
0.0
  0
LINE
  5
21C
330
1F
100
AcDbEntity
  8
0
  6
CONTINUOUS
 62
     7
100
AcDbLine
 10
342.2127004465
 20
408.7339110604
 30
0.0
 11
332.8127004465
 21
408.7339110604
 31
0.0
  0
LINE
  5
21D
330
1F
100
AcDbEntity
  8
0
  6
CONTINUOUS
 62
     7
100
AcDbLine
 10
342.2127004465
 20
411.7339110604
 30
0.0
 11
342.2127004465
 21
408.7339110604
 31
0.0
  0
LINE
  5
21E
330
1F
100
AcDbEntity
  8
0
  6
CONTINUOUS
 62
     7
100
AcDbLine
 10
342.2127004465
 20
411.7339110604
 30
0.0
 11
351.6127004465
 21
411.7339110604
 31
0.0
  0
LINE
  5
21F
330
1F
100
AcDbEntity
  8
0
  6
CONTINUOUS
 62
     7
100
AcDbLine
 10
351.6127004465
 20
408.7339110604
 30
0.0
 11
351.6127004465
 21
411.7339110604
 31
0.0
  0
LINE
  5
220
330
1F
100
AcDbEntity
  8
0
  6
CONTINUOUS
 62
     7
100
AcDbLine
 10
361.0127004465
 20
408.7339110604
 30
0.0
 11
351.6127004465
 21
408.7339110604
 31
0.0
  0
LINE
  5
221
330
1F
100
AcDbEntity
  8
0
  6
CONTINUOUS
 62
     7
100
AcDbLine
 10
361.0127004465
 20
411.7339110604
 30
0.0
 11
361.0127004465
 21
408.7339110604
 31
0.0
  0
LINE
  5
222
330
1F
100
AcDbEntity
  8
0
  6
CONTINUOUS
 62
     7
100
AcDbLine
 10
361.0127004465
 20
411.7339110604
 30
0.0
 11
370.4127004465
 21
411.7339110604
 31
0.0
  0
LINE
  5
223
330
1F
100
AcDbEntity
  8
0
  6
CONTINUOUS
 62
     7
100
AcDbLine
 10
370.4127004465
 20
408.7339110604
 30
0.0
 11
370.4127004465
 21
411.7339110604
 31
0.0
  0
LINE
  5
224
330
1F
100
AcDbEntity
  8
0
  6
CONTINUOUS
 62
     7
100
AcDbLine
 10
379.8127004465
 20
408.7339110604
 30
0.0
 11
370.4127004465
 21
408.7339110604
 31
0.0
  0
LINE
  5
225
330
1F
100
AcDbEntity
  8
0
  6
CONTINUOUS
 62
     7
100
AcDbLine
 10
379.8127004465
 20
411.7339110604
 30
0.0
 11
379.8127004465
 21
408.7339110604
 31
0.0
  0
LINE
  5
226
330
1F
100
AcDbEntity
  8
0
  6
CONTINUOUS
 62
     7
100
AcDbLine
 10
393.9127004465
 20
408.7339110604
 30
0.0
 11
389.2127004465
 21
408.7339110604
 31
0.0
  0
LINE
  5
227
330
1F
100
AcDbEntity
  8
0
  6
CONTINUOUS
 62
     7
100
AcDbLine
 10
393.9127004465
 20
408.7339110604
 30
0.0
 11
393.9127004465
 21
404.4839110604
 31
0.0
  0
LINE
  5
228
330
1F
100
AcDbEntity
  8
0
  6
CONTINUOUS
 62
     7
100
AcDbLine
 10
390.9127004465
 20
395.9839110604
 30
0.0
 11
390.9127004465
 21
404.4839110604
 31
0.0
  0
LINE
  5
229
330
1F
100
AcDbEntity
  8
0
  6
CONTINUOUS
 62
     7
100
AcDbLine
 10
381.1349226688
 20
360.7339110604
 30
0.0
 11
371.357144891
 21
360.7339110604
 31
0.0
  0
LINE
  5
22A
330
1F
100
AcDbEntity
  8
0
  6
CONTINUOUS
 62
     7
100
AcDbLine
 10
381.1349226688
 20
363.7339110604
 30
0.0
 11
381.1349226688
 21
360.7339110604
 31
0.0
  0
LINE
  5
22B
330
1F
100
AcDbEntity
  8
0
  6
CONTINUOUS
 62
     7
100
AcDbLine
 10
371.357144891
 20
363.7339110604
 30
0.0
 11
381.1349226688
 21
363.7339110604
 31
0.0
  0
LINE
  5
22C
330
1F
100
AcDbEntity
  8
0
  6
CONTINUOUS
 62
     7
100
AcDbLine
 10
371.357144891
 20
360.7339110604
 30
0.0
 11
371.357144891
 21
363.7339110604
 31
0.0
  0
LINE
  5
22D
330
1F
100
AcDbEntity
  8
0
  6
CONTINUOUS
 62
     7
100
AcDbLine
 10
351.8015893354
 20
360.7339110604
 30
0.0
 11
342.0238115576
 21
360.7339110604
 31
0.0
  0
LINE
  5
22E
330
1F
100
AcDbEntity
  8
0
  6
CONTINUOUS
 62
     7
100
AcDbLine
 10
351.8015893354
 20
363.7339110604
 30
0.0
 11
351.8015893354
 21
360.7339110604
 31
0.0
  0
LINE
  5
22F
330
1F
100
AcDbEntity
  8
0
  6
CONTINUOUS
 62
     7
100
AcDbLine
 10
342.0238115576
 20
363.7339110604
 30
0.0
 11
351.8015893354
 21
363.7339110604
 31
0.0
  0
LINE
  5
230
330
1F
100
AcDbEntity
  8
0
  6
CONTINUOUS
 62
     7
100
AcDbLine
 10
342.0238115576
 20
360.7339110604
 30
0.0
 11
342.0238115576
 21
363.7339110604
 31
0.0
  0
LINE
  5
231
330
1F
100
AcDbEntity
  8
0
  6
CONTINUOUS
 62
     7
100
AcDbLine
 10
322.4682560021
 20
360.7339110604
 30
0.0
 11
312.6904782243
 21
360.7339110604
 31
0.0
  0
LINE
  5
232
330
1F
100
AcDbEntity
  8
0
  6
CONTINUOUS
 62
     7
100
AcDbLine
 10
322.4682560021
 20
363.7339110604
 30
0.0
 11
322.4682560021
 21
360.7339110604
 31
0.0
  0
LINE
  5
233
330
1F
100
AcDbEntity
  8
0
  6
CONTINUOUS
 62
     7
100
AcDbLine
 10
312.6904782243
 20
363.7339110604
 30
0.0
 11
322.4682560021
 21
363.7339110604
 31
0.0
  0
LINE
  5
234
330
1F
100
AcDbEntity
  8
0
  6
CONTINUOUS
 62
     7
100
AcDbLine
 10
312.6904782243
 20
360.7339110604
 30
0.0
 11
312.6904782243
 21
363.7339110604
 31
0.0
  0
LINE
  5
235
330
1F
100
AcDbEntity
  8
0
  6
CONTINUOUS
 62
     7
100
AcDbLine
 10
305.2127004465
 20
366.7339110604
 30
0.0
 11
309.2127004465
 21
366.7339110604
 31
0.0
  0
LINE
  5
236
330
1F
100
AcDbEntity
  8
0
  6
CONTINUOUS
 62
     7
100
AcDbLine
 10
309.2127004465
 20
366.7339110604
 30
0.0
 11
309.2127004465
 21
369.7339110604
 31
0.0
  0
LINE
  5
237
330
1F
100
AcDbEntity
  8
0
  6
CONTINUOUS
 62
     7
100
AcDbLine
 10
309.2127004465
 20
369.7339110604
 30
0.0
 11
305.2127004465
 21
369.7339110604
 31
0.0
  0
LINE
  5
238
330
1F
100
AcDbEntity
  8
0
  6
CONTINUOUS
 62
     7
100
AcDbLine
 10
305.2127004465
 20
369.7339110604
 30
0.0
 11
305.2127004465
 21
366.7339110604
 31
0.0
  0
LINE
  5
239
330
1F
100
AcDbEntity
  8
0
  6
CONTINUOUS
 62
     7
100
AcDbLine
 10
384.6127004465
 20
369.7339110604
 30
0.0
 11
384.6127004465
 21
366.7339110604
 31
0.0
  0
LINE
  5
23A
330
1F
100
AcDbEntity
  8
0
  6
CONTINUOUS
 62
     7
100
AcDbLine
 10
384.6127004465
 20
366.7339110604
 30
0.0
 11
388.6127004465
 21
366.7339110604
 31
0.0
  0
LINE
  5
23B
330
1F
100
AcDbEntity
  8
0
  6
CONTINUOUS
 62
     7
100
AcDbLine
 10
390.9127004465
 20
370.4839110604
 30
0.0
 11
393.9127004465
 21
370.4839110604
 31
0.0
  0
LINE
  5
23C
330
1F
100
AcDbEntity
  8
0
  6
CONTINUOUS
 62
     7
100
AcDbLine
 10
379.8127004465
 20
411.7339110604
 30
0.0
 11
389.2127004465
 21
411.7339110604
 31
0.0
  0
LINE
  5
23D
330
1F
100
AcDbEntity
  8
0
  6
CONTINUOUS
 62
     7
100
AcDbLine
 10
389.2127004465
 20
408.7339110604
 30
0.0
 11
389.2127004465
 21
411.7339110604
 31
0.0
  0
LINE
  5
23E
330
1F
100
AcDbEntity
  8
0
  6
CONTINUOUS
 62
     7
100
AcDbLine
 10
393.9127004465
 20
395.9839110604
 30
0.0
 11
390.9127004465
 21
395.9839110604
 31
0.0
  0
LINE
  5
23F
330
1F
100
AcDbEntity
  8
0
  6
CONTINUOUS
 62
     7
100
AcDbLine
 10
390.9127004465
 20
404.4839110604
 30
0.0
 11
393.9127004465
 21
404.4839110604
 31
0.0
  0
LINE
  5
240
330
1F
100
AcDbEntity
  8
0
  6
CONTINUOUS
 62
     7
100
AcDbLine
 10
393.9127004465
 20
361.9839110604
 30
0.0
 11
390.9127004465
 21
361.9839110604
 31
0.0
  0
LINE
  5
241
330
1F
100
AcDbEntity
  8
0
  6
CONTINUOUS
 62
     7
100
AcDbLine
 10
388.6127004465
 20
369.7339110604
 30
0.0
 11
384.6127004465
 21
369.7339110604
 31
0.0
  0
LINE
  5
242
330
1F
100
AcDbEntity
  8
0
  6
CONTINUOUS
 62
     7
100
AcDbLine
 10
393.9127004465
 20
357.7339110604
 30
0.0
 11
299.9127004465
 21
357.7339110604
 31
0.0
  0
LINE
  5
243
330
1F
100
AcDbEntity
  8
0
  6
CONTINUOUS
 62
     7
100
AcDbLine
 10
388.6127004465
 20
366.7339110604
 30
0.0
 11
388.6127004465
 21
369.7339110604
 31
0.0
  0
LINE
  5
244
330
1F
100
AcDbEntity
  8
0
  6
CONTINUOUS
 62
     7
100
AcDbLine
 10
390.9127004465
 20
387.4839110604
 30
0.0
 11
393.9127004465
 21
387.4839110604
 31
0.0
  0
LINE
  5
245
330
1F
100
AcDbEntity
  8
0
  6
CONTINUOUS
 62
     7
100
AcDbLine
 10
505.9896712752
 20
203.7339110604
 30
0.0
 11
510.6896712752
 21
203.7339110604
 31
0.0
  0
LINE
  5
246
330
1F
100
AcDbEntity
  8
0
  6
CONTINUOUS
 62
     7
100
AcDbLine
 10
505.9896712752
 20
206.7339110604
 30
0.0
 11
496.5896712752
 21
206.7339110604
 31
0.0
  0
LINE
  5
247
330
1F
100
AcDbEntity
  8
0
  6
CONTINUOUS
 62
     7
100
AcDbLine
 10
496.5896712752
 20
206.7339110604
 30
0.0
 11
496.5896712752
 21
203.7339110604
 31
0.0
  0
LINE
  5
248
330
1F
100
AcDbEntity
  8
0
  6
CONTINUOUS
 62
     7
100
AcDbLine
 10
487.1896712752
 20
203.7339110604
 30
0.0
 11
496.5896712752
 21
203.7339110604
 31
0.0
  0
LINE
  5
249
330
1F
100
AcDbEntity
  8
0
  6
CONTINUOUS
 62
     7
100
AcDbLine
 10
468.3896712752
 20
203.7339110604
 30
0.0
 11
477.7896712752
 21
203.7339110604
 31
0.0
  0
LINE
  5
24A
330
1F
100
AcDbEntity
  8
0
  6
CONTINUOUS
 62
     7
100
AcDbLine
 10
449.5896712752
 20
203.7339110604
 30
0.0
 11
458.9896712752
 21
203.7339110604
 31
0.0
  0
LINE
  5
24B
330
1F
100
AcDbEntity
  8
0
  6
CONTINUOUS
 62
     7
100
AcDbLine
 10
430.7896712752
 20
203.7339110604
 30
0.0
 11
440.1896712752
 21
203.7339110604
 31
0.0
  0
LINE
  5
24C
330
1F
100
AcDbEntity
  8
0
  6
CONTINUOUS
 62
     7
100
AcDbLine
 10
416.6896712752
 20
208.7339110604
 30
0.0
 11
416.6896712752
 21
203.7339110604
 31
0.0
  0
LINE
  5
24D
330
1F
100
AcDbEntity
  8
0
  6
CONTINUOUS
 62
     7
100
AcDbLine
 10
416.6896712752
 20
228.7339110604
 30
0.0
 11
416.6896712752
 21
218.7339110604
 31
0.0
  0
LINE
  5
24E
330
1F
100
AcDbEntity
  8
0
  6
CONTINUOUS
 62
     7
100
AcDbLine
 10
416.6896712752
 20
248.7339110604
 30
0.0
 11
416.6896712752
 21
238.7339110604
 31
0.0
  0
LINE
  5
24F
330
1F
100
AcDbEntity
  8
0
  6
CONTINUOUS
 62
     7
100
AcDbLine
 10
416.6896712752
 20
268.7339110604
 30
0.0
 11
416.6896712752
 21
258.7339110604
 31
0.0
  0
LINE
  5
250
330
1F
100
AcDbEntity
  8
0
  6
CONTINUOUS
 62
     7
100
AcDbLine
 10
421.3896712752
 20
303.7339110604
 30
0.0
 11
416.6896712752
 21
303.7339110604
 31
0.0
  0
LINE
  5
251
330
1F
100
AcDbEntity
  8
0
  6
CONTINUOUS
 62
     7
100
AcDbLine
 10
421.3896712752
 20
300.7339110604
 30
0.0
 11
421.3896712752
 21
303.7339110604
 31
0.0
  0
LINE
  5
252
330
1F
100
AcDbEntity
  8
0
  6
CONTINUOUS
 62
     7
100
AcDbLine
 10
430.7896712752
 20
300.7339110604
 30
0.0
 11
421.3896712752
 21
300.7339110604
 31
0.0
  0
LINE
  5
253
330
1F
100
AcDbEntity
  8
0
  6
CONTINUOUS
 62
     7
100
AcDbLine
 10
430.7896712752
 20
303.7339110604
 30
0.0
 11
430.7896712752
 21
300.7339110604
 31
0.0
  0
LINE
  5
254
330
1F
100
AcDbEntity
  8
0
  6
CONTINUOUS
 62
     7
100
AcDbLine
 10
440.1896712752
 20
303.7339110604
 30
0.0
 11
430.7896712752
 21
303.7339110604
 31
0.0
  0
LINE
  5
255
330
1F
100
AcDbEntity
  8
0
  6
CONTINUOUS
 62
     7
100
AcDbLine
 10
440.1896712752
 20
300.7339110604
 30
0.0
 11
440.1896712752
 21
303.7339110604
 31
0.0
  0
LINE
  5
256
330
1F
100
AcDbEntity
  8
0
  6
CONTINUOUS
 62
     7
100
AcDbLine
 10
449.5896712752
 20
300.7339110604
 30
0.0
 11
440.1896712752
 21
300.7339110604
 31
0.0
  0
LINE
  5
257
330
1F
100
AcDbEntity
  8
0
  6
CONTINUOUS
 62
     7
100
AcDbLine
 10
449.5896712752
 20
303.7339110604
 30
0.0
 11
449.5896712752
 21
300.7339110604
 31
0.0
  0
LINE
  5
258
330
1F
100
AcDbEntity
  8
0
  6
CONTINUOUS
 62
     7
100
AcDbLine
 10
458.9896712752
 20
303.7339110604
 30
0.0
 11
449.5896712752
 21
303.7339110604
 31
0.0
  0
LINE
  5
259
330
1F
100
AcDbEntity
  8
0
  6
CONTINUOUS
 62
     7
100
AcDbLine
 10
458.9896712752
 20
300.7339110604
 30
0.0
 11
458.9896712752
 21
303.7339110604
 31
0.0
  0
LINE
  5
25A
330
1F
100
AcDbEntity
  8
0
  6
CONTINUOUS
 62
     7
100
AcDbLine
 10
468.3896712752
 20
300.7339110604
 30
0.0
 11
458.9896712752
 21
300.7339110604
 31
0.0
  0
LINE
  5
25B
330
1F
100
AcDbEntity
  8
0
  6
CONTINUOUS
 62
     7
100
AcDbLine
 10
468.3896712752
 20
303.7339110604
 30
0.0
 11
468.3896712752
 21
300.7339110604
 31
0.0
  0
LINE
  5
25C
330
1F
100
AcDbEntity
  8
0
  6
CONTINUOUS
 62
     7
100
AcDbLine
 10
477.7896712752
 20
303.7339110604
 30
0.0
 11
468.3896712752
 21
303.7339110604
 31
0.0
  0
LINE
  5
25D
330
1F
100
AcDbEntity
  8
0
  6
CONTINUOUS
 62
     7
100
AcDbLine
 10
477.7896712752
 20
300.7339110604
 30
0.0
 11
477.7896712752
 21
303.7339110604
 31
0.0
  0
LINE
  5
25E
330
1F
100
AcDbEntity
  8
0
  6
CONTINUOUS
 62
     7
100
AcDbLine
 10
487.1896712752
 20
300.7339110604
 30
0.0
 11
477.7896712752
 21
300.7339110604
 31
0.0
  0
LINE
  5
25F
330
1F
100
AcDbEntity
  8
0
  6
CONTINUOUS
 62
     7
100
AcDbLine
 10
487.1896712752
 20
303.7339110604
 30
0.0
 11
487.1896712752
 21
300.7339110604
 31
0.0
  0
LINE
  5
260
330
1F
100
AcDbEntity
  8
0
  6
CONTINUOUS
 62
     7
100
AcDbLine
 10
496.5896712752
 20
303.7339110604
 30
0.0
 11
487.1896712752
 21
303.7339110604
 31
0.0
  0
LINE
  5
261
330
1F
100
AcDbEntity
  8
0
  6
CONTINUOUS
 62
     7
100
AcDbLine
 10
505.9896712752
 20
300.7339110604
 30
0.0
 11
496.5896712752
 21
300.7339110604
 31
0.0
  0
LINE
  5
262
330
1F
100
AcDbEntity
  8
0
  6
CONTINUOUS
 62
     7
100
AcDbLine
 10
505.9896712752
 20
303.7339110604
 30
0.0
 11
505.9896712752
 21
300.7339110604
 31
0.0
  0
LINE
  5
263
330
1F
100
AcDbEntity
  8
0
  6
CONTINUOUS
 62
     7
100
AcDbLine
 10
510.6896712752
 20
303.7339110604
 30
0.0
 11
505.9896712752
 21
303.7339110604
 31
0.0
  0
LINE
  5
264
330
1F
100
AcDbEntity
  8
0
  6
CONTINUOUS
 62
     7
100
AcDbLine
 10
505.9896712752
 20
203.7339110604
 30
0.0
 11
505.9896712752
 21
206.7339110604
 31
0.0
  0
LINE
  5
265
330
1F
100
AcDbEntity
  8
0
  6
CONTINUOUS
 62
     7
100
AcDbLine
 10
487.1896712752
 20
206.7339110604
 30
0.0
 11
477.7896712752
 21
206.7339110604
 31
0.0
  0
LINE
  5
266
330
1F
100
AcDbEntity
  8
0
  6
CONTINUOUS
 62
     7
100
AcDbLine
 10
477.7896712752
 20
206.7339110604
 30
0.0
 11
477.7896712752
 21
203.7339110604
 31
0.0
  0
LINE
  5
267
330
1F
100
AcDbEntity
  8
0
  6
CONTINUOUS
 62
     7
100
AcDbLine
 10
487.1896712752
 20
203.7339110604
 30
0.0
 11
487.1896712752
 21
206.7339110604
 31
0.0
  0
LINE
  5
268
330
1F
100
AcDbEntity
  8
0
  6
CONTINUOUS
 62
     7
100
AcDbLine
 10
468.3896712752
 20
206.7339110604
 30
0.0
 11
458.9896712752
 21
206.7339110604
 31
0.0
  0
LINE
  5
269
330
1F
100
AcDbEntity
  8
0
  6
CONTINUOUS
 62
     7
100
AcDbLine
 10
458.9896712752
 20
206.7339110604
 30
0.0
 11
458.9896712752
 21
203.7339110604
 31
0.0
  0
LINE
  5
26A
330
1F
100
AcDbEntity
  8
0
  6
CONTINUOUS
 62
     7
100
AcDbLine
 10
468.3896712752
 20
203.7339110604
 30
0.0
 11
468.3896712752
 21
206.7339110604
 31
0.0
  0
LINE
  5
26B
330
1F
100
AcDbEntity
  8
0
  6
CONTINUOUS
 62
     7
100
AcDbLine
 10
449.5896712752
 20
206.7339110604
 30
0.0
 11
440.1896712752
 21
206.7339110604
 31
0.0
  0
LINE
  5
26C
330
1F
100
AcDbEntity
  8
0
  6
CONTINUOUS
 62
     7
100
AcDbLine
 10
440.1896712752
 20
206.7339110604
 30
0.0
 11
440.1896712752
 21
203.7339110604
 31
0.0
  0
LINE
  5
26D
330
1F
100
AcDbEntity
  8
0
  6
CONTINUOUS
 62
     7
100
AcDbLine
 10
449.5896712752
 20
203.7339110604
 30
0.0
 11
449.5896712752
 21
206.7339110604
 31
0.0
  0
LINE
  5
26E
330
1F
100
AcDbEntity
  8
0
  6
CONTINUOUS
 62
     7
100
AcDbLine
 10
430.7896712752
 20
206.7339110604
 30
0.0
 11
421.3896712752
 21
206.7339110604
 31
0.0
  0
LINE
  5
26F
330
1F
100
AcDbEntity
  8
0
  6
CONTINUOUS
 62
     7
100
AcDbLine
 10
421.3896712752
 20
206.7339110604
 30
0.0
 11
421.3896712752
 21
203.7339110604
 31
0.0
  0
LINE
  5
270
330
1F
100
AcDbEntity
  8
0
  6
CONTINUOUS
 62
     7
100
AcDbLine
 10
430.7896712752
 20
203.7339110604
 30
0.0
 11
430.7896712752
 21
206.7339110604
 31
0.0
  0
LINE
  5
271
330
1F
100
AcDbEntity
  8
0
  6
CONTINUOUS
 62
     7
100
AcDbLine
 10
419.6896712752
 20
208.7339110604
 30
0.0
 11
416.6896712752
 21
208.7339110604
 31
0.0
  0
LINE
  5
272
330
1F
100
AcDbEntity
  8
0
  6
CONTINUOUS
 62
     7
100
AcDbLine
 10
419.6896712752
 20
218.7339110604
 30
0.0
 11
419.6896712752
 21
208.7339110604
 31
0.0
  0
LINE
  5
273
330
1F
100
AcDbEntity
  8
0
  6
CONTINUOUS
 62
     7
100
AcDbLine
 10
416.6896712752
 20
218.7339110604
 30
0.0
 11
419.6896712752
 21
218.7339110604
 31
0.0
  0
LINE
  5
274
330
1F
100
AcDbEntity
  8
0
  6
CONTINUOUS
 62
     7
100
AcDbLine
 10
419.6896712752
 20
228.7339110604
 30
0.0
 11
416.6896712752
 21
228.7339110604
 31
0.0
  0
LINE
  5
275
330
1F
100
AcDbEntity
  8
0
  6
CONTINUOUS
 62
     7
100
AcDbLine
 10
419.6896712752
 20
238.7339110604
 30
0.0
 11
419.6896712752
 21
228.7339110604
 31
0.0
  0
LINE
  5
276
330
1F
100
AcDbEntity
  8
0
  6
CONTINUOUS
 62
     7
100
AcDbLine
 10
416.6896712752
 20
238.7339110604
 30
0.0
 11
419.6896712752
 21
238.7339110604
 31
0.0
  0
LINE
  5
277
330
1F
100
AcDbEntity
  8
0
  6
CONTINUOUS
 62
     7
100
AcDbLine
 10
419.6896712752
 20
248.7339110604
 30
0.0
 11
416.6896712752
 21
248.7339110604
 31
0.0
  0
LINE
  5
278
330
1F
100
AcDbEntity
  8
0
  6
CONTINUOUS
 62
     7
100
AcDbLine
 10
419.6896712752
 20
258.7339110604
 30
0.0
 11
419.6896712752
 21
248.7339110604
 31
0.0
  0
LINE
  5
279
330
1F
100
AcDbEntity
  8
0
  6
CONTINUOUS
 62
     7
100
AcDbLine
 10
416.6896712752
 20
258.7339110604
 30
0.0
 11
419.6896712752
 21
258.7339110604
 31
0.0
  0
LINE
  5
27A
330
1F
100
AcDbEntity
  8
0
  6
CONTINUOUS
 62
     7
100
AcDbLine
 10
419.6896712752
 20
268.7339110604
 30
0.0
 11
416.6896712752
 21
268.7339110604
 31
0.0
  0
LINE
  5
27B
330
1F
100
AcDbEntity
  8
0
  6
CONTINUOUS
 62
     7
100
AcDbLine
 10
419.6896712752
 20
278.7339110604
 30
0.0
 11
419.6896712752
 21
268.7339110604
 31
0.0
  0
LINE
  5
27C
330
1F
100
AcDbEntity
  8
0
  6
CONTINUOUS
 62
     7
100
AcDbLine
 10
416.6896712752
 20
278.7339110604
 30
0.0
 11
419.6896712752
 21
278.7339110604
 31
0.0
  0
LINE
  5
27D
330
1F
100
AcDbEntity
  8
0
  6
CONTINUOUS
 62
     7
100
AcDbLine
 10
419.6896712752
 20
288.7339110604
 30
0.0
 11
416.6896712752
 21
288.7339110604
 31
0.0
  0
LINE
  5
27E
330
1F
100
AcDbEntity
  8
0
  6
CONTINUOUS
 62
     7
100
AcDbLine
 10
419.6896712752
 20
298.7339110604
 30
0.0
 11
419.6896712752
 21
288.7339110604
 31
0.0
  0
LINE
  5
27F
330
1F
100
AcDbEntity
  8
0
  6
CONTINUOUS
 62
     7
100
AcDbLine
 10
416.6896712752
 20
298.7339110604
 30
0.0
 11
419.6896712752
 21
298.7339110604
 31
0.0
  0
LINE
  5
280
330
1F
100
AcDbEntity
  8
0
  6
CONTINUOUS
 62
     7
100
AcDbLine
 10
510.6896712752
 20
218.7339110604
 30
0.0
 11
507.6896712752
 21
218.7339110604
 31
0.0
  0
LINE
  5
281
330
1F
100
AcDbEntity
  8
0
  6
CONTINUOUS
 62
     7
100
AcDbLine
 10
507.6896712752
 20
218.7339110604
 30
0.0
 11
507.6896712752
 21
208.7339110604
 31
0.0
  0
LINE
  5
282
330
1F
100
AcDbEntity
  8
0
  6
CONTINUOUS
 62
     7
100
AcDbLine
 10
507.6896712752
 20
208.7339110604
 30
0.0
 11
510.6896712752
 21
208.7339110604
 31
0.0
  0
LINE
  5
283
330
1F
100
AcDbEntity
  8
0
  6
CONTINUOUS
 62
     7
100
AcDbLine
 10
510.6896712752
 20
238.7339110604
 30
0.0
 11
507.6896712752
 21
238.7339110604
 31
0.0
  0
LINE
  5
284
330
1F
100
AcDbEntity
  8
0
  6
CONTINUOUS
 62
     7
100
AcDbLine
 10
507.6896712752
 20
238.7339110604
 30
0.0
 11
507.6896712752
 21
228.7339110604
 31
0.0
  0
LINE
  5
285
330
1F
100
AcDbEntity
  8
0
  6
CONTINUOUS
 62
     7
100
AcDbLine
 10
507.6896712752
 20
228.7339110604
 30
0.0
 11
510.6896712752
 21
228.7339110604
 31
0.0
  0
LINE
  5
286
330
1F
100
AcDbEntity
  8
0
  6
CONTINUOUS
 62
     7
100
AcDbLine
 10
510.6896712752
 20
258.7339110604
 30
0.0
 11
507.6896712752
 21
258.7339110604
 31
0.0
  0
LINE
  5
287
330
1F
100
AcDbEntity
  8
0
  6
CONTINUOUS
 62
     7
100
AcDbLine
 10
507.6896712752
 20
258.7339110604
 30
0.0
 11
507.6896712752
 21
248.7339110604
 31
0.0
  0
LINE
  5
288
330
1F
100
AcDbEntity
  8
0
  6
CONTINUOUS
 62
     7
100
AcDbLine
 10
507.6896712752
 20
248.7339110604
 30
0.0
 11
510.6896712752
 21
248.7339110604
 31
0.0
  0
LINE
  5
289
330
1F
100
AcDbEntity
  8
0
  6
CONTINUOUS
 62
     7
100
AcDbLine
 10
510.6896712752
 20
278.7339110604
 30
0.0
 11
507.6896712752
 21
278.7339110604
 31
0.0
  0
LINE
  5
28A
330
1F
100
AcDbEntity
  8
0
  6
CONTINUOUS
 62
     7
100
AcDbLine
 10
507.6896712752
 20
278.7339110604
 30
0.0
 11
507.6896712752
 21
268.7339110604
 31
0.0
  0
LINE
  5
28B
330
1F
100
AcDbEntity
  8
0
  6
CONTINUOUS
 62
     7
100
AcDbLine
 10
507.6896712752
 20
268.7339110604
 30
0.0
 11
510.6896712752
 21
268.7339110604
 31
0.0
  0
LINE
  5
28C
330
1F
100
AcDbEntity
  8
0
  6
CONTINUOUS
 62
     7
100
AcDbLine
 10
510.6896712752
 20
298.7339110604
 30
0.0
 11
507.6896712752
 21
298.7339110604
 31
0.0
  0
LINE
  5
28D
330
1F
100
AcDbEntity
  8
0
  6
CONTINUOUS
 62
     7
100
AcDbLine
 10
507.6896712752
 20
298.7339110604
 30
0.0
 11
507.6896712752
 21
288.7339110604
 31
0.0
  0
LINE
  5
28E
330
1F
100
AcDbEntity
  8
0
  6
CONTINUOUS
 62
     7
100
AcDbLine
 10
507.6896712752
 20
288.7339110604
 30
0.0
 11
510.6896712752
 21
288.7339110604
 31
0.0
  0
CIRCLE
  5
28F
330
1F
100
AcDbEntity
  8
0
  6
CONTINUOUS
 62
     7
100
AcDbCircle
 10
481.6896712752
 20
278.2339110604
 30
0.0
 40
1.349999999999966
  0
CIRCLE
  5
290
330
1F
100
AcDbEntity
  8
0
  6
CONTINUOUS
 62
     7
100
AcDbCircle
 10
423.6896712752
 20
278.2339110604
 30
0.0
 40
1.349999999999966
  0
CIRCLE
  5
291
330
1F
100
AcDbEntity
  8
0
  6
CONTINUOUS
 62
     7
100
AcDbCircle
 10
423.6896712752
 20
229.2339110604
 30
0.0
 40
1.350000000000023
  0
CIRCLE
  5
292
330
1F
100
AcDbEntity
  8
0
  6
CONTINUOUS
 62
     7
100
AcDbCircle
 10
481.6896712752
 20
229.2339110604
 30
0.0
 40
1.350000000000023
  0
LINE
  5
293
330
1F
100
AcDbEntity
  8
0
  6
CONTINUOUS
 62
     7
100
AcDbLine
 10
416.6896712752
 20
203.7339110604
 30
0.0
 11
421.3896712752
 21
203.7339110604
 31
0.0
  0
LINE
  5
294
330
1F
100
AcDbEntity
  8
0
  6
CONTINUOUS
 62
     7
100
AcDbLine
 10
510.6896712752
 20
298.7339110604
 30
0.0
 11
510.6896712752
 21
303.7339110604
 31
0.0
  0
LINE
  5
295
330
1F
100
AcDbEntity
  8
0
  6
CONTINUOUS
 62
     7
100
AcDbLine
 10
510.6896712752
 20
278.7339110604
 30
0.0
 11
510.6896712752
 21
288.7339110604
 31
0.0
  0
LINE
  5
296
330
1F
100
AcDbEntity
  8
0
  6
CONTINUOUS
 62
     7
100
AcDbLine
 10
510.6896712752
 20
258.7339110604
 30
0.0
 11
510.6896712752
 21
268.7339110604
 31
0.0
  0
LINE
  5
297
330
1F
100
AcDbEntity
  8
0
  6
CONTINUOUS
 62
     7
100
AcDbLine
 10
510.6896712752
 20
238.7339110604
 30
0.0
 11
510.6896712752
 21
248.7339110604
 31
0.0
  0
LINE
  5
298
330
1F
100
AcDbEntity
  8
0
  6
CONTINUOUS
 62
     7
100
AcDbLine
 10
510.6896712752
 20
218.7339110604
 30
0.0
 11
510.6896712752
 21
228.7339110604
 31
0.0
  0
LINE
  5
299
330
1F
100
AcDbEntity
  8
0
  6
CONTINUOUS
 62
     7
100
AcDbLine
 10
510.6896712752
 20
203.7339110604
 30
0.0
 11
510.6896712752
 21
208.7339110604
 31
0.0
  0
LINE
  5
29A
330
1F
100
AcDbEntity
  8
0
  6
CONTINUOUS
 62
     7
100
AcDbLine
 10
416.6896712752
 20
303.7339110604
 30
0.0
 11
416.6896712752
 21
298.7339110604
 31
0.0
  0
LINE
  5
29B
330
1F
100
AcDbEntity
  8
0
  6
CONTINUOUS
 62
     7
100
AcDbLine
 10
416.6896712752
 20
288.7339110604
 30
0.0
 11
416.6896712752
 21
278.7339110604
 31
0.0
  0
LINE
  5
29C
330
1F
100
AcDbEntity
  8
0
  6
CONTINUOUS
 62
     7
100
AcDbLine
 10
496.5896712752
 20
300.7339110604
 30
0.0
 11
496.5896712752
 21
303.7339110604
 31
0.0
  0
LINE
  5
29D
330
1F
100
AcDbEntity
  8
0
  6
CONTINUOUS
 62
     7
100
AcDbLine
 10
92.6107076366
 20
-1.4624323541
 30
0.0
 11
92.6107076366
 21
1.5375676459
 31
0.0
  0
LINE
  5
29E
330
1F
100
AcDbEntity
  8
0
  6
CONTINUOUS
 62
     7
100
AcDbLine
 10
92.6107076366
 20
1.5375676459
 30
0.0
 11
90.7884854144
 21
1.5375676459
 31
0.0
  0
LINE
  5
29F
330
1F
100
AcDbEntity
  8
0
  6
CONTINUOUS
 62
     7
100
AcDbLine
 10
92.6107076366
 20
-1.4624323541
 30
0.0
 11
90.7884854144
 21
-1.4624323541
 31
0.0
  0
LINE
  5
2A0
330
1F
100
AcDbEntity
  8
0
  6
CONTINUOUS
 62
     7
100
AcDbLine
 10
33.9440409699
 20
-1.4624323541
 30
0.0
 11
33.9440409699
 21
1.5375676459
 31
0.0
  0
LINE
  5
2A1
330
1F
100
AcDbEntity
  8
0
  6
CONTINUOUS
 62
     7
100
AcDbLine
 10
24.1662631921
 20
-1.4624323541
 30
0.0
 11
24.1662631921
 21
1.5375676459
 31
0.0
  0
LINE
  5
2A2
330
1F
100
AcDbEntity
  8
0
  6
CONTINUOUS
 62
     7
100
AcDbLine
 10
33.9440409699
 20
1.5375676459
 30
0.0
 11
24.1662631921
 21
1.5375676459
 31
0.0
  0
LINE
  5
2A3
330
1F
100
AcDbEntity
  8
0
  6
CONTINUOUS
 62
     7
100
AcDbLine
 10
33.9440409699
 20
-1.4624323541
 30
0.0
 11
24.1662631921
 21
-1.4624323541
 31
0.0
  0
LINE
  5
2A4
330
1F
100
AcDbEntity
  8
0
  6
CONTINUOUS
 62
     7
100
AcDbLine
 10
63.2773743032
 20
-1.4624323541
 30
0.0
 11
63.2773743032
 21
1.5375676459
 31
0.0
  0
LINE
  5
2A5
330
1F
100
AcDbEntity
  8
0
  6
CONTINUOUS
 62
     7
100
AcDbLine
 10
63.2773743032
 20
1.5375676459
 30
0.0
 11
61.5884854144
 21
1.5375676459
 31
0.0
  0
LINE
  5
2A6
330
1F
100
AcDbEntity
  8
0
  6
CONTINUOUS
 62
     7
100
AcDbLine
 10
63.2773743032
 20
-1.4624323541
 30
0.0
 11
61.5884854144
 21
-1.4624323541
 31
0.0
  0
LINE
  5
2A7
330
1F
100
AcDbEntity
  8
0
  6
CONTINUOUS
 62
     7
100
AcDbLine
 10
93.7884854144
 20
1.5375676459
 30
0.0
 11
92.6107076366
 21
1.5375676459
 31
0.0
  0
LINE
  5
2A8
330
1F
100
AcDbEntity
  8
0
  6
CONTINUOUS
 62
     7
100
AcDbLine
 10
93.7884854144
 20
-1.4624323541
 30
0.0
 11
92.6107076366
 21
-1.4624323541
 31
0.0
  0
LINE
  5
2A9
330
1F
100
AcDbEntity
  8
0
  6
CONTINUOUS
 62
     7
100
AcDbLine
 10
14.3884854144
 20
-1.4624323541
 30
0.0
 11
14.3884854144
 21
1.5375676459
 31
0.0
  0
LINE
  5
2AA
330
1F
100
AcDbEntity
  8
0
  6
CONTINUOUS
 62
     7
100
AcDbLine
 10
24.1662631921
 20
1.5375676459
 30
0.0
 11
14.3884854144
 21
1.5375676459
 31
0.0
  0
LINE
  5
2AB
330
1F
100
AcDbEntity
  8
0
  6
CONTINUOUS
 62
     7
100
AcDbLine
 10
24.1662631921
 20
-1.4624323541
 30
0.0
 11
14.3884854144
 21
-1.4624323541
 31
0.0
  0
LINE
  5
2AC
330
1F
100
AcDbEntity
  8
0
  6
CONTINUOUS
 62
     7
100
AcDbLine
 10
49.9884854144
 20
1.5375676459
 30
0.0
 11
33.9440409699
 21
1.5375676459
 31
0.0
  0
LINE
  5
2AD
330
1F
100
AcDbEntity
  8
0
  6
CONTINUOUS
 62
     7
100
AcDbLine
 10
49.9884854144
 20
-1.4624323541
 30
0.0
 11
33.9440409699
 21
-1.4624323541
 31
0.0
  0
LINE
  5
2AE
330
1F
100
AcDbEntity
  8
0
  6
CONTINUOUS
 62
     7
100
AcDbLine
 10
79.1884854144
 20
1.5375676459
 30
0.0
 11
76.1884854144
 21
1.5375676459
 31
0.0
  0
LINE
  5
2AF
330
1F
100
AcDbEntity
  8
0
  6
CONTINUOUS
 62
     7
100
AcDbLine
 10
64.5884854144
 20
1.5375676459
 30
0.0
 11
63.2773743032
 21
1.5375676459
 31
0.0
  0
LINE
  5
2B0
330
1F
100
AcDbEntity
  8
0
  6
CONTINUOUS
 62
     7
100
AcDbLine
 10
79.1884854144
 20
-1.4624323541
 30
0.0
 11
76.1884854144
 21
-1.4624323541
 31
0.0
  0
LINE
  5
2B1
330
1F
100
AcDbEntity
  8
0
  6
CONTINUOUS
 62
     7
100
AcDbLine
 10
64.5884854144
 20
-1.4624323541
 30
0.0
 11
63.2773743032
 21
-1.4624323541
 31
0.0
  0
LINE
  5
2B2
330
1F
100
AcDbEntity
  8
0
  6
CONTINUOUS
 62
     7
100
AcDbLine
 10
11.3884854144
 20
-1.4624323541
 30
0.0
 11
11.3884854144
 21
1.5375676459
 31
0.0
  0
LINE
  5
2B3
330
1F
100
AcDbEntity
  8
0
  6
CONTINUOUS
 62
     7
100
AcDbLine
 10
11.3884854144
 20
1.5375676459
 30
0.0
 11
14.3884854144
 21
1.5375676459
 31
0.0
  0
LINE
  5
2B4
330
1F
100
AcDbEntity
  8
0
  6
CONTINUOUS
 62
     7
100
AcDbLine
 10
11.3884854144
 20
-1.4624323541
 30
0.0
 11
14.3884854144
 21
-1.4624323541
 31
0.0
  0
LINE
  5
2B5
330
1F
100
AcDbEntity
  8
0
  6
CONTINUOUS
 62
     7
100
AcDbLine
 10
59.2884854144
 20
1.5375676459
 30
0.0
 11
55.2884854144
 21
1.5375676459
 31
0.0
  0
LINE
  5
2B6
330
1F
100
AcDbEntity
  8
0
  6
CONTINUOUS
 62
     7
100
AcDbLine
 10
55.2884854144
 20
1.5375676459
 30
0.0
 11
55.2884854144
 21
-1.4624323541
 31
0.0
  0
LINE
  5
2B7
330
1F
100
AcDbEntity
  8
0
  6
CONTINUOUS
 62
     7
100
AcDbLine
 10
55.2884854144
 20
-1.4624323541
 30
0.0
 11
59.2884854144
 21
-1.4624323541
 31
0.0
  0
LINE
  5
2B8
330
1F
100
AcDbEntity
  8
0
  6
CONTINUOUS
 62
     7
100
AcDbLine
 10
59.2884854144
 20
-1.4624323541
 30
0.0
 11
59.2884854144
 21
1.5375676459
 31
0.0
  0
LINE
  5
2B9
330
1F
100
AcDbEntity
  8
0
  6
CONTINUOUS
 62
     7
100
AcDbLine
 10
61.5884854144
 20
1.5375676459
 30
0.0
 11
61.5884854144
 21
-1.4624323541
 31
0.0
  0
LINE
  5
2BA
330
1F
100
AcDbEntity
  8
0
  6
CONTINUOUS
 62
     7
100
AcDbLine
 10
59.2884854144
 20
1.5375676459
 30
0.0
 11
61.5884854144
 21
1.5375676459
 31
0.0
  0
LINE
  5
2BB
330
1F
100
AcDbEntity
  8
0
  6
CONTINUOUS
 62
     7
100
AcDbLine
 10
59.2884854144
 20
-1.4624323541
 30
0.0
 11
61.5884854144
 21
-1.4624323541
 31
0.0
  0
LINE
  5
2BC
330
1F
100
AcDbEntity
  8
0
  6
CONTINUOUS
 62
     7
100
AcDbLine
 10
52.9884854144
 20
1.5375676459
 30
0.0
 11
52.9884854144
 21
-1.4624323541
 31
0.0
  0
LINE
  5
2BD
330
1F
100
AcDbEntity
  8
0
  6
CONTINUOUS
 62
     7
100
AcDbLine
 10
52.9884854144
 20
1.5375676459
 30
0.0
 11
55.2884854144
 21
1.5375676459
 31
0.0
  0
LINE
  5
2BE
330
1F
100
AcDbEntity
  8
0
  6
CONTINUOUS
 62
     7
100
AcDbLine
 10
52.9884854144
 20
-1.4624323541
 30
0.0
 11
55.2884854144
 21
-1.4624323541
 31
0.0
  0
LINE
  5
2BF
330
1F
100
AcDbEntity
  8
0
  6
CONTINUOUS
 62
     7
100
AcDbLine
 10
49.9884854144
 20
-1.4624323541
 30
0.0
 11
49.9884854144
 21
1.5375676459
 31
0.0
  0
LINE
  5
2C0
330
1F
100
AcDbEntity
  8
0
  6
CONTINUOUS
 62
     7
100
AcDbLine
 10
49.9884854144
 20
1.5375676459
 30
0.0
 11
52.9884854144
 21
1.5375676459
 31
0.0
  0
LINE
  5
2C1
330
1F
100
AcDbEntity
  8
0
  6
CONTINUOUS
 62
     7
100
AcDbLine
 10
49.9884854144
 20
-1.4624323541
 30
0.0
 11
52.9884854144
 21
-1.4624323541
 31
0.0
  0
LINE
  5
2C2
330
1F
100
AcDbEntity
  8
0
  6
CONTINUOUS
 62
     7
100
AcDbLine
 10
99.0884854144
 20
-1.4624323541
 30
0.0
 11
103.0884854144
 21
-1.4624323541
 31
0.0
  0
LINE
  5
2C3
330
1F
100
AcDbEntity
  8
0
  6
CONTINUOUS
 62
     7
100
AcDbLine
 10
99.0884854144
 20
1.5375676459
 30
0.0
 11
99.0884854144
 21
-1.4624323541
 31
0.0
  0
LINE
  5
2C4
330
1F
100
AcDbEntity
  8
0
  6
CONTINUOUS
 62
     7
100
AcDbLine
 10
103.0884854144
 20
1.5375676459
 30
0.0
 11
99.0884854144
 21
1.5375676459
 31
0.0
  0
LINE
  5
2C5
330
1F
100
AcDbEntity
  8
0
  6
CONTINUOUS
 62
     7
100
AcDbLine
 10
103.0884854144
 20
-1.4624323541
 30
0.0
 11
103.0884854144
 21
1.5375676459
 31
0.0
  0
LINE
  5
2C6
330
1F
100
AcDbEntity
  8
0
  6
CONTINUOUS
 62
     7
100
AcDbLine
 10
96.7884854144
 20
-1.4624323541
 30
0.0
 11
96.7884854144
 21
1.5375676459
 31
0.0
  0
LINE
  5
2C7
330
1F
100
AcDbEntity
  8
0
  6
CONTINUOUS
 62
     7
100
AcDbLine
 10
99.0884854144
 20
-1.4624323541
 30
0.0
 11
96.7884854144
 21
-1.4624323541
 31
0.0
  0
LINE
  5
2C8
330
1F
100
AcDbEntity
  8
0
  6
CONTINUOUS
 62
     7
100
AcDbLine
 10
99.0884854144
 20
1.5375676459
 30
0.0
 11
96.7884854144
 21
1.5375676459
 31
0.0
  0
LINE
  5
2C9
330
1F
100
AcDbEntity
  8
0
  6
CONTINUOUS
 62
     7
100
AcDbLine
 10
105.3884854144
 20
-1.4624323541
 30
0.0
 11
105.3884854144
 21
1.5375676459
 31
0.0
  0
LINE
  5
2CA
330
1F
100
AcDbEntity
  8
0
  6
CONTINUOUS
 62
     7
100
AcDbLine
 10
105.3884854144
 20
-1.4624323541
 30
0.0
 11
103.0884854144
 21
-1.4624323541
 31
0.0
  0
LINE
  5
2CB
330
1F
100
AcDbEntity
  8
0
  6
CONTINUOUS
 62
     7
100
AcDbLine
 10
105.3884854144
 20
1.5375676459
 30
0.0
 11
103.0884854144
 21
1.5375676459
 31
0.0
  0
LINE
  5
2CC
330
1F
100
AcDbEntity
  8
0
  6
CONTINUOUS
 62
     7
100
AcDbLine
 10
93.7884854144
 20
-1.4624323541
 30
0.0
 11
93.7884854144
 21
1.5375676459
 31
0.0
  0
LINE
  5
2CD
330
1F
100
AcDbEntity
  8
0
  6
CONTINUOUS
 62
     7
100
AcDbLine
 10
93.7884854144
 20
-1.4624323541
 30
0.0
 11
96.7884854144
 21
-1.4624323541
 31
0.0
  0
LINE
  5
2CE
330
1F
100
AcDbEntity
  8
0
  6
CONTINUOUS
 62
     7
100
AcDbLine
 10
93.7884854144
 20
1.5375676459
 30
0.0
 11
96.7884854144
 21
1.5375676459
 31
0.0
  0
LINE
  5
2CF
330
1F
100
AcDbEntity
  8
0
  6
CONTINUOUS
 62
     7
100
AcDbLine
 10
84.4884854144
 20
1.5375676459
 30
0.0
 11
84.4884854144
 21
-1.4624323541
 31
0.0
  0
LINE
  5
2D0
330
1F
100
AcDbEntity
  8
0
  6
CONTINUOUS
 62
     7
100
AcDbLine
 10
88.4884854144
 20
1.5375676459
 30
0.0
 11
84.4884854144
 21
1.5375676459
 31
0.0
  0
LINE
  5
2D1
330
1F
100
AcDbEntity
  8
0
  6
CONTINUOUS
 62
     7
100
AcDbLine
 10
88.4884854144
 20
-1.4624323541
 30
0.0
 11
88.4884854144
 21
1.5375676459
 31
0.0
  0
LINE
  5
2D2
330
1F
100
AcDbEntity
  8
0
  6
CONTINUOUS
 62
     7
100
AcDbLine
 10
84.4884854144
 20
-1.4624323541
 30
0.0
 11
88.4884854144
 21
-1.4624323541
 31
0.0
  0
LINE
  5
2D3
330
1F
100
AcDbEntity
  8
0
  6
CONTINUOUS
 62
     7
100
AcDbLine
 10
82.1884854144
 20
-1.4624323541
 30
0.0
 11
82.1884854144
 21
1.5375676459
 31
0.0
  0
LINE
  5
2D4
330
1F
100
AcDbEntity
  8
0
  6
CONTINUOUS
 62
     7
100
AcDbLine
 10
84.4884854144
 20
1.5375676459
 30
0.0
 11
82.1884854144
 21
1.5375676459
 31
0.0
  0
LINE
  5
2D5
330
1F
100
AcDbEntity
  8
0
  6
CONTINUOUS
 62
     7
100
AcDbLine
 10
84.4884854144
 20
-1.4624323541
 30
0.0
 11
82.1884854144
 21
-1.4624323541
 31
0.0
  0
LINE
  5
2D6
330
1F
100
AcDbEntity
  8
0
  6
CONTINUOUS
 62
     7
100
AcDbLine
 10
90.7884854144
 20
-1.4624323541
 30
0.0
 11
90.7884854144
 21
1.5375676459
 31
0.0
  0
LINE
  5
2D7
330
1F
100
AcDbEntity
  8
0
  6
CONTINUOUS
 62
     7
100
AcDbLine
 10
90.7884854144
 20
1.5375676459
 30
0.0
 11
88.4884854144
 21
1.5375676459
 31
0.0
  0
LINE
  5
2D8
330
1F
100
AcDbEntity
  8
0
  6
CONTINUOUS
 62
     7
100
AcDbLine
 10
90.7884854144
 20
-1.4624323541
 30
0.0
 11
88.4884854144
 21
-1.4624323541
 31
0.0
  0
LINE
  5
2D9
330
1F
100
AcDbEntity
  8
0
  6
CONTINUOUS
 62
     7
100
AcDbLine
 10
79.1884854144
 20
-1.4624323541
 30
0.0
 11
79.1884854144
 21
1.5375676459
 31
0.0
  0
LINE
  5
2DA
330
1F
100
AcDbEntity
  8
0
  6
CONTINUOUS
 62
     7
100
AcDbLine
 10
79.1884854144
 20
1.5375676459
 30
0.0
 11
82.1884854144
 21
1.5375676459
 31
0.0
  0
LINE
  5
2DB
330
1F
100
AcDbEntity
  8
0
  6
CONTINUOUS
 62
     7
100
AcDbLine
 10
79.1884854144
 20
-1.4624323541
 30
0.0
 11
82.1884854144
 21
-1.4624323541
 31
0.0
  0
LINE
  5
2DC
330
1F
100
AcDbEntity
  8
0
  6
CONTINUOUS
 62
     7
100
AcDbLine
 10
69.8884854144
 20
1.5375676459
 30
0.0
 11
69.8884854144
 21
-1.4624323541
 31
0.0
  0
LINE
  5
2DD
330
1F
100
AcDbEntity
  8
0
  6
CONTINUOUS
 62
     7
100
AcDbLine
 10
73.8884854144
 20
1.5375676459
 30
0.0
 11
69.8884854144
 21
1.5375676459
 31
0.0
  0
LINE
  5
2DE
330
1F
100
AcDbEntity
  8
0
  6
CONTINUOUS
 62
     7
100
AcDbLine
 10
73.8884854144
 20
-1.4624323541
 30
0.0
 11
73.8884854144
 21
1.5375676459
 31
0.0
  0
LINE
  5
2DF
330
1F
100
AcDbEntity
  8
0
  6
CONTINUOUS
 62
     7
100
AcDbLine
 10
69.8884854144
 20
-1.4624323541
 30
0.0
 11
73.8884854144
 21
-1.4624323541
 31
0.0
  0
LINE
  5
2E0
330
1F
100
AcDbEntity
  8
0
  6
CONTINUOUS
 62
     7
100
AcDbLine
 10
67.5884854144
 20
-1.4624323541
 30
0.0
 11
67.5884854144
 21
1.5375676459
 31
0.0
  0
LINE
  5
2E1
330
1F
100
AcDbEntity
  8
0
  6
CONTINUOUS
 62
     7
100
AcDbLine
 10
69.8884854144
 20
1.5375676459
 30
0.0
 11
67.5884854144
 21
1.5375676459
 31
0.0
  0
LINE
  5
2E2
330
1F
100
AcDbEntity
  8
0
  6
CONTINUOUS
 62
     7
100
AcDbLine
 10
69.8884854144
 20
-1.4624323541
 30
0.0
 11
67.5884854144
 21
-1.4624323541
 31
0.0
  0
LINE
  5
2E3
330
1F
100
AcDbEntity
  8
0
  6
CONTINUOUS
 62
     7
100
AcDbLine
 10
76.1884854144
 20
-1.4624323541
 30
0.0
 11
76.1884854144
 21
1.5375676459
 31
0.0
  0
LINE
  5
2E4
330
1F
100
AcDbEntity
  8
0
  6
CONTINUOUS
 62
     7
100
AcDbLine
 10
76.1884854144
 20
1.5375676459
 30
0.0
 11
73.8884854144
 21
1.5375676459
 31
0.0
  0
LINE
  5
2E5
330
1F
100
AcDbEntity
  8
0
  6
CONTINUOUS
 62
     7
100
AcDbLine
 10
76.1884854144
 20
-1.4624323541
 30
0.0
 11
73.8884854144
 21
-1.4624323541
 31
0.0
  0
LINE
  5
2E6
330
1F
100
AcDbEntity
  8
0
  6
CONTINUOUS
 62
     7
100
AcDbLine
 10
64.5884854144
 20
-1.4624323541
 30
0.0
 11
64.5884854144
 21
1.5375676459
 31
0.0
  0
LINE
  5
2E7
330
1F
100
AcDbEntity
  8
0
  6
CONTINUOUS
 62
     7
100
AcDbLine
 10
64.5884854144
 20
1.5375676459
 30
0.0
 11
67.5884854144
 21
1.5375676459
 31
0.0
  0
LINE
  5
2E8
330
1F
100
AcDbEntity
  8
0
  6
CONTINUOUS
 62
     7
100
AcDbLine
 10
64.5884854144
 20
-1.4624323541
 30
0.0
 11
67.5884854144
 21
-1.4624323541
 31
0.0
  0
LINE
  5
2E9
330
1F
100
AcDbEntity
  8
0
  6
CONTINUOUS
 62
     7
100
AcDbLine
 10
8.3884854144
 20
-1.4624323541
 30
0.0
 11
8.3884854144
 21
1.5375676459
 31
0.0
  0
LINE
  5
2EA
330
1F
100
AcDbEntity
  8
0
  6
CONTINUOUS
 62
     7
100
AcDbLine
 10
8.3884854144
 20
-1.4624323541
 30
0.0
 11
-0.2115145856
 21
-1.4624323541
 31
0.0
  0
LINE
  5
2EB
330
1F
100
AcDbEntity
  8
0
  6
CONTINUOUS
 62
     7
100
AcDbLine
 10
8.3884854144
 20
1.5375676459
 30
0.0
 11
-0.2115145856
 21
1.5375676459
 31
0.0
  0
LINE
  5
2EC
330
1F
100
AcDbEntity
  8
0
  6
CONTINUOUS
 62
     7
100
AcDbLine
 10
-0.2115145856
 20
-1.4624323541
 30
0.0
 11
-0.2115145856
 21
1.5375676459
 31
0.0
  0
LINE
  5
2ED
330
1F
100
AcDbEntity
  8
0
  6
CONTINUOUS
 62
     7
100
AcDbLine
 10
-5.6115145856
 20
-1.4624323541
 30
0.0
 11
-11.3884854144
 21
-1.4624323541
 31
0.0
  0
LINE
  5
2EE
330
1F
100
AcDbEntity
  8
0
  6
CONTINUOUS
 62
     7
100
AcDbLine
 10
-5.6115145856
 20
1.5375676459
 30
0.0
 11
-11.3884854144
 21
1.5375676459
 31
0.0
  0
LINE
  5
2EF
330
1F
100
AcDbEntity
  8
0
  6
CONTINUOUS
 62
     7
100
AcDbLine
 10
-1.4366498774
 20
1.5375676459
 30
0.0
 11
-1.4366498774
 21
-1.4624323541
 31
0.0
  0
LINE
  5
2F0
330
1F
100
AcDbEntity
  8
0
  6
CONTINUOUS
 62
     7
100
AcDbLine
 10
-1.4366498774
 20
1.5375676459
 30
0.0
 11
-0.2115145856
 21
1.5375676459
 31
0.0
  0
LINE
  5
2F1
330
1F
100
AcDbEntity
  8
0
  6
CONTINUOUS
 62
     7
100
AcDbLine
 10
-1.4366498774
 20
-1.4624323541
 30
0.0
 11
-0.2115145856
 21
-1.4624323541
 31
0.0
  0
LINE
  5
2F2
330
1F
100
AcDbEntity
  8
0
  6
CONTINUOUS
 62
     7
100
AcDbLine
 10
-5.6115145856
 20
-1.4624323541
 30
0.0
 11
-5.6115145856
 21
1.5375676459
 31
0.0
  0
LINE
  5
2F3
330
1F
100
AcDbEntity
  8
0
  6
CONTINUOUS
 62
     7
100
AcDbLine
 10
-5.6115145856
 20
1.5375676459
 30
0.0
 11
-1.4366498774
 21
1.5375676459
 31
0.0
  0
LINE
  5
2F4
330
1F
100
AcDbEntity
  8
0
  6
CONTINUOUS
 62
     7
100
AcDbLine
 10
-1.4366498774
 20
-1.4624323541
 30
0.0
 11
-5.6115145856
 21
-1.4624323541
 31
0.0
  0
LINE
  5
2F5
330
1F
100
AcDbEntity
  8
0
  6
CONTINUOUS
 62
     7
100
AcDbLine
 10
8.3884854144
 20
1.5375676459
 30
0.0
 11
11.3884854144
 21
1.5375676459
 31
0.0
  0
LINE
  5
2F6
330
1F
100
AcDbEntity
  8
0
  6
CONTINUOUS
 62
     7
100
AcDbLine
 10
8.3884854144
 20
-1.4624323541
 30
0.0
 11
11.3884854144
 21
-1.4624323541
 31
0.0
  0
LINE
  5
2F7
330
1F
100
AcDbEntity
  8
0
  6
CONTINUOUS
 62
     7
100
AcDbLine
 10
-16.0884854144
 20
-1.4624323541
 30
0.0
 11
-16.0884854144
 21
1.5375676459
 31
0.0
  0
LINE
  5
2F8
330
1F
100
AcDbEntity
  8
0
  6
CONTINUOUS
 62
     7
100
AcDbLine
 10
-25.4884854144
 20
-1.4624323541
 30
0.0
 11
-16.0884854144
 21
-1.4624323541
 31
0.0
  0
LINE
  5
2F9
330
1F
100
AcDbEntity
  8
0
  6
CONTINUOUS
 62
     7
100
AcDbLine
 10
-25.4884854144
 20
1.5375676459
 30
0.0
 11
-16.0884854144
 21
1.5375676459
 31
0.0
  0
LINE
  5
2FA
330
1F
100
AcDbEntity
  8
0
  6
CONTINUOUS
 62
     7
100
AcDbLine
 10
-25.4884854144
 20
-1.4624323541
 30
0.0
 11
-25.4884854144
 21
1.5375676459
 31
0.0
  0
LINE
  5
2FB
330
1F
100
AcDbEntity
  8
0
  6
CONTINUOUS
 62
     7
100
AcDbLine
 10
-44.2884854144
 20
-1.4624323541
 30
0.0
 11
-34.8884854144
 21
-1.4624323541
 31
0.0
  0
LINE
  5
2FC
330
1F
100
AcDbEntity
  8
0
  6
CONTINUOUS
 62
     7
100
AcDbLine
 10
-44.2884854144
 20
1.5375676459
 30
0.0
 11
-34.8884854144
 21
1.5375676459
 31
0.0
  0
LINE
  5
2FD
330
1F
100
AcDbEntity
  8
0
  6
CONTINUOUS
 62
     7
100
AcDbLine
 10
-44.2884854144
 20
-1.4624323541
 30
0.0
 11
-44.2884854144
 21
1.5375676459
 31
0.0
  0
LINE
  5
2FE
330
1F
100
AcDbEntity
  8
0
  6
CONTINUOUS
 62
     7
100
AcDbLine
 10
-34.8884854144
 20
-1.4624323541
 30
0.0
 11
-34.8884854144
 21
1.5375676459
 31
0.0
  0
LINE
  5
2FF
330
1F
100
AcDbEntity
  8
0
  6
CONTINUOUS
 62
     7
100
AcDbLine
 10
-63.0884854144
 20
-1.4624323541
 30
0.0
 11
-63.0884854144
 21
1.5375676459
 31
0.0
  0
LINE
  5
300
330
1F
100
AcDbEntity
  8
0
  6
CONTINUOUS
 62
     7
100
AcDbLine
 10
-53.6884854144
 20
-1.4624323541
 30
0.0
 11
-53.6884854144
 21
1.5375676459
 31
0.0
  0
LINE
  5
301
330
1F
100
AcDbEntity
  8
0
  6
CONTINUOUS
 62
     7
100
AcDbLine
 10
-63.0884854144
 20
-1.4624323541
 30
0.0
 11
-53.6884854144
 21
-1.4624323541
 31
0.0
  0
LINE
  5
302
330
1F
100
AcDbEntity
  8
0
  6
CONTINUOUS
 62
     7
100
AcDbLine
 10
-63.0884854144
 20
1.5375676459
 30
0.0
 11
-53.6884854144
 21
1.5375676459
 31
0.0
  0
LINE
  5
303
330
1F
100
AcDbEntity
  8
0
  6
CONTINUOUS
 62
     7
100
AcDbLine
 10
-81.8884854144
 20
-1.4624323541
 30
0.0
 11
-81.8884854144
 21
1.5375676459
 31
0.0
  0
LINE
  5
304
330
1F
100
AcDbEntity
  8
0
  6
CONTINUOUS
 62
     7
100
AcDbLine
 10
-72.4884854144
 20
-1.4624323541
 30
0.0
 11
-72.4884854144
 21
1.5375676459
 31
0.0
  0
LINE
  5
305
330
1F
100
AcDbEntity
  8
0
  6
CONTINUOUS
 62
     7
100
AcDbLine
 10
-81.8884854144
 20
-1.4624323541
 30
0.0
 11
-72.4884854144
 21
-1.4624323541
 31
0.0
  0
LINE
  5
306
330
1F
100
AcDbEntity
  8
0
  6
CONTINUOUS
 62
     7
100
AcDbLine
 10
-81.8884854144
 20
1.5375676459
 30
0.0
 11
-72.4884854144
 21
1.5375676459
 31
0.0
  0
LINE
  5
307
330
1F
100
AcDbEntity
  8
0
  6
CONTINUOUS
 62
     7
100
AcDbLine
 10
-91.2884854144
 20
-1.4624323541
 30
0.0
 11
-91.2884854144
 21
1.5375676459
 31
0.0
  0
LINE
  5
308
330
1F
100
AcDbEntity
  8
0
  6
CONTINUOUS
 62
     7
100
AcDbLine
 10
-100.6884854144
 20
-1.4624323541
 30
0.0
 11
-100.6884854144
 21
1.5375676459
 31
0.0
  0
LINE
  5
309
330
1F
100
AcDbEntity
  8
0
  6
CONTINUOUS
 62
     7
100
AcDbLine
 10
-100.6884854144
 20
-1.4624323541
 30
0.0
 11
-91.2884854144
 21
-1.4624323541
 31
0.0
  0
LINE
  5
30A
330
1F
100
AcDbEntity
  8
0
  6
CONTINUOUS
 62
     7
100
AcDbLine
 10
-100.6884854144
 20
1.5375676459
 30
0.0
 11
-91.2884854144
 21
1.5375676459
 31
0.0
  0
LINE
  5
30B
330
1F
100
AcDbEntity
  8
0
  6
CONTINUOUS
 62
     7
100
AcDbLine
 10
-81.8884854144
 20
-1.4624323541
 30
0.0
 11
-91.2884854144
 21
-1.4624323541
 31
0.0
  0
LINE
  5
30C
330
1F
100
AcDbEntity
  8
0
  6
CONTINUOUS
 62
     7
100
AcDbLine
 10
-81.8884854144
 20
1.5375676459
 30
0.0
 11
-91.2884854144
 21
1.5375676459
 31
0.0
  0
LINE
  5
30D
330
1F
100
AcDbEntity
  8
0
  6
CONTINUOUS
 62
     7
100
AcDbLine
 10
-44.2884854144
 20
-1.4624323541
 30
0.0
 11
-53.6884854144
 21
-1.4624323541
 31
0.0
  0
LINE
  5
30E
330
1F
100
AcDbEntity
  8
0
  6
CONTINUOUS
 62
     7
100
AcDbLine
 10
-44.2884854144
 20
1.5375676459
 30
0.0
 11
-53.6884854144
 21
1.5375676459
 31
0.0
  0
LINE
  5
30F
330
1F
100
AcDbEntity
  8
0
  6
CONTINUOUS
 62
     7
100
AcDbLine
 10
-63.0884854144
 20
-1.4624323541
 30
0.0
 11
-72.4884854144
 21
-1.4624323541
 31
0.0
  0
LINE
  5
310
330
1F
100
AcDbEntity
  8
0
  6
CONTINUOUS
 62
     7
100
AcDbLine
 10
-63.0884854144
 20
1.5375676459
 30
0.0
 11
-72.4884854144
 21
1.5375676459
 31
0.0
  0
LINE
  5
311
330
1F
100
AcDbEntity
  8
0
  6
CONTINUOUS
 62
     7
100
AcDbLine
 10
-11.3884854144
 20
-1.4624323541
 30
0.0
 11
-11.3884854144
 21
1.5375676459
 31
0.0
  0
LINE
  5
312
330
1F
100
AcDbEntity
  8
0
  6
CONTINUOUS
 62
     7
100
AcDbLine
 10
-11.3884854144
 20
-1.4624323541
 30
0.0
 11
-16.0884854144
 21
-1.4624323541
 31
0.0
  0
LINE
  5
313
330
1F
100
AcDbEntity
  8
0
  6
CONTINUOUS
 62
     7
100
AcDbLine
 10
-11.3884854144
 20
1.5375676459
 30
0.0
 11
-16.0884854144
 21
1.5375676459
 31
0.0
  0
LINE
  5
314
330
1F
100
AcDbEntity
  8
0
  6
CONTINUOUS
 62
     7
100
AcDbLine
 10
-25.4884854144
 20
-1.4624323541
 30
0.0
 11
-34.8884854144
 21
-1.4624323541
 31
0.0
  0
LINE
  5
315
330
1F
100
AcDbEntity
  8
0
  6
CONTINUOUS
 62
     7
100
AcDbLine
 10
-25.4884854144
 20
1.5375676459
 30
0.0
 11
-34.8884854144
 21
1.5375676459
 31
0.0
  0
LINE
  5
316
330
1F
100
AcDbEntity
  8
0
  6
CONTINUOUS
 62
     7
100
AcDbLine
 10
-105.3884854144
 20
-1.4624323541
 30
0.0
 11
-105.3884854144
 21
1.5375676459
 31
0.0
  0
LINE
  5
317
330
1F
100
AcDbEntity
  8
0
  6
CONTINUOUS
 62
     7
100
AcDbLine
 10
-100.6884854144
 20
-1.4624323541
 30
0.0
 11
-105.3884854144
 21
-1.4624323541
 31
0.0
  0
LINE
  5
318
330
1F
100
AcDbEntity
  8
0
  6
CONTINUOUS
 62
     7
100
AcDbLine
 10
-100.6884854144
 20
1.5375676459
 30
0.0
 11
-105.3884854144
 21
1.5375676459
 31
0.0
  0
LINE
  5
319
330
1F
100
AcDbEntity
  8
0
  6
CONTINUOUS
 62
     7
100
AcDbLine
 10
34.8884854144
 20
-1.5375676459
 30
0.0
 11
25.4884854144
 21
-1.5375676459
 31
0.0
  0
LINE
  5
31A
330
1F
100
AcDbEntity
  8
0
  6
CONTINUOUS
 62
     7
100
AcDbLine
 10
25.4884854144
 20
-1.4624323541
 30
0.0
 11
25.4884854144
 21
-1.5375676459
 31
0.0
  0
LINE
  5
31B
330
1F
100
AcDbEntity
  8
0
  6
CONTINUOUS
 62
     7
100
AcDbLine
 10
34.8884854144
 20
-1.4624323541
 30
0.0
 11
34.8884854144
 21
-1.5375676459
 31
0.0
  0
LINE
  5
31C
330
1F
100
AcDbEntity
  8
0
  6
CONTINUOUS
 62
     7
100
AcDbLine
 10
105.3884854144
 20
-1.5375676459
 30
0.0
 11
105.3884854144
 21
-1.4624323541
 31
0.0
  0
LINE
  5
31D
330
1F
100
AcDbEntity
  8
0
  6
CONTINUOUS
 62
     7
100
AcDbLine
 10
105.3884854144
 20
-1.5375676459
 30
0.0
 11
100.6884854144
 21
-1.5375676459
 31
0.0
  0
LINE
  5
31E
330
1F
100
AcDbEntity
  8
0
  6
CONTINUOUS
 62
     7
100
AcDbLine
 10
100.6884854144
 20
-1.4624323541
 30
0.0
 11
100.6884854144
 21
-1.5375676459
 31
0.0
  0
LINE
  5
31F
330
1F
100
AcDbEntity
  8
0
  6
CONTINUOUS
 62
     7
100
AcDbLine
 10
91.2884854144
 20
-1.5375676459
 30
0.0
 11
81.8884854144
 21
-1.5375676459
 31
0.0
  0
LINE
  5
320
330
1F
100
AcDbEntity
  8
0
  6
CONTINUOUS
 62
     7
100
AcDbLine
 10
81.8884854144
 20
-1.4624323541
 30
0.0
 11
81.8884854144
 21
-1.5375676459
 31
0.0
  0
LINE
  5
321
330
1F
100
AcDbEntity
  8
0
  6
CONTINUOUS
 62
     7
100
AcDbLine
 10
91.2884854144
 20
-1.4624323541
 30
0.0
 11
91.2884854144
 21
-1.5375676459
 31
0.0
  0
LINE
  5
322
330
1F
100
AcDbEntity
  8
0
  6
CONTINUOUS
 62
     7
100
AcDbLine
 10
72.4884854144
 20
-1.5375676459
 30
0.0
 11
63.0884854144
 21
-1.5375676459
 31
0.0
  0
LINE
  5
323
330
1F
100
AcDbEntity
  8
0
  6
CONTINUOUS
 62
     7
100
AcDbLine
 10
72.4884854144
 20
-1.4624323541
 30
0.0
 11
72.4884854144
 21
-1.5375676459
 31
0.0
  0
LINE
  5
324
330
1F
100
AcDbEntity
  8
0
  6
CONTINUOUS
 62
     7
100
AcDbLine
 10
63.0884854144
 20
-1.4624323541
 30
0.0
 11
63.0884854144
 21
-1.5375676459
 31
0.0
  0
LINE
  5
325
330
1F
100
AcDbEntity
  8
0
  6
CONTINUOUS
 62
     7
100
AcDbLine
 10
53.6884854144
 20
-1.5375676459
 30
0.0
 11
44.2884854144
 21
-1.5375676459
 31
0.0
  0
LINE
  5
326
330
1F
100
AcDbEntity
  8
0
  6
CONTINUOUS
 62
     7
100
AcDbLine
 10
44.2884854144
 20
-1.4624323541
 30
0.0
 11
44.2884854144
 21
-1.5375676459
 31
0.0
  0
LINE
  5
327
330
1F
100
AcDbEntity
  8
0
  6
CONTINUOUS
 62
     7
100
AcDbLine
 10
53.6884854144
 20
-1.4624323541
 30
0.0
 11
53.6884854144
 21
-1.5375676459
 31
0.0
  0
LINE
  5
328
330
1F
100
AcDbEntity
  8
0
  6
CONTINUOUS
 62
     7
100
AcDbLine
 10
16.0884854144
 20
-1.4624323541
 30
0.0
 11
16.0884854144
 21
-1.5375676459
 31
0.0
  0
LINE
  5
329
330
1F
100
AcDbEntity
  8
0
  6
CONTINUOUS
 62
     7
100
AcDbLine
 10
11.3884854144
 20
-1.5375676459
 30
0.0
 11
11.3884854144
 21
-1.4624323541
 31
0.0
  0
LINE
  5
32A
330
1F
100
AcDbEntity
  8
0
  6
CONTINUOUS
 62
     7
100
AcDbLine
 10
16.0884854144
 20
-1.5375676459
 30
0.0
 11
11.3884854144
 21
-1.5375676459
 31
0.0
  0
LINE
  5
32B
330
1F
100
AcDbEntity
  8
0
  6
CONTINUOUS
 62
     7
100
AcDbLine
 10
63.0884854144
 20
-1.5375676459
 30
0.0
 11
53.6884854144
 21
-1.5375676459
 31
0.0
  0
LINE
  5
32C
330
1F
100
AcDbEntity
  8
0
  6
CONTINUOUS
 62
     7
100
AcDbLine
 10
25.4884854144
 20
-1.5375676459
 30
0.0
 11
16.0884854144
 21
-1.5375676459
 31
0.0
  0
LINE
  5
32D
330
1F
100
AcDbEntity
  8
0
  6
CONTINUOUS
 62
     7
100
AcDbLine
 10
100.6884854144
 20
-1.5375676459
 30
0.0
 11
91.2884854144
 21
-1.5375676459
 31
0.0
  0
LINE
  5
32E
330
1F
100
AcDbEntity
  8
0
  6
CONTINUOUS
 62
     7
100
AcDbLine
 10
44.2884854144
 20
-1.5375676459
 30
0.0
 11
34.8884854144
 21
-1.5375676459
 31
0.0
  0
LINE
  5
32F
330
1F
100
AcDbEntity
  8
0
  6
CONTINUOUS
 62
     7
100
AcDbLine
 10
81.8884854144
 20
-1.5375676459
 30
0.0
 11
72.4884854144
 21
-1.5375676459
 31
0.0
  0
ENDSEC
  0
SECTION
  2
OBJECTS
  0
DICTIONARY
  5
C
330
0
100
AcDbDictionary
  3
ACAD_GROUP
350
D
  3
ACAD_MLINESTYLE
350
17
  3
ACAD_SCALELIST
350
47
  3
DWGPROPS
350
330
  0
DICTIONARY
  5
D
102
{ACAD_REACTORS
330
C
102
}
330
C
100
AcDbDictionary
  0
DICTIONARY
  5
17
102
{ACAD_REACTORS
330
C
102
}
330
C
100
AcDbDictionary
  3
STANDARD
350
18
  0
DICTIONARY
  5
47
102
{ACAD_REACTORS
330
C
102
}
330
C
100
AcDbDictionary
  0
XRECORD
  5
330
102
{ACAD_REACTORS
330
C
102
}
330
C
100
AcDbXrecord
  1
DWGPROPS COOKIE
  2

  3

  4

  6

  7

  8
Micha
  9

300
=
301
=
302
=
303
=
304
=
305
=
306
=
307
=
308
=
309
=
 40
0.0
 41
2459735.369013067
 42
2459735.369013715
  1

 90
        0
  0
MLINESTYLE
  5
18
102
{ACAD_REACTORS
330
17
102
}
330
17
100
AcDbMlineStyle
  2
Standard
 70
     0
  3

 62
   256
 51
90.0
 52
90.0
 71
     2
 49
0.5
 62
   256
  6
BYLAYER
 49
-0.5
 62
   256
  6
BYLAYER
  0
ENDSEC
  0
EOF
